<?xml version="1.0" standalone="no"?>
<!DOCTYPE svg PUBLIC "-//W3C//DTD SVG 1.1//EN" "http://www.w3.org/Graphics/SVG/1.1/DTD/svg11.dtd" >
<svg xmlns="http://www.w3.org/2000/svg" xmlns:xlink="http://www.w3.org/1999/xlink" version="1.1">
<metadata></metadata>
<defs>
<font id="th_dan_vi_vekbold_italic" horiz-adv-x="0" >
<font-face units-per-em="2048" ascent="1638" descent="-410" />
<missing-glyph horiz-adv-x="520" />
<glyph unicode="&#x3b;&#x3b;For&#x20;Education&#x20;Used&#x20;Only&#x3b;&#x3b;" horiz-adv-x="1296" />
<glyph unicode="&#x3b;&#x3b;Registered&#x3b;&#x3b;" horiz-adv-x="1296" />
<glyph unicode="&#x3b;&#x3b;Trademark&#x3b;&#x3b;" horiz-adv-x="1938" />
<glyph unicode="&#x3b;&#x3b;Multiply&#x3b;&#x3b;" horiz-adv-x="739" d="M128 109q0 7 2 15q7 34 22.5 50t40.5 34l-2 -1q2 2 14.5 11t29.5 22.5t36.5 29t36.5 30.5t28.5 27.5t12.5 18.5v4l-109 138q-2 1 -9 7t-14 16.5t-10.5 25.5t0.5 35q3 12 10.5 20t17 13t20.5 7t21 2q16 0 31.5 -11.5t30 -28t28 -35.5t25.5 -34l26 -32q1 -3 2.5 -5.5 t3.5 -5.5q6 -11 13 -20t15 -9q5 0 10.5 5t13.5 10q1 1 4.5 5.5t16.5 17.5l-2 -1q18 19 40 38t44.5 35t43 29t35.5 21l4 3t11 6.5t15 6.5t17 3q14 0 25 -11t6 -34q-4 -17 -21.5 -37t-38 -38t-39.5 -32t-26 -20q-4 -3 -20 -17t-34 -29.5t-32.5 -28l-14.5 -12.5 q15 -25 33.5 -46t38 -41.5t38.5 -42t35 -46.5q5 -8 11 -22.5t3 -29.5q-3 -14 -18 -26q1 0 2 1q1 0 1 -1q-14 -9 -25.5 -12.5t-22.5 -3.5q-20 0 -33.5 9t-21.5 17q-27 24 -51.5 51.5t-43.5 51t-31 39.5t-14 18l-10 -9q-7 -7 -23 -22.5t-37.5 -35.5t-46 -41t-48 -38.5 t-44.5 -29t-35 -11.5t-22 7t-11 13zM648 98q2 1 2 1.5t1 1.5l-1 -2z" />
<glyph unicode="&#x3b;&#x3b;Divide&#x3b;&#x3b;" horiz-adv-x="969" d="M162 363q5 26 17.5 40.5t30 21.5t38.5 8.5t42 1.5q32 -2 75.5 -4t92.5 -3.5t100.5 -3t100.5 -2t92 -1t74 -0.5q11 0 21 1t21 2t21 1.5t20 0.5q11 0 21 -5q28 -15 21 -49q-4 -16 -7 -25t-7.5 -14t-11.5 -7t-19 -3q-3 -1 -8.5 -1t-11.5 -2l1 1q-35 -8 -65 -9t-60 -1h-23 h-33t-44 0.5t-51 1t-54 1.5q-54 2 -104 3t-77 1h-22t-22 -1q-10 0 -20.5 -0.5t-20.5 -0.5h-23q-6 0 -11 0.5t-10 0.5q-3 0 -5.5 -0.5t-5.5 -0.5h-18h-22.5t-19.5 4.5t-12 14t-1 28.5zM417 110q-3 17 0 31q9 42 39 67t67 25q28 0 50.5 -15t33.5 -41v1q4 -8 6.5 -16.5 t1.5 -19.5q-5 -22 -16.5 -40.5t-27.5 -32t-35 -21t-38 -7.5q-26 0 -42.5 10.5t-26 26t-12.5 32.5zM515.5 568q-2.5 17 0.5 31q9 42 39 67.5t67 25.5q28 0 50 -15.5t33 -41.5l1 1q8 -17 7 -36q-5 -22 -16.5 -40.5t-27.5 -32t-34.5 -21t-37.5 -7.5q-26 0 -42.5 10.5t-26.5 26 t-12.5 32.5z" />
<glyph unicode="&#x2018;&#x2018;" horiz-adv-x="553" d="M230 699q13 40 29.5 80.5t37.5 75.5q7 11 18 26.5t24 31t26 28t24 16.5t22 -1.5t15 -27.5l-1 1q3 -12 -2.5 -24.5t-10.5 -23.5l-4 -8q-2 -3 -3 -4v1q-17 -26 -26 -47.5t-14 -41.5q14 -8 24.5 -21t12.5 -31q3 -8 3.5 -17t-0.5 -17q-6 -19 -18 -34.5t-27 -25.5t-32 -15 t-33 -3q-24 4 -38 17t-19 30q-11 11 -8 35zM432 699q13 40 29.5 80.5t37.5 75.5q7 11 18 26.5t24 31t26 28t24 16.5t22 -1.5t16 -27.5l-1 1q2 -12 -3 -24.5t-11 -23.5l-4 -8q-2 -3 -3 -4v1q-17 -26 -26 -47.5t-14 -41.5q14 -8 24.5 -21t12.5 -31q4 -8 4 -17t-1 -17 q-6 -19 -17.5 -34.5t-27 -25.5t-32.5 -15t-33 -3q-24 4 -38 17t-19 30q-11 11 -8 35z" />
<glyph unicode="&#x2019;&#x2019;" horiz-adv-x="553" d="M248 644q-2 11 3.5 24t11.5 24q0 2 1 3.5t2 3.5t3 5v-1q17 24 26 46t15 43q-16 8 -26.5 20.5t-12.5 30.5q-4 8 -4 17t1 18q6 19 18 34t27.5 25.5t32.5 15t33 3.5q24 -4 37.5 -17t20.5 -30q9 -10 6 -35q-12 -39 -28.5 -80t-38.5 -77q-7 -11 -18.5 -27t-24 -31t-25.5 -27 t-24 -16q-10 -5 -21 0.5t-15 28.5v-1zM450 644q-2 11 3.5 24t11.5 24q0 2 1 3.5t2 3.5t3 5v-1q17 24 26 46t15 43q-33 16 -39 51q-4 8 -4 17t1 18q6 19 18 34t27.5 25.5t32.5 15t33 3.5q24 -4 37.5 -17t20.5 -30q9 -10 6 -35q-11 -39 -28 -80t-39 -77q-7 -11 -18.5 -27 t-24 -31t-25.5 -27t-24 -16q-10 -5 -21 0.5t-15 28.5v-1z" />
<glyph unicode="&#xe24;&#xe32;" horiz-adv-x="1151" d="M153.5 21q-1.5 18 2 39t7.5 42q2 8 3 14.5t2 14.5q8 47 17 95t18 95q3 17 6 32t6 31l3 15q5 24 11 48.5t15 47.5t22.5 46t34.5 44q-4 0 -7.5 -0.5t-8.5 -1.5q-4 -1 -9 -3l-10 -4l1 1q-9 -5 -19 -8t-18 -3q-11 0 -20.5 5.5t-14.5 19.5v-1q-5 13 -3 23.5t8 19.5t14.5 16.5 t17.5 14.5l5.5 5.5l6.5 6.5q6 5 13 12.5t12 13.5q19 20 39.5 40t44 38t50.5 31.5t57 19.5q14 2 29 3.5t29 1.5q37 0 71 -9t64.5 -23t58 -31.5t53.5 -34.5v1q3 -2 6.5 -4.5t7.5 -4.5q19 21 43 38t49.5 29.5t51.5 19t49 6.5q27 0 52 -7.5t53 -21.5q38 -20 61 -44t34 -52.5 t11 -60.5t-8 -68q-5 -26 -13.5 -55t-17.5 -59q-10 -32 -18.5 -64t-15.5 -64q-3 -12 -11 -49.5t-19 -91.5t-25 -120t-28 -134q-14 -67 -27.5 -131.5t-25 -117.5t-19 -89.5t-9.5 -47.5q-2 -12 -5 -25t-7 -26q-2 -10 -5.5 -24.5t-5.5 -22.5l-6 -27q-5 -23 -16 -39.5t-42 -16.5 q-30 0 -36.5 13t-1.5 35q3 14 7 25q5 11 8 22.5t6 23.5q2 12 4 23.5t4 22.5q2 13 4 25t4 23l185 871q9 42 19.5 86.5t23.5 85.5q-1 14 -15 31.5t-34.5 33t-44 26t-42.5 10.5q-4 0 -8 -1q-121 -24 -168 -160q-29 -141 -57 -279t-57 -278q-28 -141 -56 -280t-56 -279 q-1 -4 -1 -9q-2 -13 -5 -26t-10.5 -23.5t-19.5 -17.5t-32 -8q-21 -1 -31 5.5t-12.5 17.5t-0.5 24.5t5 25.5l2 7q18 70 34.5 140t31.5 140q18 84 34 165t31 164q14 79 31 163.5t34 163.5q5 23 11 46.5t11 46.5q6 22 11.5 43.5t10.5 44.5q6 28 9 52l3 13q4 16 1 27h1 q-6 16 -26.5 29.5t-49.5 23t-63 14.5t-66 5q-31 0 -56 -4.5t-40 -15.5q-17 -13 -19 -19q-1 -1 17 -5h-1q25 -4 54 -22q17 -11 27.5 -23t6.5 -29q-3 -14 -15.5 -26t-38.5 -25q-55 -26 -85 -69t-41 -100q-2 -12 -3 -22t1.5 -18.5t9.5 -14.5t21 -9q36 -8 50.5 -38.5t4.5 -75.5 q-10 -48 -50 -105v1l-10 -16t-11 -18q-11 -19 -24 -37.5t-28 -33t-33 -21.5t-40 -3q-18 4 -26 17t-9.5 31zM241 99q15 11 24.5 23t15.5 24t10 24.5t10 24.5q5 11 4 21t-15 12t-23 -8.5t-14 -22.5q-5 -23 -10 -47.5t-2 -50.5z" />
<glyph unicode="&#xe26;&#xe32;" horiz-adv-x="1171" d="M78 153q10 48 43 92t87 79q16 10 22.5 19.5t7.5 23.5q1 13 3 26.5t5 27.5q10 46 31 86.5t62 76.5q-3 0 -7.5 -0.5t-7.5 -0.5q-20 -3 -36 0.5t-20 26.5l1 -1q-4 16 0 30t12 26t19.5 22.5t23.5 20.5q5 5 10.5 9.5t10.5 9.5q49 51 117.5 76.5t138.5 25.5q63 0 118.5 -22 t89.5 -66q19 18 41.5 33.5t46.5 26t48 16.5t46 6q27 0 52 -7.5t53 -21.5q38 -20 61 -44t34 -52.5t11 -60.5t-8 -68q-5 -26 -13.5 -55t-17.5 -59q-9 -32 -17.5 -64t-15.5 -64q-3 -12 -11 -49.5t-19 -91.5t-25 -120t-28 -134q-14 -67 -27.5 -131.5t-25 -117.5t-19 -89.5 t-9.5 -47.5q-2 -12 -5 -25t-7 -26q-2 -10 -5.5 -24.5t-5.5 -22.5l-6 -27q-5 -23 -16.5 -39.5t-41.5 -16.5q-31 0 -37.5 13t-1.5 35q3 14 7 25q5 11 8 22.5t6 23.5q2 12 4 23.5t4 22.5q2 13 4 25t4 23l185 871q9 42 19.5 86.5t23.5 85.5q0 14 -14 31.5t-34.5 33t-44.5 26 t-43 10.5q-4 0 -7 -1q-61 -12 -104 -53t-68 -116q-9 -42 -15.5 -82.5t-13.5 -83.5q-6 -38 -14 -78t-16 -78q-3 -15 -6.5 -31t-7.5 -32q-7 -29 -13.5 -57t-12.5 -55q-10 -47 -18 -90.5t-16 -88.5t-16 -89.5t-18 -90.5q-8 -40 -18.5 -83t-23.5 -86q-3 -13 -4 -30t-2 -31 q-1 -9 -0.5 -16.5t-1.5 -18.5q-1 -4 -1 -15q0 -10 -1 -19t-6 -17t-15.5 -14t-29.5 -9q-23 -3 -34 2t-15 15.5t-2 23.5l4 26q10 49 18 90t16 80.5t16.5 80.5t18.5 90q11 54 22 108.5t22 108.5q33 164 66.5 326t68.5 327q5 17 0 26.5t-19 17.5q-32 17 -72 32.5t-82 15.5 q-23 0 -46.5 -6t-47.5 -20l1 1q-11 -7 -20 -13t-10 -11q-2 -5 13 -19q18 -14 28 -33.5t5 -40.5q-4 -17 -18 -33.5t-40 -31.5q-39 -21 -55 -47t-23 -58q-2 -7 -3 -13.5t-2 -13.5q-15 -90 -30 -179.5t-29 -179.5q-6 -25 -23 -39.5t-36.5 -21t-37.5 -6t-25 5.5q-47 35 -64.5 84 t-6.5 101zM157 106q4 -12 10.5 -22t20.5 -8q6 1 11.5 10.5t9.5 22t5.5 24t0.5 16.5q-4 9 -1.5 22.5t4.5 25.5t0.5 20t-12.5 5q-17 -3 -26.5 -13.5t-15 -24t-6.5 -29.5t0 -31q1 -5 -1 -9.5t0 -8.5z" />
<glyph unicode="&#xd;" horiz-adv-x="579" />
<glyph unicode=" "  horiz-adv-x="520" />
<glyph unicode="&#x09;" horiz-adv-x="520" />
<glyph unicode="&#xa0;" horiz-adv-x="520" />
<glyph unicode="!" horiz-adv-x="323" d="M87 10q-3 11 2 32q10 34 31.5 50.5t44.5 18.5q41 3 55.5 -12.5t9.5 -47.5q-7 -40 -29.5 -54t-56.5 -13q-13 1 -25 2.5t-20.5 7t-11.5 16.5zM153.5 211.5q-1.5 10.5 2 24t7.5 26.5l4 12q14 63 29.5 130.5t30.5 139.5q18 85 36 168.5t38 158.5q3 11 7 24.5t12.5 25t21 19.5 t31.5 7q18 -1 29 -9t16 -20t5.5 -25.5t-2.5 -25.5l-14 -50t-15 -50q-17 -52 -34.5 -115t-34.5 -129t-33.5 -131t-30.5 -120l-3 -15q-2 -13 -5 -25.5t-9.5 -22.5t-18 -16t-31.5 -5q-20 0 -28.5 6.5t-10 17z" />
<glyph unicode="&#x22;" horiz-adv-x="480" d="M249 780q1 18 7 35q4 13 8.5 25.5t9.5 24.5q12 29 22 59.5t18 66.5q2 9 9.5 24t20 29.5t30 25t39.5 10.5q15 0 23 -5.5t12 -13t4 -17t-1 -16.5l-5 -25q-2 0 -12.5 -28.5t-23.5 -66.5t-25.5 -75.5t-18.5 -56.5q-2 -5 -2.5 -9t-1.5 -6q-2 -6 -6 -14.5t-11 -16.5 t-18.5 -13.5t-27.5 -5.5q-20 0 -31 10t-15.5 25.5t-3.5 33.5zM428 793q8 38 18 73.5t21 70.5q5 17 10 34.5t10 34.5q5 25 19.5 43.5t46.5 26.5q24 0 35 -9.5t13.5 -26t-1 -38.5t-9.5 -47l-1 -9q-6 -28 -14.5 -54.5t-17.5 -52.5q-5 -15 -10.5 -29.5t-10.5 -29.5 q-3 -15 -10.5 -25t-16.5 -16t-17.5 -9.5t-13.5 -4.5q-35 0 -45.5 21t-5.5 47z" />
<glyph unicode="#" horiz-adv-x="993" d="M158 342q5 21 23.5 35.5t38.5 14.5h16q26 0 55 -0.5t48 -8.5q6 -2 14 -3.5t16.5 -2t16 -0.5h12.5h4q5 0 8.5 0.5t8.5 4.5q-1 0 2 14.5t7.5 37.5t10.5 51.5t12 57.5q1 5 2 10.5t1 10.5q-1 2 -11.5 3t-45.5 1q-17 0 -33 -4l-9 -6t-11 -7q-12 -7 -23.5 -13t-22.5 -6 q-6 0 -17.5 4.5t-22 13t-16.5 21t-3 28.5q8 29 31 44.5t54 23t66 8.5t68 1q3 0 6.5 -0.5t6.5 -0.5q8 -1 14 0t7 6q5 21 8.5 41.5t7.5 41.5t8 43t9 43q1 6 5 16.5t11.5 21t18.5 18t26 7.5q19 0 28.5 -9t12.5 -22t1.5 -28t-4.5 -28q-8 -39 -15.5 -78.5t-14.5 -78.5l-2 -7 q0 1 6 1q9 -1 21 -1h21h20.5t20.5 1q12 0 25 0.5t27 0.5q-1 0 0 4l2 2q6 26 12.5 53t13.5 54q6 27 12.5 54.5t14.5 55.5q10 34 51 44q17 0 26.5 -7.5t14 -19t5 -25t-2.5 -26.5q-6 -29 -13 -57t-15 -57q-5 -16 -9 -34.5t-8 -34.5q-2 -9 1 -11l-12 -26q5 8 16 18t25 10h8.5 t11.5 1q8 1 17.5 1h18.5q27 0 47.5 -7t21.5 -30q-5 -22 -15.5 -35t-25 -20t-32.5 -10.5t-38 -5.5l-23 -3h-7.5t-10.5 2l2 -1q-5 1 -10.5 1.5t-11 -1.5t-10 -7t-6.5 -16t-3.5 -21t-3.5 -21t-3.5 -22t-3.5 -21q-2 -12 -5.5 -23.5t-6.5 -22.5t-6 -21.5t-5 -21.5l-1 -6l-2 -2h1 h39q22 0 45 -1t42.5 -5.5t34.5 -13t21 -22.5v-11l1 4q0 -3 1 -5.5t0 -5.5q-4 -17 -13.5 -26t-23.5 -13.5t-32 -5t-39 -0.5h-10h-35h-27q-2 0 -5.5 0.5t-6.5 0.5q-5 1 -9.5 -0.5t-7.5 -15.5t-6 -34q-2 -13 -4.5 -27.5t-5.5 -27.5q-1 -5 -1.5 -11.5t-2.5 -12.5q-2 -8 -3.5 -17 t-3.5 -18q-5 -21 -11 -41t-16 -36t-23.5 -26t-31.5 -10q-23 0 -33.5 15.5t-6.5 34.5q9 40 20 86q10 42 18 78q4 17 8 31q3 11 4.5 21t-0.5 10q-2 1 -14.5 3.5t-32 5.5t-43 5t-46.5 2q-6 0 -8.5 -1.5t-4.5 -9.5q0 -2 -0.5 -5.5t-0.5 -6.5q0 -4 -1.5 -10.5t-2.5 -11.5 q-5 -23 -10.5 -45t-10.5 -43q-5 -20 -10 -40.5t-10 -42.5q0 -5 -2.5 -14t-9.5 -18.5t-20 -18t-35 -11.5q-16 0 -25 7.5t-12.5 18.5t-3.5 22t2 19q5 24 11.5 49t13.5 49q7 25 13 48.5t11 48.5q5 23 -3 26.5t-26 4.5h-12t-12 1q-7 1 -17 1h-18q-25 0 -52.5 2t-49 8.5t-34 19.5 t-7.5 36zM516.5 378q-0.5 -10 8.5 -12q26 -3 53.5 -4.5t55.5 -2.5q7 0 13.5 -0.5t14.5 -0.5q5 0 10.5 22t12.5 53l3 15q2 13 4 24.5t4 25.5q2 13 4.5 26t4.5 26q1 4 1 6q-1 0 -2 0.5t-2 0.5q-27 1 -52 1h-52h-37q-3 0 -6 -7t-5.5 -17t-5 -22t-3.5 -21l-3 -14 q-3 -15 -6.5 -28t-5.5 -24q-9 -37 -9.5 -47zM947 303q1 -1 1 -4q-2 2 -1 4z" />
<glyph unicode="$" horiz-adv-x="815" d="M124.5 140q-0.5 40 9.5 88l1 4q1 9 4.5 21.5t10.5 24.5t19.5 20t32.5 8q16 0 24.5 -8.5t11.5 -22t1.5 -30t-4.5 -32.5q-1 -4 -2 -7.5t-2 -6.5l-2 -7q-6 -27 4.5 -50t30 -40t43.5 -26.5t46 -9.5q3 0 5.5 10.5t5.5 24.5l22 103q4 19 7.5 36t8.5 28l-2 -3q2 12 4.5 24.5 t5.5 26.5l11 51q3 17 7 36t9 36q5 21 -0.5 33t-20.5 26l2 -1q-72 48 -99.5 111t-6.5 161q9 44 32.5 82.5t55.5 70.5t70 56t78 38q12 5 22 12t12 21q2 4 1.5 5.5t0.5 6.5q0 3 1 9l2 12q1 5 4.5 20t11.5 31.5t21.5 29t34.5 12.5q32 0 37.5 -20.5t-1.5 -53.5q-2 -10 -5 -19.5 t-5 -19.5l-7 -36q-2 -5 8.5 -7t21.5 -2q23 -2 38.5 -8.5t28.5 -14.5l9 -5q10 -5 24.5 -12.5t27.5 -18t21 -23.5t5 -28l-4 -21q-4 -20 -11 -48t-18.5 -54t-28.5 -44.5t-41 -18.5q-20 0 -29.5 13t-5.5 32q8 32 17 59q2 7 5 15.5t5 16.5q-1 10 -11 18.5t-25 16t-32.5 12.5 t-32.5 8q-8 -3 -13.5 -22t-10.5 -41l-26 -121q-7 -33 -14 -66.5t-11.5 -59.5t-6.5 -42.5t0 -16.5q1 -4 4 -8q4 -8 11 -11v1q17 -11 39.5 -25.5t50.5 -37.5h1q57 -48 80 -108.5t5 -144.5q-11 -50 -40.5 -90.5t-72.5 -71.5t-95.5 -52t-108.5 -31l1 1q-4 -1 -4 0q-3 -18 -3 -32 v-30q-3 -25 -24 -44.5t-47 -19.5q-18 0 -27.5 9.5t-12.5 23t-1.5 29.5t4.5 30q5 23 1.5 27t-12.5 4h-13t-10 1q-62 20 -98.5 46t-53.5 58.5t-17.5 72.5zM406 749q-10 -46 3.5 -87t60.5 -70q0 2 0.5 5t0.5 5q2 8 3.5 16t3.5 16q2 6 2.5 12.5t1.5 9.5q6 29 12.5 57t12.5 57 t12.5 59.5t14.5 64.5q0 5 3 11q-62 -28 -91 -66.5t-40 -89.5zM463 75q1 2 2 3t6 1h1q11 -1 22.5 3t22.5 8q60 23 97 55t46 74q7 35 -1.5 65t-27 55t-45.5 45.5t-55 36.5q1 -6 -0.5 -18.5t-3.5 -25.5q-2 -6 -3 -12t-2 -11q-2 -5 -2.5 -11t-2.5 -14q-2 -10 -4 -21.5t-4 -21.5 q-5 -25 -10 -36q-20 -89 -36 -175zM470 592q3 -5 8 -5q2 0 4 -1q-4 2 -6.5 3t-5.5 3zM512 430q-1 -4 3 -5t9 -1q-3 2 -6.5 3t-5.5 3zM524 424q4 -2 7 -3l-3 3h-4z" />
<glyph unicode="%" horiz-adv-x="1293" d="M248.5 710.5q-0.5 40.5 7.5 76.5q10 46 32.5 86t54.5 70t72 47t84 17q33 0 68 -18t61.5 -51.5t39 -81.5t-0.5 -108q-6 -31 -21 -59t-37 -54q-35 -41 -83 -67.5t-103 -30.5h-19q-20 0 -35 0.5t-27 2.5q-33 7 -53 33t-30 61.5t-10.5 76zM349 760q-2 -30 1 -50.5t14 -33.5 t32.5 -19.5t57.5 -8.5q19 0 37.5 10.5t33.5 26t26 34.5t16 36q6 29 0.5 56.5t-19 48.5t-33 33.5t-40.5 12.5q-23 0 -43.5 -11.5t-37 -29.5t-28 -39.5t-15.5 -40.5q-1 -5 -1.5 -11.5t-0.5 -13.5zM375 -4q3 15 16 35q3 5 7 12t7 13q42 69 83.5 137.5t86.5 132.5 q47 68 92 134.5t90 134.5q60 89 122.5 182.5t124.5 181.5q6 8 9.5 16t7.5 17q13 26 26.5 46t36.5 20q20 0 33.5 -14t11.5 -34q-4 -17 -11.5 -35t-17 -36t-20.5 -34.5l-21 -31.5q-83 -122 -165 -242.5t-164 -243.5q-17 -26 -34.5 -52t-35.5 -52q-34 -49 -66 -95.5t-61 -94.5 q-5 -9 -12 -23l-14 -28l-14 -30t-15 -28l-1 -2q-12 -15 -23 -24t-20 -13t-15.5 -5t-9.5 -1q-23 4 -31 20.5t-3 36.5zM814 127q-3 34 2 60q7 31 22.5 66t32.5 69v-1q15 30 39.5 55.5t54 44.5t61 29.5t59.5 10.5q38 0 67 -16t49 -45l-1 -1q25 -40 31.5 -82.5t-2.5 -85.5 q-8 -34 -19 -58.5t-23.5 -42.5t-26.5 -31t-27 -24q-5 -4 -9 -8l-8 -8v1q-69 -70 -155 -70q-7 0 -11.5 0.5t-10.5 1.5q-14 -3 -21 -3q-33 0 -55 21.5t-34 52t-15 64.5zM920 186q-3 -15 1 -31t13 -29.5t21.5 -22.5t26.5 -9q3 0 4.5 0.5t7.5 1.5q47 17 84.5 51t49.5 89 q3 17 2.5 38.5t-7 40t-20 31.5t-34.5 13q-24 0 -47.5 -15.5t-44 -40.5t-36 -55.5t-21.5 -61.5z" />
<glyph unicode="&#x26;" horiz-adv-x="1099" d="M133 185q1 34 8 68q13 61 45.5 115t70.5 106q29 30 62 50.5t63 37.5h1l2 2l1 1q-14 16 -20.5 35t-8.5 38.5t0 38.5t6 36q9 42 29 88.5t53 81.5q30 32 62.5 50.5t65.5 28t67 12t68 2.5h81q2 0 14 -1.5t24.5 -7.5t21 -17.5t4.5 -32.5q-1 -8 -7 -16q-6 -13 -11 -27.5 t-7 -25.5l-2 -6q-2 -12 -6 -31t-11.5 -36.5t-19 -30t-28.5 -12.5q-18 0 -27.5 7t-12.5 19.5t-1.5 29.5t5.5 36q2 7 3.5 15t3.5 16t2.5 8t2.5 9q-17 2 -34 3t-31 1q-50 0 -86.5 -12.5t-62 -33.5t-40 -49t-21.5 -60q-8 -35 -3 -58t17.5 -38t30.5 -24.5t38 -18.5q2 -3 5 -3.5 t7 -1.5l-1 1q8 -1 16 -3t13 -7t7 -13.5t-1 -23.5q-4 -20 -13.5 -30.5t-19.5 -15.5t-19.5 -6t-13.5 -1h-25t-25 2q-40 0 -77.5 -17.5t-69 -48t-54.5 -72t-33 -89.5q-11 -53 0 -92.5t38.5 -65.5t69.5 -39t93 -13q31 0 70 7t81 20.5t82.5 33t74.5 44.5t57.5 55.5t31.5 65.5 q3 17 1 39.5t-11.5 42.5t-28 34t-46.5 14q-19 0 -38 -7.5t-29 -25.5l-3 -6q-6 -12 -13.5 -25t-17 -23.5t-21 -17t-26.5 -6.5q-17 0 -24 7t-8.5 18t1 24.5t5.5 25.5q1 4 1.5 6.5t1.5 5.5q7 35 27 62.5t47.5 46t60.5 28.5t68 10q15 0 34.5 -0.5t39.5 -1.5t38.5 -1h32.5 q19 0 39 7.5t37 21.5t29.5 33.5t17.5 42.5q1 2 0.5 4.5t-1.5 4.5q-2 2 -4 4.5t-4 5.5q-11 11 -22.5 25t-6.5 33q3 17 12.5 28t21 17t24 8.5t22.5 2.5q27 0 48 -15l1 -1q11 -10 15 -23.5t4 -29t-3 -32t-7 -31.5l-2 -13q-3 -15 -11.5 -37t-23.5 -44.5t-36.5 -43t-51.5 -30.5 q0 1 -7 -0.5t-18 -4t-23.5 -5.5t-23.5 -6q-15 -4 -28 -6t-19 0q2 -3 4 -7t5 -8q2 -5 5 -10t5 -10q11 -26 12 -57t-6 -63t-21.5 -63.5t-34.5 -60t-44.5 -52.5t-51.5 -40q-91 -54 -187.5 -87t-192.5 -33q-57 0 -106 16t-91 51v-1q-28 21 -44 49t-23 60t-6 66z" />
<glyph unicode="'" horiz-adv-x="317" d="M218 764.5q1 15.5 4 31.5q14 32 27.5 66t28.5 72q11 28 21.5 56.5t22.5 55.5q11 25 30.5 38t39.5 13h7.5t8.5 -2q21 -6 31 -22.5t5 -38.5q-1 -4 -2 -7.5t-3 -7.5q-18 -41 -38 -85q-19 -41 -36 -81.5t-26 -82.5q-1 -6 -7 -16.5t-15.5 -20t-23.5 -16.5t-30 -7 q-18 0 -28 7.5t-14 19.5t-3 27.5z" />
<glyph unicode="(" horiz-adv-x="442" d="M87 396.5q0 40.5 8 75.5t16 67t18 61q8 20 18 39.5t20 39.5q9 17 17 33.5t15 34.5q17 45 45 91.5t57 83.5q19 23 47.5 53.5t57.5 58t55 46.5t42 19q17 0 33 -11t11 -36q-3 -16 -16.5 -29.5t-27.5 -24.5q-4 -3 -7.5 -6t-8.5 -8q-67 -59 -119 -128t-86 -151 q-6 -14 -12.5 -28.5t-13.5 -28.5l1 1q-16 -38 -31 -76.5t-23 -73.5q-17 -75 -15.5 -145.5t9.5 -142.5l1 1q8 -59 30.5 -112t50.5 -106q1 -3 0.5 -3.5t0.5 0.5q5 -8 11.5 -20t2.5 -29q-2 -11 -9 -20.5t-16 -16.5t-20 -10.5t-21 -3.5q-20 0 -27.5 8t-12.5 17l-3 6l-2 4 q-5 13 -10.5 26t-10.5 26v-1q-27 64 -48.5 127t-21.5 139q1 20 0 38t-3 38q-2 37 -2 77.5z" />
<glyph unicode=")" horiz-adv-x="442" d="M-2 -61q1 6 8.5 23t24.5 32q23 19 42 43.5t36 50.5v-1q6 11 16 22.5t17 21.5q28 39 54.5 87t49 99t40 103t27.5 98q28 134 4.5 254t-83.5 231l-2 3q1 -3 -1 -1q-8 7 -14.5 20t-2.5 30q5 21 20 33.5t32 12.5q20 0 32.5 -11t21.5 -24l1 -1q77 -120 101.5 -261.5 t-8.5 -316.5q-15 -49 -35.5 -104t-46.5 -112t-57.5 -112.5t-69.5 -106.5q-23 -29 -45 -58.5t-44 -57.5l-2.5 -2.5t-2.5 -3.5q-12 -15 -28 -30t-40 -15q-8 0 -15 3v-1q-11 3 -19 10q-7 6 -11 15.5t0 26.5z" />
<glyph unicode="*" horiz-adv-x="607" d="M246.5 796q-3.5 17 2.5 46q14 61 80 61q29 0 56.5 -6t50.5 -14q1 10 0 20.5t0 23.5q-2 16 -3.5 31.5t2.5 29.5q5 26 22 38.5t41 18.5h14q16 0 32.5 -1t28.5 -8t17.5 -20.5t0.5 -38.5q-1 -3 -2 -7q-1 -3 -1.5 -6.5t-2.5 -6.5l1 1l-1 -4q0 -2 -0.5 -3.5t0.5 -3.5 q-3 -12 -7.5 -23t-9.5 -21l2 1q-3 -7 -5.5 -12.5t-2.5 -6.5q-1 -1 -2 -1q-1 -1 -5 -1l-1 -5q3 3 5.5 5t6.5 5q10 5 16.5 9.5t12.5 8.5q14 8 27 14.5t28 6.5q6 0 15.5 -5.5t17 -17.5t11 -30t-1.5 -42q-4 -19 -13.5 -30t-22 -17.5t-26 -9.5t-24.5 -4q-2 0 -5.5 -0.5t-5.5 -0.5 q-1 0 -2 -0.5t-3 -0.5q-3 -1 -8 -1q5 -11 14 -11q5 -2 10.5 -5.5t4.5 -1.5q20 -12 31.5 -21.5t17.5 -28.5q-2 -8 -3 -13.5t-3 -10.5t-5 -10.5t-9 -12.5l-1 -1q-1 0 -1 -1q-6 -9 -18 -23.5t-27 -29t-32 -24.5t-35 -10q-23 0 -33.5 12.5t-17.5 28.5v-1q-3 8 -7 22t-7 28 q-3 9 -4.5 17.5t-3.5 14.5q-3 -6 -9.5 -16.5t-13.5 -22t-14.5 -23t-12.5 -20.5l-3 -3q-2 -4 -7 -12.5t-13.5 -17.5t-21 -15.5t-28.5 -6.5q-17 0 -28.5 9t-18.5 22.5t-9.5 28t-0.5 25.5q5 19 17.5 36t32.5 34q13 11 23.5 21t17.5 18q-14 1 -35 4t-39 8q-6 0 -15 3t-17 12 t-11.5 26zM434 883q2 0 2 -3v3h-2zM609 751l2 -1q-1 0 -2 1z" />
<glyph unicode="+" horiz-adv-x="842" d="M131 399q8 22 30.5 43.5t51.5 22.5q32 1 65 1h66h44q4 0 7 -0.5t8 -0.5q16 -1 31 -0.5t17 8.5q5 12 5 16l1 4v6.5t2 21.5q0 11 2 24t5 27q7 31 15 55q5 18 9.5 35t6.5 34l2 6q0 3 1 5q1 7 6 15l-2 -5q1 3 6 10t14 14.5t21 12.5t28 4q13 -5 19.5 -13.5t8 -19t0.5 -21.5 t-3 -21q-8 -36 -11.5 -57t-6.5 -41q-4 -20 -8.5 -43t-10.5 -58q-2 -8 -4 -13.5t-1 -5.5q17 -2 33 -2h32h31t31 1h21q12 0 24 1t26 2q16 2 32.5 3t25.5 0q8 -1 18 -3.5t19 -7t14 -12.5t3 -20q0 -8 -1 -11q-5 -17 -16.5 -27.5t-25 -17t-27 -10t-23.5 -4.5q-41 -6 -82 -7.5 t-74 -1.5h-54.5t-27.5 -1l-3 -14q0 -5 -1 -9q-1 -10 -3 -27.5t-5 -39t-6.5 -44.5t-8.5 -45q-5 -24 -11 -44q-8 -25 -18.5 -38.5t-21 -19.5t-20 -7t-16.5 0h-9q-27 28 -28 50t10 51q1 4 5 19.5t9 38.5q4 19 8 40.5t6.5 40.5t3 33t-2.5 17h-196q-2 0 -3 -0.5t-3 -0.5 q-8 -1 -19.5 -1.5t-20.5 1.5q-6 1 -15.5 4.5t-18.5 10.5t-14.5 16t-1.5 20z" />
<glyph unicode="," horiz-adv-x="368" d="M2 -109q-2 9 1 18.5t8 19.5t11 18t11 14q35 38 50.5 70.5t28.5 68.5q3 8 5.5 16.5t6.5 17.5q3 15 14 27t26 20t32 12.5t33 4.5q26 0 44.5 -13.5t15.5 -44.5q-18 -48 -44.5 -95.5t-61.5 -85.5q-12 -13 -31 -31t-39 -34t-39 -27t-32 -11q-11 0 -23 7.5t-17 27.5z" />
<glyph unicode="-" horiz-adv-x="819" d="M162 359q5 25 17 39.5t29.5 21.5t38 8.5t41.5 1.5q95 -6 193 -9.5t192 -3.5q11 0 21.5 1t21.5 2q10 1 19.5 1.5t19.5 0.5q11 0 21 -5q27 -17 21 -49q-3 -16 -6.5 -25t-8 -14t-11.5 -6.5t-18 -2.5q-5 -1 -10 -1t-11 -2l1 1q-33 -8 -63.5 -9t-59.5 -1h-23q-26 0 -53.5 0.5 t-53.5 2.5q-28 2 -54.5 3t-53.5 1h-21.5t-21.5 -1q-11 0 -21 -0.5t-21 -0.5h-22q-5 0 -10.5 0.5t-10.5 0.5q-3 0 -5.5 -0.5t-5.5 -0.5h-18h-21.5t-19 4t-12 14t-0.5 28z" />
<glyph unicode="." horiz-adv-x="345" d="M91.5 61q-2.5 17 0.5 30q9 42 38 67t65 25q29 0 51 -15t33 -41l1 1q2 -8 5 -16.5t2 -19.5q-5 -22 -16.5 -40t-27 -31.5t-34 -21t-37.5 -7.5q-26 0 -42.5 10.5t-26 26t-12 32.5z" />
<glyph unicode="/" horiz-adv-x="449" d="M-9.5 -174q-0.5 10 1.5 16q2 10 7 21v-1q57 128 112 254.5t111 254.5l85 197q29 65 62 129.5t66 128.5q17 33 36 68.5t35 68.5q4 7 10.5 15.5t14.5 16t18.5 12.5t23.5 5q21 0 28.5 -18t4.5 -34q-1 -2 -0.5 -3t-0.5 -3q-6 -23 -16.5 -45t-21.5 -42q-10 -19 -19.5 -37 t-19.5 -37q-41 -79 -79 -155t-69 -148q-17 -38 -31.5 -74.5t-30.5 -74.5q-33 -77 -66.5 -155t-74.5 -160q-9 -18 -19 -42t-20 -49q-7 -16 -12.5 -31.5t-12.5 -30.5l1 1q-2 -4 -3 -7t-3 -7q-5 -13 -11 -26t-14.5 -24t-20.5 -18t-28 -7q-17 0 -26 6.5t-13 15.5t-4.5 19z" />
<glyph unicode="0" horiz-adv-x="657" d="M116.5 321.5q5.5 62.5 18.5 124.5q29 138 90 268.5t163 248.5q4 7 11.5 16t16 16.5t16 13.5t11.5 9q20 14 40 21t43 7q34 0 65.5 -12t56 -33t41.5 -49t23 -61q14 -84 19 -171t-15 -182q-2 -7 -3.5 -13.5t-3.5 -13.5q-1 -8 -2.5 -15.5t-3.5 -16.5q-14 -65 -38.5 -125.5 t-56.5 -123.5q-25 -50 -61.5 -93t-76.5 -74.5t-81 -49t-75 -17.5q-23 0 -48.5 6t-44.5 19q-45 30 -69 77t-32.5 104t-3 119.5zM220 343q-2 -33 2.5 -75t17.5 -78.5t35.5 -61.5t56.5 -25q46 0 89 32t79 85t63 120.5t42 138.5q3 12 4.5 25.5t4.5 28.5l1 5q2 9 4.5 17t4.5 17 q15 69 8.5 140.5t-17.5 139.5q-5 22 -16.5 40t-26 30.5t-30.5 19t-30 6.5q-6 0 -12.5 -2.5t-17.5 -11.5q-95 -111 -156 -234t-88 -252q-5 -25 -9.5 -52t-8.5 -53z" />
<glyph unicode="1" horiz-adv-x="519" d="M94 68q2 16 10.5 26t20 16t24.5 9t24 3h48q7 1 11 4.5t9 27.5q2 7 3 13t2 16q14 62 27 123.5t27 122.5q7 33 13 66t14 65q16 77 33.5 152t39.5 152q-26 -16 -61.5 -32t-73.5 -18h-18t-20.5 4.5t-15.5 14.5t-3 28l1.5 7.5t4.5 7.5q9 11 25.5 23t26.5 15q40 11 81 35 q15 8 27.5 17t26.5 20q24 18 47.5 33.5t42.5 16.5q20 1 34.5 -14t12.5 -36l-4.5 -22.5t-5.5 -21.5v1q-32 -105 -56.5 -207.5t-46.5 -205.5q-10 -46 -19.5 -91.5t-18.5 -92.5q-11 -53 -21.5 -104.5t-21.5 -103.5q-2 -8 -1.5 -10t2.5 -2q0 -4 13 -2q8 0 17.5 0.5t19.5 0.5 q18 0 36 -2t31 -8.5t20.5 -17.5t4.5 -29q-5 -25 -22 -37t-43 -14q-47 -2 -95.5 -3.5t-94.5 -1.5q-23 0 -43 -1t-50 2q-12 0 -21 6t-14.5 15t-8 18.5t-1.5 15.5z" />
<glyph unicode="2" horiz-adv-x="663" d="M28.5 34.5q-3.5 11.5 1.5 29.5q3 14 15 29t26 23q48 34 92.5 72t84.5 81q16 17 33.5 34t35.5 34q23 22 45 43.5t39 41.5h-1q7 8 15 16.5t15 16.5l-1 -1q27 30 54.5 62t51.5 65t42.5 66t26.5 65q11 45 3.5 81t-19.5 70q-3 15 -18.5 24.5t-36 15.5t-42.5 9t-39 4 q-20 1 -41 0t-41 -3q0 -3 -1 -4q-1 0 -1 -1q-1 -1 -1 -1.5t-1 -1.5q-8 -13 -14 -24t-13 -23q-9 -17 -17.5 -32t-17.5 -31q-1 -3 -5.5 -11t-13 -16t-20.5 -14t-28 -5q-15 1 -22 7t-9.5 14.5t-1.5 18t3 17.5q0 5 5 15q12 22 23.5 44.5t22.5 44.5q8 14 14 27.5t14 27.5 q22 38 57.5 49.5t86.5 11.5h23.5t24.5 -1q45 -3 87 -17.5t75 -40t52.5 -61.5t18.5 -82l-1 -1q0 -13 0.5 -22t2.5 -20q1 -18 1 -37t-5 -40q-6 -27 -19.5 -57t-31 -60.5t-38 -59.5t-41.5 -53q-66 -77 -138.5 -150.5t-149.5 -150.5q-9 -10 -15 -16t-12 -11t-12.5 -11.5 l-17.5 -17.5q14 -1 27.5 -1.5t26.5 -0.5q57 -3 111 -5.5t111 -3.5q17 -1 22.5 6.5t10.5 16.5q4 9 9 18t12 16t17.5 11t26.5 3q8 0 18.5 -3.5t17.5 -16.5v-1q5 -14 5.5 -28t-4.5 -31q-9 -33 -34.5 -59.5t-61.5 -32.5q-29 -2 -58 -3t-58 -1q-32 0 -63.5 0.5t-64.5 1.5 q-30 1 -59.5 1.5t-60.5 0.5q-54 0 -106 -3q-9 1 -20 4t-19 10t-11.5 18.5z" />
<glyph unicode="3" horiz-adv-x="654" d="M56 110l2 11q4 19 10 44.5t16.5 48.5t25.5 39t38 16q20 0 34 -17t9 -41q-2 -11 -3.5 -16t-2 -7t-1.5 -3.5t-2 -5.5q-3 -8 -4.5 -14t-3.5 -11q-3 -17 6 -28.5t25 -18.5t36 -10.5t40 -3.5q47 0 90.5 17t78.5 46t59 67.5t33 81.5q6 26 6 51.5t-5 48.5q-9 34 -29 56.5 t-45.5 36t-54 20.5t-54.5 11q-10 2 -21 2q-13 0 -26.5 1.5t-23.5 6.5t-14.5 15.5t-0.5 29.5q4 20 15 32.5t23.5 19t25 9.5t18.5 3q36 4 70.5 17t63 34t48.5 49.5t28 63.5q2 10 2.5 16.5t0.5 14.5q-1 17 -12 35t-28 32.5t-38.5 24t-43.5 9.5q-31 0 -73 -28q-8 -6 -19 -17 t-20 -21q-20 -23 -41.5 -41.5t-50.5 -18.5q-20 0 -27 14.5t-5 26.5q9 42 37 75.5t64.5 57.5t75.5 37t70 13q39 0 76 -14q37 -16 66 -36t47 -46t24.5 -58.5t-2.5 -72.5q-11 -49 -35.5 -97t-66.5 -86q-11 -9 -20 -15.5t-18 -12.5l-4 -2q32 -17 54.5 -38.5t42.5 -51.5 q24 -32 29 -88t-9 -123q-12 -59 -35 -104.5t-55 -80.5t-73 -60.5t-90 -43.5q-67 -25 -138 -25q-26 0 -62.5 7t-68 21.5t-51.5 38t-13 56.5z" />
<glyph unicode="4" horiz-adv-x="735" d="M127 348q11 17 24 37.5t23 37.5q22 35 45 70.5t46 68.5q58 81 116 166.5t113 169.5q12 17 23 34.5t23 34.5q12 18 21.5 32t20 23.5t23.5 14.5t31 5q31 0 50.5 -11t30 -28.5t12 -39.5t-2.5 -44q-14 -63 -29.5 -125t-31.5 -124q-8 -26 -14 -51.5t-14 -51.5v1 q-11 -40 -22 -79t-19 -79q-2 -2 -2 -4q0 -1 0.5 -1.5t9.5 -0.5h30.5t31.5 1q16 1 32 1.5t33 0.5q39 0 61 -10t15 -45q-4 -19 -20 -32.5t-36 -13.5q-10 -1 -17.5 -2t-15.5 -2q-36 -4 -74 -6.5t-77 -2.5h-2q-1 0 -2 1q-2 -7 -4.5 -16t-4.5 -20q-2 -12 -5.5 -25.5t-6.5 -27.5 q-5 -26 -9.5 -49t-4.5 -31q11 -8 23.5 -8.5t23.5 -0.5q13 0 23.5 -0.5t17 -5t8.5 -14.5t-2 -29q-4 -17 -13 -27t-22 -15.5t-28.5 -7.5t-31.5 -2q-17 0 -32.5 1t-29.5 3t-29 3t-28 1q-11 0 -22.5 -1t-23.5 -3q-9 0 -20 2.5t-20 8t-14 15.5t-2 25q6 26 28 40t43 21h-1 q9 4 25 4q6 0 11 0.5t6 1.5q5 28 11 56.5t11 57.5q3 15 4 21t4 22q-13 0 -25.5 0.5t-24.5 0.5q-26 0 -50 -0.5t-48 -0.5q-25 -1 -50.5 -1.5t-51.5 -0.5q-12 0 -24.5 3t-22.5 8q-1 0 -5.5 3.5t-9.5 9.5t-8 14t-1 18zM273 398q6 -1 13.5 -0.5t19.5 0.5q22 0 45.5 1.5t47.5 3.5 q21 2 41 3.5t43 2.5q26 85 49.5 166.5t41.5 165.5q5 20 10.5 41.5t11.5 41.5t11.5 41t10.5 41q1 10 3 13l1 2v1q-8 -12 -23 -33.5t-26 -34.5q-15 -20 -28.5 -42t-27.5 -45q-15 -23 -29.5 -46.5t-31.5 -46.5q-48 -63 -91 -129.5t-82 -132.5z" />
<glyph unicode="5" horiz-adv-x="680" d="M99 113q5 22 11.5 46t14.5 46q8 20 23 28t29 11q22 2 33 -6.5t15 -20t3.5 -23t-1.5 -15.5q-2 -10 -4.5 -19t-4.5 -16q0 -1 -1 -2t-1 -2q-1 -7 1 -9.5t4 -4.5q7 -2 12.5 -4.5t10.5 -4.5q34 -14 70 -25.5t71 -9.5q28 2 59 19.5t60 40.5q23 27 38.5 50t26 44t17 41t11.5 41 q3 15 5.5 30l5.5 33q3 30 -8.5 60t-33 54t-49.5 38t-58 13q-32 -2 -74 -16.5t-84 -31.5q-12 -5 -25 -11t-25 -11l1 1q-8 -2 -14 -4t-14 -2q-23 -1 -33 8.5t-11.5 24t2 31.5t8.5 31q22 68 40 126.5t32 121.5q2 14 5 28t6 29q2 9 2.5 16.5t2.5 14.5q5 22 11.5 38.5t18 27.5 t28.5 16.5t42 7.5q23 1 47.5 -1t46.5 -4q16 -1 30.5 -2t29.5 -2q17 0 30 -1.5t27 -3.5q17 -2 32.5 -4t29.5 -1q15 1 26.5 5.5t22.5 16.5q3 3 7 11q6 11 15 21t33 11h1h5t8 -1q16 -8 24.5 -14t5.5 -24q-8 -35 -24.5 -59.5t-40 -39.5t-53 -22.5t-62.5 -8.5q-20 -1 -40.5 0 t-40.5 6v-1q-25 6 -51.5 7t-52.5 1h-27.5t-27.5 1h-1q-19 -74 -34 -137t-31 -135q46 18 88.5 29t90.5 13q54 2 99.5 -20t76.5 -59.5t45 -88t4 -105.5q-31 -133 -71.5 -211t-89.5 -119.5t-104 -56t-115 -18.5q-23 -1 -50 4.5t-54.5 14.5t-53 20.5t-45.5 23.5q-18 12 -29 31 t-6 44z" />
<glyph unicode="6" horiz-adv-x="626" d="M100 333l9 40q26 104 66 202t107 202q18 25 45.5 53.5t60.5 57t70.5 55t75.5 47.5t75 34t69 15q17 1 30.5 -4.5t18.5 -16.5q1 -2 5 -9.5t7.5 -20t5 -30.5t-1.5 -40q-5 -29 -24.5 -40t-34.5 -12q-11 0 -21.5 3.5t-16.5 11.5q-8 14 -14 23.5t-9 17.5h-4 q-33 -11 -66.5 -30.5t-65 -44t-60 -52t-50.5 -53.5q-38 -47 -64 -94.5t-49 -107.5q44 29 86.5 51t94.5 25q54 3 96.5 -15t70.5 -51t40 -78t5 -96q-4 -22 -10 -48t-11 -46q-1 -4 -2.5 -9.5t-2.5 -9.5q-14 -54 -48 -100.5t-78.5 -82.5t-95.5 -61t-99 -35q-42 -3 -68.5 6.5 t-49.5 34.5q-58 63 -82 140t-10 168zM200.5 264.5q1.5 -17.5 5 -35.5t9.5 -35t12 -32q6 -12 14.5 -25.5t19 -25t23 -19t26.5 -6.5q38 3 78 26.5t71 50.5l-1 -1q40 37 61 79.5t28 88.5q6 35 3.5 68t-15.5 58t-38 39.5t-64 11.5q-31 -2 -68.5 -21.5t-72 -49.5t-60 -67 t-31.5 -73q-2 -14 -0.5 -31.5z" />
<glyph unicode="7" horiz-adv-x="679" d="M204 27q-5 13 0 35q1 2 2 6q1 6 6 12q11 22 19 46t17 47v-2q26 84 69 166t89 161q60 100 125.5 200.5t135.5 201.5q-7 0 -13 -0.5t-13 -1.5h1q-23 -3 -46 -3h-41q-50 0 -92 -1t-94 -1h-9.5t-13 1t-11.5 3t-4 6q-7 -15 -12 -37t-13 -43t-21 -36t-37 -15q-17 1 -25.5 9.5 t-11.5 23t-1 32.5t6 38q10 44 18 70t23 39.5t40.5 17t69.5 3.5h30q57 -2 112.5 -5t112.5 -3q29 0 57.5 3t57.5 13q9 3 22 4.5t21 1.5q23 -2 38.5 -18t9.5 -42q-2 -7 -5.5 -14t-10.5 -15q-85 -103 -161 -221.5t-142 -232.5v1q-62 -105 -113.5 -209t-76.5 -215q-2 -16 -9 -28 q-6 -11 -19 -19.5t-36 -8.5q-6 0 -17 2t-20 8.5t-14 19.5z" />
<glyph unicode="8" horiz-adv-x="647" d="M73 137q-4 42 4 79q11 51 36.5 99.5t62.5 93.5q29 34 62.5 67.5t81.5 56.5q-8 8 -14 17l-12 18q-8 12 -17.5 26t-20.5 25q-28 32 -34 69t3 79q15 69 53.5 123t87 91t100 56t92.5 19q39 0 74 -22t59 -60t33.5 -88.5t-2.5 -108.5q-9 -44 -26 -79t-41.5 -65t-56.5 -56.5 t-72 -51.5q34 -25 59.5 -51t41 -57.5t19 -70.5t-6.5 -89q-14 -68 -50 -120t-83 -87t-100.5 -53.5t-102.5 -18.5q-81 0 -129.5 23.5t-72.5 58.5t-28 77zM173 214q-6 -32 4 -57t30.5 -42.5t50 -27t64.5 -9.5q33 0 65 11t60 32.5t50 53.5t34 74q16 34 5 70.5t-34.5 67.5t-53 51 t-50.5 20q-3 0 -8 -1t-10 -3q-71 -36 -127.5 -96.5t-79.5 -143.5zM327 752q-2 -23 8.5 -46t27.5 -44.5t38 -40t42 -31.5q75 37 119.5 81t57.5 102q7 32 5 64.5t-12.5 59t-30 43t-46.5 16.5q-32 0 -74 -23q-2 -1 -5 -2t-5 -2q-3 -1 -2 0q-45 -28 -75 -62t-43 -79 q-3 -9 -3.5 -18t-1.5 -18z" />
<glyph unicode="9" horiz-adv-x="751" d="M140 148q7 33 25 52t45 6q18 -8 25.5 -27.5t12.5 -40.5q1 -5 2.5 -10t3.5 -10q6 -18 19 -25t27 -8q51 4 96 41t82.5 89t66 109.5t47.5 102.5q4 8 9.5 24.5t7.5 27.5q-32 -17 -68 -30t-73 -15q-29 -1 -58.5 5t-53.5 16q-51 23 -79 50t-39.5 56.5t-11 61.5t6.5 65 q5 26 12 53.5t18 53.5q14 28 30.5 50t37.5 48l10 12t10 13l-3 -3q18 30 43.5 53.5t55 40t60 26t58.5 10.5q42 2 80 -13.5t65 -46.5q21 -26 35 -68t19.5 -91.5t3 -101.5t-12.5 -97q-10 -41 -22.5 -87t-27.5 -93.5t-33.5 -93t-40.5 -84.5v1q-25 -44 -59.5 -94t-78 -93t-95 -72 t-109.5 -32q-32 -1 -62 9.5t-52 32t-32.5 53.5t-2.5 74zM329 623q4 -17 19 -33t36 -28t47.5 -18.5t54.5 -5.5q27 1 55.5 13.5t53 30.5t41.5 40t21 43q7 47 7.5 97t-10.5 91.5t-35.5 67t-65.5 24.5q-26 -1 -44.5 -8t-33 -17.5t-26 -24t-23.5 -28.5q-38 -38 -63.5 -89.5 t-33.5 -101.5q-5 -33 0 -53z" />
<glyph unicode=":" horiz-adv-x="344" d="M99 76.5q-5 17.5 0 37.5q4 19 14 36t23.5 29.5t30.5 19.5t35 7q15 0 33 -10.5t30.5 -26.5t15.5 -35t-12 -37q-8 -13 -19 -27t-23.5 -26t-27 -19.5t-29.5 -7.5q-16 0 -30.5 7.5t-25 21t-15.5 31zM209 616q4 21 16.5 39t29 31.5t36.5 21.5t41 8q35 0 50 -23t14 -58 q1 -8 -1 -19t-10 -19q-17 -35 -46.5 -57.5t-59.5 -22.5q-26 0 -45 19.5t-24 45.5l1 -1q-5 18 -2 35z" />
<glyph unicode=";" horiz-adv-x="368" d="M-62 -141q1 6 5.5 13.5t10.5 16t12.5 16.5t11.5 14q31 37 54 74t32 80q7 32 39.5 44.5t79.5 12.5q19 0 34 -4t16 -26q-1 -4 -2 -8.5t-5 -13.5q-23 -35 -46 -68t-51 -63q-15 -16 -37 -36t-46 -37t-47 -29t-41 -12q-8 0 -12 2q-11 4 -8 15q-2 4 0 9zM143.5 562 q-4.5 19 1.5 45q4 21 15 38.5t25.5 30.5t31.5 20t33 7q28 0 46.5 -17t26.5 -38v-1q3 -14 3 -30q2 -8 -1 -19.5t-9 -19.5q-16 -35 -44 -54.5t-61 -19.5q-14 0 -28 6.5t-24.5 19.5t-15 32z" />
<glyph unicode="&#x3c;" horiz-adv-x="970" d="M167.5 370.5q-1.5 8.5 1.5 22.5q4 17 13.5 28.5t24 19t32 12.5t36.5 10q9 2 22 6t27 8q71 26 148.5 51t153.5 48h-1q13 5 25.5 8.5t26.5 8.5q50 15 96 33.5t90 47.5q14 8 31.5 15.5t33.5 7.5q17 0 30 -13t8 -34q-3 -14 -14.5 -25t-19.5 -17l-2 -1q-54 -38 -112 -66 t-121 -47q-55 -16 -109 -34t-110 -36q-26 -8 -53 -17t-54 -17q3 -2 9 -4l52 -30t52 -29q71 -36 137 -84.5t126 -97.5l33 -26q9 -8 20.5 -16t24.5 -15l16 -10t21 -16q-1 0 -2 0.5t-3 0.5l14 -12q2 -9 2 -13t-1 -9q-3 -13 -16.5 -24.5t-28.5 -17.5q-32 0 -51.5 5t-37.5 16 q-32 20 -64.5 43.5t-60.5 45.5q-89 67 -193.5 128.5t-210.5 109.5q-4 3 -12 7q-6 3 -12.5 6t-11 8.5t-6 14zM862 62q2 -2 4 -3q-1 1 -2 1.5t-2 1.5z" />
<glyph unicode="=" horiz-adv-x="844" d="M138 254q4 18 19 31.5t34.5 23t39.5 14t34 4.5h286q32 0 50 -1.5t33 -3.5h-1q17 -2 36.5 -3.5t52.5 -1.5q12 0 26 -4.5t26 -12.5t18.5 -20.5t3.5 -28.5q-4 -19 -13.5 -30t-21 -17t-22 -7.5t-16.5 -1.5h-102h-105.5t-99.5 1.5t-103.5 5t-117.5 9.5q-13 2 -28 6l-7 1 q-5 1 -12.5 8t-9.5 28zM189 492q4 18 19 31.5t34 23t39.5 14t34.5 4.5h286q32 0 49.5 -1.5t33.5 -3.5h-1q17 -2 36 -4t52 -2q12 0 26 -4t26 -12.5t19 -20.5t3 -28q-4 -19 -13.5 -30t-20.5 -17t-21.5 -7.5t-16.5 -1.5h-102h-105.5t-99.5 1.5t-103.5 4.5t-117.5 9q-13 2 -29 6 l-7 1q-4 2 -11.5 9t-9.5 28z" />
<glyph unicode="&#x3e;" horiz-adv-x="1034" d="M198.5 54q1.5 9 2.5 14q5 23 25 38t37 25q3 2 7 3.5t6 3.5q143 69 283 138.5t283 144.5q-5 1 -8 2.5l-7 3.5q-14 7 -27.5 13.5t-24.5 8.5q-119 38 -228 90.5t-216 109.5h1q-4 2 -9 4t-12 5q-12 6 -25.5 13t-24 16t-16.5 20t-3 26q6 26 24.5 37t40.5 11q18 0 33 -7t29 -15 q4 -3 11 -5q87 -45 176.5 -88t183.5 -81q12 -5 26 -10l28 -10q16 -6 32 -11.5t32 -11.5q17 -8 34.5 -17t34.5 -17q14 -7 28 -13t29 -13q18 -8 25.5 -23.5t7.5 -33.5v-4q-3 -14 -14 -29.5t-30 -21.5l2 1q-150 -75 -298 -146.5t-297 -143.5h1q-27 -13 -53.5 -25.5t-52.5 -25.5 q-6 -4 -16.5 -8.5t-24.5 -4.5q-18 -1 -25.5 5t-9.5 14.5t-0.5 17.5zM853 414q2 -2 5 -2q-1 0 -5 2z" />
<glyph unicode="?" horiz-adv-x="734" d="M218 571q-3 26 0.5 53t9.5 54q7 35 25.5 69t46.5 64.5t65 57t81 46.5q36 15 71.5 23.5t64.5 8.5q115 0 170 -103v-1q22 -46 27.5 -94t-5.5 -96t-36.5 -93t-65.5 -79q-30 -24 -64 -49q-23 -17 -45.5 -35t-42 -38.5t-34 -45t-20.5 -54.5q-2 -8 -9 -23.5t-17.5 -31 t-23.5 -27t-26 -11.5q-14 0 -22 4t-11 10t-3 14t2 16l3 12q1 5 2 12.5t3 16.5t3 17t2 12q11 50 40.5 91t73.5 77q79 62 130 114.5t62 104.5q5 22 1 52.5t-18 58.5t-39.5 47.5t-64.5 19.5q-37 0 -76 -17.5t-72.5 -43.5t-57 -57.5t-29.5 -58.5q-2 -11 -2 -18t0.5 -12t1.5 -10 t0 -11q20 34 46 52t73 18q54 0 73.5 -32.5t6.5 -92.5q-5 -22 -15.5 -45t-29.5 -41.5t-47 -30.5t-67 -12q-27 0 -51.5 11t-44.5 30q-21 22 -31.5 46.5t-13.5 50.5zM293 10q-3 11 2 32q10 34 31.5 50.5t44.5 18.5q41 3 55.5 -12.5t9.5 -47.5q-7 -40 -29.5 -54t-56.5 -13 q-13 1 -25 2.5t-20.5 7t-11.5 16.5zM357 544q-2 -10 5.5 -20.5t29.5 -10.5q8 0 22 9.5t19 32.5q2 10 -4.5 25t-27.5 15q-10 0 -18 -8t-14 -19q-5 -7 -7.5 -13t-4.5 -11z" />
<glyph unicode="@" horiz-adv-x="1376" d="M148.5 147q-1.5 53 4.5 110.5t16.5 113t18.5 94.5q13 60 40.5 118t78.5 119q15 18 27 36q18 24 37.5 48t46.5 46q233 191 497 191q43 0 78.5 -8t68.5 -22t65.5 -33t69.5 -41q106 -66 143 -177t8 -249q-12 -56 -35.5 -109.5t-55.5 -100.5t-69 -86.5t-76 -68t-77.5 -44.5 t-72.5 -16q-51 0 -84.5 20t-65.5 55q-54 -40 -110.5 -65.5t-113.5 -25.5q-26 0 -52 6.5t-48 17.5q-36 20 -54.5 50.5t-25 67.5t-2.5 78.5t13 84.5q12 57 35 112.5t60 112.5q22 34 54 60.5t68.5 44.5t76 27.5t75.5 10.5q53 -3 84 -19t60 -44q29 20 64 33t66 13q17 -2 28 -7 q10 -5 17 -14.5t3 -27.5q-4 -17 -16 -28.5t-23 -18.5q-35 0 -49 -14.5t-20 -28.5l2 1q-12 -32 -22.5 -62t-19.5 -61q-11 -32 -21 -63.5t-21 -63.5v2l-2 -4l-1 -5q-1 -5 -1.5 -10.5t-0.5 -12.5q0 -17 -4 -36q-1 -7 -3 -12.5t-5 -12.5q9 -28 30 -42t45 -14q29 0 62 19 q38 24 71 58.5t59.5 74.5t45 81.5t26.5 80.5q7 36 8 78.5t-8 85t-29.5 80.5t-54.5 64h1q-32 22 -65.5 42.5t-69.5 36t-75 25t-80 9.5q-104 0 -201 -39t-176 -104.5t-134 -150.5t-75 -177q-8 -38 -15.5 -88.5t-9.5 -102.5t4 -101t26 -83q36 -45 75.5 -82t86 -64.5t101 -44.5 t118.5 -21q51 1 107 16.5t111.5 44.5t109.5 70t101 92q10 11 26 22.5t34 11.5q26 0 38 -18.5t7 -37.5q-3 -14 -12 -26t-18 -20q-55 -51 -113.5 -95t-123.5 -83h1q-69 -43 -138 -63.5t-138 -20.5q-59 0 -124 17q-71 19 -125.5 43.5t-99 59.5t-80 82.5t-66.5 113.5 q-16 35 -17.5 88zM508 252.5q1 -28.5 7 -51t20 -32.5v-1q8 -6 25.5 -10.5t43.5 -4.5t49 6.5t45 17.5q13 7 29.5 18t31.5 23.5t26.5 27t16.5 29.5q10 29 18.5 57.5t17.5 57.5q5 14 9.5 29.5t9.5 29.5v-1l4 22t4 23l9 43q-2 15 -12.5 30t-27 28t-37 21t-42.5 8q-50 0 -90 -26 t-70 -65t-49.5 -84t-27.5 -82q-5 -25 -8 -55t-2 -58.5z" />
<glyph unicode="A" horiz-adv-x="879" d="M-48 22q5 23 13.5 36t19 20t20.5 8.5t18 1.5q11 0 19.5 -1.5t16.5 -1.5q14 0 30.5 6.5t33.5 16.5l-1 -1q50 32 93.5 75t81.5 91.5t71.5 100t63.5 100.5v-1q34 50 71 97t73.5 92.5t70.5 92.5t64 97q8 14 18 28t22 25t25.5 18t28.5 7q18 0 27 -5t13 -12.5t5 -16.5t1 -18 q-6 -56 -9 -110.5t-7 -108.5t-9.5 -109t-15.5 -112q-7 -38 -10.5 -77t-5.5 -78v1q-1 -22 -4.5 -54t-7 -62.5t-5.5 -53t1 -23.5v1q19 -14 38 -15.5t32.5 -3t20 -8.5t1.5 -32q-2 -4 -2.5 -7.5t-2.5 -7.5l1 3q-1 -2 -6.5 -8.5t-14 -13.5t-19 -12.5t-21.5 -5.5q-6 0 -9 1 q-52 9 -81 16.5t-41 22.5t-10.5 42.5t10.5 77.5q2 7 6 27.5t7.5 42t5.5 38t-1 16.5l-10 1q-66 0 -131.5 2t-129.5 2q-6 0 -18 -10t-26 -25t-26.5 -32t-19.5 -30q-24 -32 -57.5 -65.5t-71.5 -60.5t-79.5 -44.5t-80.5 -17.5q-32 0 -58 10q-14 1 -17 7t-8 12zM479 370l2 2v1 q0 -1 -1 -1.5t-1 -1.5zM481 375q6 5 26.5 7.5t46.5 2.5q21 0 42.5 -1t40 -1.5t32.5 -1.5t19 -1q8 0 9 5q18 82 25 164.5t8 165.5q-70 -87 -129.5 -168t-119.5 -172z" />
<glyph unicode="B" horiz-adv-x="775" d="M28 2q5 26 21 38.5t32 18.5q62 24 108 79.5t79 126.5t55.5 149.5t37.5 149.5q4 17 9.5 47t11 65t11 71t9.5 65.5t6 48t0 18.5q-8 0 -25 -6t-32 -14l1 1q-11 -5 -24.5 -13.5t-28.5 -16.5t-29.5 -13.5t-26.5 -5.5q-6 0 -14 3t-14.5 9t-10 15t-0.5 22q4 20 24.5 38t49 34 t63 29.5t67 23t59 15t41.5 5.5q10 0 32 -5.5t47 -13t47.5 -15t33.5 -11.5q36 -13 69 -34.5t56 -51t33 -64.5q6 -19 6 -40q0 -17 -4 -35q-5 -21 -16 -49t-28.5 -57t-41 -57t-52.5 -49q26 -21 47.5 -43.5t34.5 -49.5q12 -26 16 -60q1 -9 1 -20q0 -26 -6 -56 q-8 -38 -27.5 -69.5t-46 -60t-58 -54t-63.5 -50.5q-31 -24 -74.5 -42.5t-91 -31t-96 -19t-89.5 -6.5q-20 0 -38 1t-35 1q-23 0 -46 -7.5t-44 -7.5q-20 0 -29.5 8t-13 18t-3.5 18.5v9.5zM235 61q10 1 20 1h24q44 0 90 9.5t91 27.5t87 44.5t80 61.5q10 9 18 16.5t14 16.5 t11 21t9 31q6 29 -0.5 59t-24.5 54.5t-46 40t-65 15.5h-12q-40 0 -61 -1t-29 -7q-3 -5 -13 -25.5t-18 -55.5q-8 -34 -21 -64.5t-28 -60.5q-26 -49 -53 -95t-73 -89zM468 563q19 0 42.5 3t46.5 8t44.5 12t36.5 16l1 1q15 9 27.5 22t22.5 29t17 34t11 35q3 13 3 28.5t-5 28.5 q-8 19 -33.5 38.5t-56 34.5t-60.5 23t-46 4q-13 -79 -26.5 -159t-24.5 -158z" />
<glyph unicode="C" horiz-adv-x="783" d="M96 292q2 71 18 148l5 25q2 5 3 8.5t2 8.5q2 9 4 21.5t4 23.5q15 73 50 139t95 125l-1 -1q45 44 92.5 81t98.5 63.5t106.5 41.5t115.5 15q22 0 48.5 -6t53.5 -17t52 -27.5t42.5 -36.5t26 -44.5t2.5 -52.5q-2 -8 -4.5 -17.5t-8.5 -20.5q-7 -13 -11.5 -29.5t-10 -32 t-14.5 -29t-25 -19.5h1q-38 -4 -51 17.5t-5 56.5q2 8 5 16t5 16q6 29 -4 51t-30.5 37t-49 22.5t-58.5 7.5q-37 0 -75 -9.5t-76 -31.5q-114 -66 -180.5 -145t-90.5 -189q-7 -35 -13.5 -73.5t-9.5 -75.5q-3 -32 -3 -61q0 -6 1 -10q0 -34 7 -57q4 -15 16.5 -38.5t32.5 -45 t46.5 -37t59.5 -15.5q5 0 12 0.5t15 2.5q63 14 119.5 34.5t109.5 59.5q28 18 49.5 33t47.5 15q4 0 6 -1q25 -3 29.5 -16.5t4.5 -25.5q1 -12 -9.5 -25t-21.5 -20l1 1q-41 -29 -89 -59t-98.5 -55.5t-99 -41.5t-89.5 -16q-32 0 -62 10q-75 23 -118 67.5t-62 103.5 q-17 53 -17 117v13z" />
<glyph unicode="D" horiz-adv-x="938" d="M-9 -15q3 12 14 24.5t26.5 24t33.5 20.5t35 14l-1 -1q35 16 61.5 42t46.5 58q35 58 61 117.5t45.5 119.5t34 121t27.5 123q14 65 26 128t23 128q-10 -2 -22 -7.5t-24 -13t-23 -16t-20 -16.5l-19 -19t-23 -21t-25 -17t-25 -7q-7 0 -15.5 3t-15 10t-9.5 17t0 24q4 17 18 35 q58 72 130.5 107t149.5 35q10 0 15 -0.5t11 -1t16.5 -1.5t31.5 -2q63 -1 126.5 -20t120.5 -51q50 -32 86.5 -80.5t57 -107t24.5 -123.5q1 -14 1 -29q0 -50 -11 -100q-18 -87 -59 -171.5t-100 -158.5q-44 -56 -98.5 -95.5t-115.5 -64.5t-125.5 -37t-128.5 -12q-30 0 -60 2.5 t-58 8.5q-7 2 -13 3t-11 1q-19 0 -42.5 -7t-48 -15t-47.5 -15t-42 -7q-8 0 -18 2t-18 15l-1 3q-6 14 -3 31zM268 84h4q7 -2 15.5 -3t24.5 -5v1q17 -4 34.5 -7t34.5 -3q46 0 93 8.5t91 25t83 41t71 55.5q25 28 49.5 64.5t45.5 76.5t36.5 79t22.5 72q8 38 8 75q-1 28 -5 55 q-10 64 -43 132q-17 35 -47 61.5t-67.5 45.5t-79.5 30.5t-82 16.5h-5q-10 0 -16 -3t-11 -25q-6 -29 -10.5 -60t-11.5 -63l-8 -38q-14 -65 -28.5 -130.5t-33 -130.5t-41.5 -129.5t-54 -127.5q-17 -33 -37.5 -63.5t-32.5 -50.5z" />
<glyph unicode="E" horiz-adv-x="878" d="M98 23q3 12 9.5 21t14.5 18q43 48 75 110t56 129.5t41 136t30 131.5q13 58 23.5 117t23.5 119q2 10 6 23.5t6 26.5q2 11 2.5 17.5t-2.5 6.5q-67 0 -137 -35v1q-11 -5 -24 -10t-29 -9q-11 0 -20 2t-20 15l-2 4q-5 10 -2 26q5 25 34 46t69.5 36.5t85.5 26t82 14.5 q16 4 32.5 4t32.5 -2t32 -4.5t30 -2.5q6 0 13.5 2t18.5 2q52 0 107.5 -9t99.5 -27q43 -19 68 -45q20 -21 20 -45q0 -7 -2 -15l-4 -8q-2 -4 -3 -7.5t-3 -8.5q1 1 -3 -6.5t-10 -18t-12 -21.5t-10 -17q-3 -4 -10.5 -9.5t-17 -11t-20.5 -9t-21 -3.5q-1 0 -1.5 0.5t-1.5 0.5 q-12 0 -18 6t-8 13.5t-1.5 14.5t0.5 8q3 15 12.5 33t11.5 27q-35 27 -77.5 36t-91.5 10q-13 0 -29.5 -2t-34.5 -4q-5 -1 -10.5 -1t-10 -2t-8 -7t-5.5 -15q-3 -12 -4 -26.5t-5 -33.5q-15 -69 -26 -136.5t-25 -137.5q-1 -4 -2 -4q1 -1 2 0q21 -11 48 -14t53 -3h41h30t26 9l4 3 q-3 -4 1 3t13 17.5t23 19.5t31 9q13 0 21 -5.5t12 -13t4.5 -16.5t-0.5 -15q-5 -22 -20 -42.5t-36.5 -37t-46.5 -26.5t-49 -10h-21q-41 0 -84 1.5t-83 9.5q-5 -11 -11 -28.5t-13 -37.5t-13.5 -40.5t-10.5 -37.5q-15 -51 -37 -93.5t-51 -90.5q14 -4 28.5 -5.5t29.5 -1.5h11 t12 1h-1q60 9 120 12t118 3h-1q24 1 52.5 4.5t52.5 9t41 12.5t19 15q1 1 -5.5 7t-14 15.5t-13.5 21t-3 25.5q4 14 13 25q8 10 20 18t31 8q22 0 39 -11.5t28 -29t15 -39t0 -41.5q-7 -33 -36 -59.5t-71.5 -44.5t-93 -28t-101.5 -10h-6q-20 0 -40 -2.5t-43 -2.5q-68 -8 -133 -9 t-133 -1q-20 0 -38.5 2t-32 8t-20 17t-2.5 29z" />
<glyph unicode="F" horiz-adv-x="895" d="M22 -160q2 4 4 12q2 3 7 9.5t15 13t25 11.5t37 5q10 0 17 -1t12 -1q18 0 38 14t40.5 37.5t41 53t38.5 60.5q34 57 50 120t30 128l6 29q25 116 46.5 231t38.5 231l1 6q2 2 2 5q2 9 4.5 21.5t3.5 23t0 18t-5 7.5t-11.5 -2t-14.5 -2h2q-42 -7 -72.5 -24t-52 -41t-35.5 -55 t-21 -67q-4 -17 -3 -31.5t-2 -24.5q-5 -26 -22 -39t-34 -13q-20 0 -30 16t-13.5 38t-2 44.5t4.5 35.5q12 58 42 107.5t71.5 85.5t92.5 56t105 20q30 -2 48 -3.5t29.5 -3t19 -3t16.5 -2.5t22.5 -1.5t37.5 -0.5h18h25q23 0 44 0.5t41.5 3.5t40 9.5t40.5 19.5q15 9 29 19t37 10 q5 0 13 -2t14.5 -6t10.5 -10.5t2 -15.5q-2 -11 -7 -20q-23 -52 -63 -76t-87 -32q-44 -8 -89 -8h-6q-10 0 -19 1q-37 0 -68 -2q-6 0 -11.5 0.5t-10.5 0.5h-26q-6 -26 -9.5 -47t-7 -44.5t-8 -54.5t-11.5 -77q-1 -8 -5 -27t-7.5 -39.5t-5.5 -36t1 -15.5h12q8 0 19 -0.5t24 -0.5 q20 0 43 1t45 4t41.5 7.5t31.5 11.5q14 8 32.5 20.5t39.5 12.5q5 0 12.5 -3t14.5 -10t10.5 -17.5t0.5 -25.5q-3 -13 -11 -23q-18 -24 -42 -39t-49.5 -23.5t-51 -12.5t-46.5 -5q-31 -2 -54 -2q-19 0 -34 2q-31 2 -46.5 -1.5t-21.5 -19t-14 -54.5q-10 -48 -15 -82t-12 -65 q-11 -51 -31.5 -98t-45.5 -92q-35 -61 -67.5 -103.5t-65 -69.5t-64 -39t-63.5 -12q-12 0 -26.5 2t-22.5 4q-17 4 -26.5 13t-14 18t-5.5 17t-1 10z" />
<glyph unicode="G" horiz-adv-x="861" d="M122 330q3 58 11.5 116.5t20.5 113.5q2 14 5 20.5t6 15.5q28 49 57.5 95t66.5 89q41 47 92 85t107 65t115 42t116 15q20 0 45.5 -2.5t51.5 -9.5t50 -18t41.5 -28t25 -40t1.5 -54q-2 -11 -5.5 -22t-5.5 -19q-3 -16 -5 -29.5t-5 -30.5q-2 -10 -8.5 -22t-15.5 -22.5 t-20.5 -17.5t-23.5 -7q-19 0 -29 17.5t-6 38.5q2 31 6 60t-4.5 50.5t-37 34.5t-91.5 13q-75 0 -145 -29q-45 -19 -91.5 -53.5t-87 -79.5t-71 -98t-42.5 -108q-4 -24 -6 -50q1 -12 1 -24q0 -24 -3 -47q-4 -34 -10 -69q-5 -29 -4 -56t6.5 -52.5t14.5 -50t19 -48.5 q9 -21 26 -36t40 -24t50 -13t56 -4q38 0 68.5 11t56.5 28.5t50 38.5t48 41q3 15 5 34t6 37q5 26 19.5 49t34.5 44l1 1q1 1 1 2t2 3h-18q-32 0 -64 -1.5t-64 -3.5h1q-9 -1 -17.5 -1t-17.5 -1q-11 0 -22.5 4t-21 10.5t-15 16.5t-2.5 22q3 13 12.5 23.5t22.5 18t27.5 11.5 t27.5 4q67 0 134 1.5t139 1.5q21 0 32.5 -18.5t6.5 -37.5q-2 -8 -8 -21q-13 -18 -30 -36t-33 -35t-28.5 -34t-15.5 -33q-3 -13 -2.5 -35t-4.5 -48q-5 -25 -12.5 -47t-15.5 -45q1 3 -5 -18t-19 -55.5t-33.5 -78t-47 -86t-59 -79.5t-71.5 -58h1q-32 -17 -77 -26.5t-87 -9.5 q-27 0 -42 16t-10 39q3 15 13 25.5t22.5 17.5t26 10.5t24.5 3.5q23 0 42 3.5t40 11.5h-1q23 9 48 35t48 61t41.5 74t28.5 73q-31 -20 -56.5 -34t-49.5 -22.5t-48 -12t-52 -3.5q-65 0 -112 12t-79.5 35t-53 56.5t-33.5 75.5q-12 50 -16 106q-1 31 -1 62q0 26 1 54z" />
<glyph unicode="H" horiz-adv-x="957" d="M-58 23l1 7v4l1 4q3 16 13 26t22.5 16t25.5 8t23 2h9q48 0 83.5 17t69.5 60q38 48 64.5 94.5t45.5 95.5t33.5 103.5t28.5 119.5q8 41 13.5 91t16.5 100q8 33 21 65t28 64v2q-26 -1 -54 -4.5t-51 -11.5l1 1q-14 -5 -30 -14t-30 -9q-18 0 -28.5 12t-5.5 32q3 15 15 28.5 t27.5 23.5t33 16.5t31.5 8.5q49 6 96.5 13.5t97.5 13.5q2 1 5 1q26 0 37 -16t6 -36q-2 -8 -7.5 -17t-13.5 -20q-25 -35 -45 -66.5t-28 -69.5q-8 -34 -12.5 -66.5t-9.5 -64.5l-7 -49q-1 -3 15 -5.5t41.5 -5t56.5 -5t60 -4.5t53.5 -3t36.5 -1q11 0 27.5 1t25.5 1q8 4 13.5 26 t10.5 45l3 13q17 74 41 139t49 135q9 27 28.5 59.5t45 61t55 48t58.5 19.5q16 0 31 -12.5t11 -34.5q-3 -16 -13.5 -25t-21.5 -16q-35 -23 -57.5 -57.5t-40.5 -78.5q-38 -89 -63.5 -176t-44.5 -175l-28 -136t-28 -138l-4 -15q-8 -42 -19 -83t-33 -84q-2 -2 -2 -3.5t-1 -3.5 q2 1 6 1q3 0 6.5 -0.5t8.5 -1.5l2 -1q4 -2 20.5 -3t34 -7t29 -18.5t6.5 -36.5q-4 -20 -21 -37t-49 -17l-21 3q-36 5 -74 11t-74 13q-19 7 -27 20t-3 36q6 26 28 45q36 31 52 74.5t27 93.5l14 66q3 16 6 31.5t6 32.5l13 62q2 7 -4 11t-16.5 6t-23 2.5t-22.5 0.5h-15 q-51 0 -102.5 2.5t-100.5 10.5q-6 2 -12 2q-9 0 -13.5 -3.5t-7.5 -12t-6.5 -21t-9.5 -30.5v1q-25 -75 -61.5 -155t-87.5 -147t-116.5 -110t-147.5 -43q-26 0 -49 8.5t-28 39.5z" />
<glyph unicode="I" horiz-adv-x="448" d="M66 24q4 21 14 34t20.5 20.5t20 10t13.5 3.5q17 0 27 1t16 4t9 7t6 10l-2 -2q26 67 43.5 135.5t31.5 137.5l31 142q3 17 6 32.5t6 29.5l9 42q8 41 19 81t31 95v-1q5 17 8 30l1 5q1 3 -1 6.5t-17 3.5h-12h-33t-32.5 5t-23 16.5t-3.5 33.5q3 15 13.5 25t23 16t24.5 8t18 2 q52 0 104 -2t105 -4q8 0 19.5 -2.5t21.5 -8t15.5 -14.5t2.5 -24q-1 -3 -3 -10t-7 -12q-15 -20 -41.5 -25t-53.5 -7q-6 -1 -5 0t-5 -1l-1.5 -3l-1.5 -3q-8 -29 -14.5 -52t-13.5 -43q-9 -29 -18 -58.5t-18 -71.5q-5 -23 -8.5 -45t-8.5 -45q-4 -23 -7.5 -45.5t-8.5 -45.5 q-8 -40 -18 -80t-21 -80q-9 -37 -19.5 -76.5t-18.5 -76.5l-1 -6q0 -2 0.5 -4t5.5 -4q9 0 27 -1.5t35 -8.5t28.5 -20t7.5 -35q-1 -2 -4 -8.5t-8.5 -13.5t-14.5 -12.5t-21 -5.5q-53 0 -107.5 -6t-110.5 -16l3 1q-5 -2 -9 -2h-7q-12 0 -20 2q-2 0 -10.5 2t-17.5 6.5t-15.5 12.5 t-3.5 21z" />
<glyph unicode="J" horiz-adv-x="611" d="M-28.5 -144q0.5 3 2.5 8q3 13 11.5 23.5t19.5 19t23.5 13.5t22.5 6q11 0 16 -1.5t11 -3.5q20 -8 40 -12t38 -4q19 0 38 4t37 15q54 30 93 86.5t66.5 125.5t46 144t32.5 142q11 51 18.5 99t14.5 99v-1q5 34 11.5 69.5t14.5 71.5q4 17 7 33.5t6 34.5q-23 -4 -44 -8.5 t-42 -9.5l-60 -12l1 1q-27 -7 -41 -21.5t-19 -37.5q-1 -4 -5.5 -13t-12 -18t-19 -16t-26.5 -7q-6 0 -14 3.5t-14.5 11.5t-9 21t1.5 33t15 40.5t26.5 38t34.5 31.5t40 21l-1 -1q40 17 80.5 26.5t82.5 19.5q38 8 75 17t79 26q5 1 9 2t8 1q23 0 33.5 -17t6.5 -37 q-3 -15 -15 -32q-33 -27 -50 -61.5t-28 -88.5q-8 -38 -13.5 -74.5t-10.5 -74.5t-11 -78t-14 -79q-5 -20 -10 -42t-10 -43q-4 -15 -8 -31t-8 -31q-14 -51 -29 -106t-35 -106q-22 -51 -58.5 -104t-83.5 -97t-104 -72t-121 -28q-33 0 -61.5 10t-56.5 27q-6 3 -15.5 12t-10.5 26 v-2q-2 5 -1.5 8z" />
<glyph unicode="K" horiz-adv-x="835" d="M-40.5 -28q-0.5 5 1.5 11q3 14 11 22q8 10 19 18q9 7 20 13.5t24 9.5l-2 -1q56 16 103.5 56.5t85.5 95.5t65.5 119.5t43.5 128.5q19 73 35 145t32 146l22 104q0 1 1 2q-5 0 -11 -2q-15 -4 -32.5 -9t-34.5 -10q-35 -11 -69.5 -19t-59.5 -8q-4 0 -11 2.5t-13 8t-10 14.5 t-1 22q3 15 14 26.5t24.5 20.5t27 14.5t22.5 7.5q17 4 36 8.5t36 9.5q16 4 36.5 9t42.5 10.5t42.5 10.5t37.5 9q12 4 23 4q26 0 36.5 -16t5.5 -39l-3 -9t-4 -11q-18 -38 -29.5 -75t-19.5 -76q-4 -19 -7.5 -37t-6.5 -38q-3 -19 -6.5 -39t-8.5 -40l-1 -5q4 3 8.5 5.5t9.5 6.5 l20 14t16 13q36 28 71.5 56t70.5 57t71 57t72 57q16 13 37 26t43.5 24t45 18t42.5 7q19 0 28 -11.5t11 -30.5q-5 -21 -17 -36t-26 -20l1 1q-45 -18 -83 -46.5t-76 -60.5q-8 -8 -19.5 -16.5t-19.5 -15.5q-34 -28 -68 -55t-69 -54q-23 -19 -46.5 -37.5t-47.5 -36.5h-1 q-5 -4 -5.5 -3.5t-0.5 1.5l-2 -4q17 -20 30 -44.5t21 -50.5q9 -29 18 -55.5t20 -54.5q18 -57 36 -112.5t35 -127.5q8 -36 26.5 -73t47 -66.5t66.5 -48.5t86 -19q7 0 15.5 3.5t17.5 7.5h-1q11 5 22 9t24 4q18 0 27 -8.5t13 -20t4 -22t-1 -14.5q-5 -23 -22 -38.5t-38.5 -26 t-43.5 -15t-36 -4.5q-8 0 -16 0.5t-17 3.5q-48 10 -92 31t-79.5 52t-61.5 72t-39 93q-11 47 -28 96t-32 94q-14 41 -28.5 83.5t-26.5 85.5v-1q-3 10 -8 25.5t-11.5 29.5t-14.5 24.5t-17 11.5q3 -3 3 -2q-4 -8 -6 -15t-6 -15v1q-20 -53 -43 -111t-55 -114t-74.5 -105.5 t-100.5 -84.5q-14 -8 -32.5 -18.5t-38 -19.5t-38 -15t-32.5 -6q-21 0 -32.5 9.5t-19.5 25.5l1 -1q-1 2 -1.5 3.5t-1.5 2.5q-2 6 -2.5 11z" />
<glyph unicode="L" horiz-adv-x="827" d="M55.5 23q-0.5 11 1.5 22q7 36 41 54q18 10 33.5 26t28 34t21.5 37.5t14 38.5q11 46 23 91l24 90q17 69 34 137.5t34 137.5q13 51 34 100t55 96q18 24 42 48t52.5 43.5t58.5 31.5t60 12q7 0 15.5 -3.5t15 -10.5t10 -16t1.5 -21q-5 -24 -29.5 -39t-51.5 -23l2 1 q-24 -10 -47 -28.5t-42 -43.5t-33 -54.5t-21 -60.5q-1 -5 -1 -9t-1 -8l-3 -14q-12 -54 -26.5 -105.5t-29.5 -102.5q-8 -27 -15.5 -58.5t-13.5 -57.5q-16 -69 -38.5 -141t-68.5 -135q17 -5 33.5 -5.5t33.5 -0.5q22 -1 43 -1.5t44 -2.5q29 -2 59 -3.5t59 -1.5q25 0 51.5 1.5 t52 7t48.5 16.5t42 30q5 5 8 10t8 10q13 17 27 31t40 14q23 0 37 -19.5t9 -42.5q-2 -7 -4.5 -13t-7.5 -13l2 3q-22 -39 -54.5 -66.5t-71 -45t-81 -25.5t-82.5 -8q-72 1 -145.5 4t-146.5 7q-31 2 -64 3t-64 2q-20 0 -32 5.5t-17.5 14.5t-6 20z" />
<glyph unicode="M" horiz-adv-x="1136" d="M50 51q5 21 24 36.5t39 23.5q39 15 67.5 44t50.5 66.5t39.5 81t34.5 89.5q4 11 7.5 22.5t8.5 22.5v-1q8 20 15 41t15 42q25 72 49.5 144t44.5 142q6 29 6 41.5t-17 12.5q-14 0 -43.5 -1t-62.5 -4.5t-63.5 -10.5t-45.5 -20q-1 -1 -4 -4.5t-6 -8.5q-11 -14 -26.5 -29.5 t-38.5 -15.5q-15 0 -24 6t-13 15t-4.5 19.5t1.5 20.5q24 43 52.5 68t60 38t65.5 17t71 7q19 2 39.5 3.5t42.5 5.5h3q9 1 17.5 3t18.5 5q13 3 24.5 6t22.5 3q10 0 17 -1.5t13.5 -6.5t12.5 -16t13 -29q17 -48 25.5 -98t11.5 -101q2 -66 10 -135.5t18 -141.5q5 -34 9 -71t9 -74 q0 2 1 2.5t2 2.5q1 1 1.5 2.5t1.5 2.5t1 2q34 59 70 120.5t70 120.5q63 111 129 222q21 36 45.5 75.5t52 77.5t58.5 71t65 56q13 9 30 19.5t34.5 19.5t33 15.5t26.5 6.5q26 0 42 -12.5t10 -39.5q-2 -11 -3.5 -15t-9.5 -13q-26 -24 -45 -52t-33.5 -58t-25.5 -61.5t-21 -61.5 q-26 -77 -47.5 -153t-38.5 -154l-5 -20q-1 -5 -1 -10t-2 -10q-18 -85 -41 -168t-58 -164q-2 -5 -4 -9t-4 -11q-1 -10 0 -11l1 -10q2 9 2 11.5t-1 3.5q10 -3 25.5 -8t28.5 -13t21 -19.5t5 -27.5q-1 -5 -5.5 -14.5t-12 -18.5t-18.5 -15.5t-25 -6.5q-22 0 -50.5 4t-53 13.5 t-39.5 26t-10 41.5q4 18 13 40.5t18 42.5h-1q30 68 51 136t36 137q2 9 3 16.5t3 15.5t3.5 18.5t3.5 18.5l6 28q10 49 24 96q7 21 13 42.5t13 43.5q8 30 18 62t21 64q-23 -35 -44 -70.5t-41 -69.5q-69 -121 -139 -240t-142 -239q-14 -24 -26 -47t-20 -45q-3 -9 -9.5 -20.5 t-15.5 -21t-21.5 -16t-28.5 -6.5q-32 0 -40 24.5t-4 58.5q1 16 1 32q1 37 -3 73q-4 54 -13 102q-2 11 -3 24t-3 24q-7 51 -11.5 102t-9.5 102q-2 14 -2.5 28t-2.5 29l-8 -26q-14 -40 -27 -79.5t-27 -78.5q-13 -35 -26.5 -70.5t-27.5 -70.5q-10 -24 -18.5 -47.5t-17.5 -47.5 q-11 -30 -29 -58t-37 -54q-2 -2 -3.5 -5t-3.5 -5q-14 -20 -37 -41t-48.5 -38t-50.5 -27.5t-43 -10.5q-10 0 -21 2.5t-20 9t-13 17.5t-1 28zM662 279q1 -4 1 -7.5t1 -5.5q2 6 1 8.5t-3 4.5z" />
<glyph unicode="N" horiz-adv-x="1050" d="M5 27q3 13 11 22t17.5 15t20 9.5t17.5 5.5q25 5 41 12.5t27.5 17.5t19.5 23t17 30v-1q1 4 5 12q23 42 38 92t28 101q30 115 65 229t79 226q7 18 8 25q1 3 1 7.5t-7 4.5q-9 0 -26 -4q-35 -7 -66.5 -10t-57.5 -10h1q-14 -5 -30.5 -12.5t-24.5 -7.5q-5 0 -12.5 2t-14 7.5 t-10.5 13.5t-1 20q3 13 10.5 23.5t17.5 19.5t21 15.5t19 11.5q17 10 44.5 16.5t58.5 10.5t62.5 6t57.5 2h5q10 0 24.5 -0.5t28 -4.5t24 -13t13.5 -26l-2 3q19 -51 28.5 -106.5t17.5 -111.5q17 -114 48 -222t66 -215q15 -54 31 -106t34 -84q7 54 17.5 109.5t21.5 110.5 q26 119 53.5 235.5t57.5 234.5q22 88 70 173q15 25 38 53t52.5 50.5t62.5 37.5t68 15q20 0 35.5 -12t9.5 -41q-1 -3 -5 -11.5t-12 -18t-19 -17t-26 -8.5q-58 -17 -95.5 -73.5t-63 -134t-43.5 -168t-36 -176.5q-23 -111 -42.5 -218.5t-36.5 -217.5q-2 -13 -3.5 -25t-0.5 -23 q1 -21 13 -38t31 -29t41.5 -18.5t44.5 -6.5q20 0 42.5 6.5t47.5 16.5h-1l19 9l-1 -1q14 7 28 13t28 6q16 0 25.5 -6t13 -14.5t3.5 -18.5t-2 -17q-5 -22 -14 -31t-25 -18h1q-5 -2 -9 -3t-7 -2l2 1q-50 -21 -90.5 -34t-88.5 -13q-15 0 -29.5 1.5t-25.5 4.5q-24 6 -52.5 22.5 t-56 40t-51 51.5t-36.5 55q-12 24 -24 45t-24 41t-22.5 40t-17.5 43q-24 70 -48 146t-46 152.5t-39.5 152.5t-28.5 148l-24 -73q-33 -98 -59 -194.5t-55 -181.5q-19 -45 -41 -92.5t-52 -86t-71 -63t-96 -24.5q-11 0 -23 1t-21.5 5.5t-14.5 13.5t-2 26z" />
<glyph unicode="O" horiz-adv-x="904" d="M113 238q-1 16 -1 32q0 53 12 111q3 11 4.5 21.5t3.5 19.5l8 35q10 49 26.5 99.5t39 98.5t50.5 92t61 80q36 37 81 67t92.5 52t94.5 34t88 12q31 0 59 -5.5t55 -18.5q64 -31 105 -78.5t61.5 -106.5t22.5 -126v-12q0 -61 -14 -125q-13 -61 -37 -128t-59 -131.5t-80.5 -123 t-100.5 -102.5t-119.5 -70t-138.5 -26q-23 0 -46 6.5t-41 11.5q-72 20 -120.5 60.5t-75 96.5t-31.5 124zM230 275q0 -25 8 -45q45 -86 103 -130t123 -44q21 0 41 4.5t43 13.5q60 24 108.5 69t86 102.5t63 122.5t39.5 128q15 69 15 133v9q-1 68 -26 119q-12 23 -30 44.5 t-41 38.5t-50 27.5t-57 10.5h-7q-86 -12 -153.5 -50t-117 -93.5t-81 -123t-46.5 -137.5q-2 -11 -3.5 -20.5t-2.5 -20.5l-1 -1q-2 -24 -6 -51.5t-6 -54t-2 -51.5z" />
<glyph unicode="P" horiz-adv-x="766" d="M88 809q3 14 15 29t27.5 28t33 23t32.5 16q66 26 136 45t135 19h14q51 0 107.5 -3t104.5 -21h-1q37 -13 68 -41t51 -66q19 -37 27 -81q3 -19 3 -38q0 -25 -5 -51q-2 -11 -5 -23t-8 -21q-30 -67 -79 -116t-109.5 -82.5t-127.5 -52t-132 -24.5q-12 -2 -19 -9t-12 -27 l-4 -20q-11 -50 -24 -103t-39 -104h23q5 0 18.5 -2t26 -8.5t21 -19t3.5 -33.5q-3 -12 -10 -22q-6 -9 -16.5 -17t-27.5 -10q-29 -5 -59.5 -8t-62.5 -3q-53 0 -74 13.5t-23 35.5q5 20 9.5 28t14.5 19q31 26 46 51t27 63q19 60 34.5 119t30.5 117t31.5 115t37.5 112 q22 55 33 108t25 108h-2h2q-48 -11 -89 -19.5t-82 -28.5h1q-8 -5 -15 -10t-15 -10l1 1q-15 -11 -28.5 -20t-27.5 -9q-23 0 -34 17l-1 1q-10 18 -7 35zM388 469q0 -4 5 -4q44 0 97.5 13t102.5 40t86 67.5t49 95.5q4 20 4 38q0 29 -10 49q-18 34 -52.5 54t-79.5 28.5t-88 8.5 q-4 0 -4 -1l-109 -380q-1 -5 -1 -9z" />
<glyph unicode="Q" horiz-adv-x="878" d="M138 344q4 54 13 111v-1q2 9 3.5 18.5t3.5 19.5q25 117 71.5 208.5t110 155t142.5 97t168 33.5q95 0 158.5 -39t98.5 -104t41 -149q2 -22 2 -44q0 -64 -14 -132q-14 -63 -42.5 -133.5t-71 -136.5t-97 -122t-120.5 -89l-8 -4q0 1 1 0t1 -2.5t2 -3.5l6 -14q9 -25 18 -48.5 t20.5 -42t27 -29.5t37.5 -11q12 0 25 5q10 2 22 5t26 3q32 0 44 -19.5t8 -39.5q-5 -20 -18.5 -33.5t-32.5 -21.5t-40.5 -11.5t-42.5 -3.5q-35 0 -68.5 14t-60.5 39t-46.5 59t-26.5 73q-1 8 -4.5 16.5t-13.5 8.5t-23 -3q-8 -2 -16.5 -3t-19.5 -1q-32 0 -62 6.5t-56.5 18.5 t-48.5 28t-38 35q-35 41 -53.5 87t-24.5 96q-3 29 -3 59q0 23 2 45zM248 366q-3 -23 -3 -44q0 -28 5 -54q7 -30 23 -58.5t38 -52t49.5 -38.5t57.5 -16q-17 24 -30.5 55.5t-10.5 56.5q6 26 19 37t33 16l3 1q12 1 25 0t23 -12q11 -11 16 -25t11 -28h-1q7 -23 16.5 -43 t30.5 -21q14 4 31 13t34 21t33 26.5t29 31.5q50 64 87 134t52 141q5 26 9 51.5t7 54.5q2 16 2 33q0 30 -6 60q-9 48 -33.5 86.5t-65 63t-98.5 24.5q-57 0 -113 -23.5t-103.5 -65.5t-83 -100t-50.5 -128l-19 -90q-11 -54 -17 -107z" />
<glyph unicode="R" horiz-adv-x="835" d="M68 13q4 16 9.5 26.5t12 17t13.5 10.5t15 8q42 17 74 41.5t56.5 54.5t41.5 64t29 70q43 137 78 279.5t72 287.5q-11 0 -26.5 -3t-33 -7t-36 -8.5t-33.5 -8.5q-20 -5 -32.5 -11.5t-21 -16t-15 -22.5t-13.5 -29q-5 -18 -13.5 -30t-18 -19.5t-18.5 -10.5t-15 -2 q-22 0 -34 16t-7 39q3 13 10 37.5t24.5 52.5t48 54t80.5 42q66 17 132 28.5t130 11.5q184 0 260 -82q54 -58 54 -148q0 -37 -9 -78q-18 -85 -73.5 -150.5t-134.5 -99.5q-21 -9 -28 -11.5t-10 -3.5q13 -38 19 -75.5t9 -75t6 -76.5t11 -81q7 -41 23.5 -84t42 -78.5t58.5 -58.5 t74 -23q18 0 34 3t33 7.5t37 10t44 11.5q20 0 36 -12.5t11 -38.5q-5 -21 -17.5 -30.5t-29.5 -23.5q-13 -9 -33.5 -15t-43 -10t-45 -5.5t-38.5 -1.5q-84 0 -141.5 39.5t-94 101t-54.5 136.5t-23 146v-1q-1 9 -1.5 28.5t-2.5 43.5t-6 50t-12 47.5t-21 35t-32 13.5h-21l-5 -17 q-14 -45 -28 -87t-33 -81.5t-45.5 -77t-64.5 -73.5q18 -9 27 -21t4 -32q-5 -24 -23.5 -38.5t-41.5 -14.5h-10h-23q-20 0 -44.5 2t-46.5 8t-37.5 18t-18.5 32zM486 517q2 -4 6 -4q15 0 27 3t27 3q10 0 21 -4t22 -4q12 0 25 5q61 20 103.5 61.5t55.5 103.5q5 23 5 45 q0 18 -4 34q-8 36 -30.5 62t-61 40.5t-91.5 14.5h-8t-5 1q-20 -84 -39.5 -177.5t-52.5 -183.5z" />
<glyph unicode="S" horiz-adv-x="728" d="M64 192q3 13 6.5 26t10 25t18 23t30.5 22l2 1q7 3 12 3.5t10 0.5q18 0 27 -7.5t11.5 -19.5t1 -27.5t-4.5 -30.5q-2 -5 -2.5 -10.5t-2.5 -10.5q-2 -9 -3 -16t-2 -12v2q1 -26 19 -44.5t46 -30.5t62.5 -17.5t67.5 -5.5q110 0 178 51.5t101 145.5q3 14 -14 31.5t-44 35 t-59 34t-59 29.5q-50 23 -90.5 56t-75.5 67q-38 35 -54 99q-7 31 -7 65q0 37 9 79q5 23 15 45.5t28 44.5q21 26 56 50.5t76 43t83.5 29.5t80.5 11h20q8 0 17.5 0.5t20.5 0.5q24 0 50.5 -2.5t49.5 -10.5t40 -23.5t23 -40.5q3 -25 -4 -62t-11 -71l-1 -5q0 -5 -1 -14t-3 -18 q-3 -12 -7.5 -24.5t-11.5 -22.5t-17.5 -16.5t-23.5 -6.5q-23 0 -34 14.5t-13.5 37t0.5 50t9 53.5l1 5q1 8 1.5 16.5t-8 15.5t-28 11.5t-58.5 4.5q-45 0 -92.5 -12.5t-94.5 -34.5q-26 -12 -38.5 -34.5t-18.5 -50.5q-5 -23 -6.5 -46.5t2.5 -41.5q6 -23 23.5 -45t40 -42 t48.5 -37t51 -30q49 -25 97 -44.5t84 -44.5q34 -25 52 -62q10 -21 11 -50q0 -21 -6 -47q-18 -83 -61.5 -139t-101.5 -89.5t-125.5 -48t-133.5 -14.5q-45 0 -87 8t-84 27q-70 32 -94 83q-15 32 -15 69q0 22 5 46z" />
<glyph unicode="T" horiz-adv-x="831" d="M171.5 774q-0.5 11 1.5 25q2 5 4 11.5t6 14.5v1q17 33 42.5 63.5t57 53t68.5 36t76 13.5q11 0 23 -1t23 -3q85 -17 175 -20.5t180 -3.5q30 0 56.5 11.5t44.5 35.5q7 9 16 21.5t20 24t24.5 19.5t28.5 8q24 0 35 -20t6 -39q-2 -11 -7 -22v1q-14 -21 -32 -45t-39.5 -45.5 t-46 -37.5t-51.5 -20q-31 -6 -66 -6h-15q-10 0 -19 1q-32 0 -62 -4q-11 -44 -25 -86l-28 -84q-45 -131 -80 -269t-74 -284q-2 -8 -3 -13t-2 -7q-1 -3 -2 -4l50 1q12 0 24 -1t20.5 -5.5t12 -15t-0.5 -29.5q-6 -26 -27.5 -40t-49 -20t-55.5 -6.5t-46 -0.5h-17h-13q-15 0 -33 2 t-32 8.5t-22 19.5t-3 36q0 2 4 11t12.5 19.5t22.5 18.5t35 8q7 0 8 4t3 9q32 113 62 229t65 234q9 32 21 65.5t24 66t22.5 63.5t16.5 59q4 13 -4 13q-24 4 -51.5 9t-55 9.5t-53 7.5t-46.5 3q-30 0 -50.5 -8t-36.5 -24t-27.5 -40.5t-23.5 -56.5q-4 -12 -11 -17.5t-14.5 -6.5 t-14.5 0.5t-10 2.5l-18 7l-21 17q-2 11 -2.5 22z" />
<glyph unicode="U" horiz-adv-x="925" d="M72 769.5q-6 24.5 2 59.5q5 23 20 46.5t42 41.5q72 54 149 74.5t151 20.5q24 0 48.5 -1.5t43.5 -8t29.5 -19.5t5.5 -37q-5 -17 -18 -34q-46 -67 -86 -138t-84 -140v1q-49 -81 -87.5 -162.5t-57.5 -168.5q-12 -55 -12 -94q0 -42 13 -66q25 -48 95 -47q37 0 77 10.5 t81 27.5t81.5 37.5t79.5 41.5h-1q27 16 31 33q1 3 0.5 5.5t0.5 5.5l3 11q8 41 23.5 76t20.5 61q26 94 54.5 189.5t48.5 188.5l4 17q8 39 11 59.5t-5 28.5q-6 4 -15.5 10t-18.5 14.5t-14 20t-2 26.5q5 23 19.5 32t22.5 13q33 0 58 -9.5t41 -27.5t21.5 -43.5t-1.5 -56.5 q-5 -20 -9.5 -39.5t-9.5 -39.5q-3 -14 -5.5 -28t-5.5 -28l-11 -55q-2 -7 -3.5 -14t-3.5 -14q-24 -91 -48.5 -179t-53.5 -174q-3 -8 -5 -16t-4 -13q-5 -27 -12 -57.5t-13 -56.5q-2 -9 1.5 -20.5t11 -21.5t19 -16.5t26.5 -6.5q8 0 18 3t22 8h-1q14 7 29.5 12.5t31.5 5.5 q20 0 32.5 -18t8.5 -38q-4 -19 -21.5 -34.5t-41.5 -27t-50 -17.5t-48 -6q-37 0 -68.5 15t-52.5 50q-3 8 -6.5 18t-7 18.5t-7 14.5t-7.5 6t-14 -5t-21 -10q-81 -44 -164.5 -73t-163.5 -29q-51 0 -85 15.5t-54 42t-28 60.5t-9 71v12q0 31 4 61q5 36 12 69q15 68 42.5 136 t62 134t72 129t71.5 122q9 15 19 27.5t15 20.5t3 12.5t-17 4.5q-50 0 -105 -14t-98 -46q-8 -7 -15 -14t-11 -14q-6 -10 -10 -21.5t-9 -21.5t-14 -16.5t-26 -6.5q-31 0 -37 24.5z" />
<glyph unicode="V" horiz-adv-x="924" d="M197 825q9 41 40.5 70.5t73.5 48t88.5 27t85.5 8.5q22 0 47.5 -2t45.5 -11t30.5 -27t3.5 -50q-36 -173 -77 -345t-85 -345l6 6q26 26 50.5 49.5t44.5 45.5v-1q77 84 151.5 166.5t149.5 167.5q19 21 39 45t38 49t31 48.5t18 43.5q5 28 -1.5 43t-23.5 29h1 q-14 11 -26.5 23.5t-7.5 35.5q1 6 5.5 15.5t12.5 19.5t19.5 17t27.5 7q19 0 41.5 -14t39.5 -39q18 -24 26 -58q4 -17 4 -36q0 -18 -4 -37q-5 -20 -14.5 -42.5t-22 -45.5t-27 -45.5t-29.5 -41.5l-2 -1q-43 -57 -91 -109t-93 -102l-46 -50q-64 -70 -132 -141t-132 -140 q-6 -6 -23.5 -26.5t-40.5 -42.5t-47 -39.5t-42 -17.5q-17 0 -27 7.5t-15 19.5t-6 25.5t2 25.5q2 7 2.5 11t2.5 8v-1q38 114 63 229q20 94 43.5 179t43.5 174q9 45 16.5 88.5t15.5 89.5q4 16 0.5 21t-24.5 5q-19 0 -40 -0.5t-41 -3.5t-39 -10t-34 -20q-8 -7 -16 -16.5 t-17 -18.5t-20 -15t-25 -6q-6 0 -13.5 4.5t-13.5 12t-9.5 17t-1.5 18.5z" />
<glyph unicode="W" horiz-adv-x="1335" d="M138 735q21 62 57 103.5t87 67t116 36.5t142 11q18 0 29 -5t16.5 -14t7 -20.5t0.5 -23.5q-7 -109 -18 -223t-36 -230q-14 -65 -18 -125q40 73 83.5 147t88.5 148.5t89.5 150.5t85.5 154v-1q11 23 21.5 34t21 16t21.5 7t22 7q27 0 35.5 -10t10.5 -21q2 -52 2 -108v-37 q0 -36 -1 -69q-4 -143 -13 -286t-10 -286q3 17 4 32t-1 16q32 49 64.5 102t63.5 103l-1 -1q44 71 88.5 141t90.5 140q20 29 32 59t19 62q1 7 3.5 19t3.5 23t1 19.5t-3 8.5t-14 -1.5t-23 -1.5q-9 0 -20 3t-19.5 10t-13 19t-1.5 29q4 18 17.5 31t30.5 22t34.5 13t30.5 4 q37 0 58.5 -19.5t30.5 -49.5q8 -27 8 -59v-7q-1 -36 -8 -70q-5 -25 -15 -52.5t-24 -51.5q-78 -134 -167 -265t-167 -258q-36 -55 -74 -97t-69 -84l2 5q-5 -11 -20.5 -19t-29.5 -8q-17 0 -26 7t-13 18t-4 24t3 24q14 125 22 253t10 255l1 65q2 29 2 58.5t-1 58.5 q-73 -127 -145.5 -252t-147.5 -250q-14 -21 -30 -46t-33 -52.5t-33 -56t-28 -56.5q-8 -19 -26 -31t-36 -12q-21 0 -31.5 9t-14 22.5t-2.5 28.5t4 28q5 24 11.5 48t12.5 52q14 70 24.5 138t20.5 138q9 64 20.5 130t15.5 135q1 4 1.5 14.5t1 21.5t0.5 20v11q2 14 3 28t-1 27 h-13q-26 0 -51.5 -2.5t-51.5 -4.5h1q-26 -4 -45 -14.5t-33.5 -25.5t-25.5 -33t-20 -36q-8 -22 -25 -32t-34 -8t-28.5 16.5t-6.5 41.5z" />
<glyph unicode="X" horiz-adv-x="878" d="M34 86q1 5 5 12.5t12.5 14.5t23 12t37.5 5q11 0 27 -7t27 -7q25 0 47.5 18.5t40.5 38.5q49 51 93.5 109.5t89.5 118.5l37 49q21 28 27 57q2 10 2.5 17.5t0.5 15.5v-1q-3 71 -13 141t-28 138q-2 9 -2.5 12.5t-0.5 4.5l-1 1q-14 -3 -29 -8t-30.5 -10.5t-32 -9.5t-33.5 -4 q-5 0 -13 1t-15 6t-11 14t-1 26q1 7 5 12l13 13q5 5 10.5 9.5t8.5 4.5q20 8 41.5 18t43.5 18.5t42 14.5t37 6q29 0 46 -18.5t23 -45.5q8 -38 15 -77t15 -77v1q3 -19 6.5 -38t7.5 -38q9 13 26.5 40t41 59.5t51.5 67t59 63t64 46.5t66 18q16 0 31.5 -5.5t29 -17t22.5 -28 t12 -37.5q-4 -18 -11 -28.5t-15.5 -16t-17.5 -7t-18 -1.5q-26 8 -43 18.5t-19 14.5q-5 -3 -15 -10.5t-22 -17.5t-24 -21.5t-19 -23.5q-45 -66 -89 -131t-86 -131q-1 -3 -2 -7q-2 -4 -3.5 -11t-4.5 -18q7 -85 18 -176t35 -176q12 -43 52 -43q8 0 16.5 2t16.5 4h-1 q11 2 21 4.5t17 2.5q15 0 28.5 -6t23 -15.5t14.5 -20.5t3 -21q-4 -17 -17 -29.5t-30 -20.5t-36.5 -11.5t-35.5 -3.5q-32 0 -61.5 6.5t-54.5 20.5t-43 37.5t-26 57.5q-29 113 -41 231q-3 17 -2 28q-1 -1 -4 -5t-6.5 -8.5t-6.5 -9t-3 -5.5q-23 -25 -47 -58t-51 -67.5 t-57 -67.5t-63 -58.5t-70 -41.5t-78 -16q-14 0 -33 4.5t-35.5 14.5t-26 25.5t-4.5 38.5zM888 841l2 1z" />
<glyph unicode="Y" horiz-adv-x="932" d="M23 -233q6 30 22.5 46t40.5 16q11 0 17.5 -2.5t11.5 -6.5q26 -26 38 -34.5t25 -8.5t26.5 6t27 15.5t25 22t20.5 24.5q34 49 70 104t67.5 110.5t55 109.5t33.5 102q3 16 7 48t6.5 73.5t2.5 89t-4 94.5t-14 90.5t-27.5 77t-43.5 53.5t-62 20q-25 0 -46 -9.5t-41 -35.5 q1 1 -1 -1.5t-4 -7.5v1q-7 -14 -19 -34.5t-26.5 -40t-30 -33.5t-29.5 -14q-8 0 -16.5 2t-15.5 7t-10 15t1 27q21 46 46 89t57 77t73 54.5t94 20.5q36 0 65.5 -14t53 -37.5t42 -53t32.5 -59.5q15 -35 22 -75t9 -83q3 -36 3 -73q0 -7 -1 -15q0 -44 -1 -88q36 65 76 127.5 t83 122.5l10 14l10 14l-1 -1q41 55 71 107q11 21 32 43.5t46 40.5t49.5 30t43.5 12q24 0 40.5 -6.5t26.5 -17t13.5 -22.5t1.5 -22q-3 -15 -10 -24t-15 -14t-16.5 -6.5t-14.5 -1.5h-9t-10 2h-5q-20 0 -35.5 -11t-30.5 -29q-1 -2 -8 -10.5t-10 -13.5l1 1q-1 -1 -2 -2.5 t-3 -3.5q-72 -103 -137.5 -208.5t-131.5 -213.5q-28 -47 -56 -93.5t-57 -93.5v1q-18 -31 -32 -58.5t-30 -56.5l-29 -59q-29 -55 -63.5 -106.5t-70.5 -101.5q-18 -29 -42.5 -50.5t-51 -36t-53 -22t-47.5 -7.5q-12 0 -37 6t-49 18.5t-39.5 33t-9.5 50.5z" />
<glyph unicode="Z" horiz-adv-x="897" d="M51 38q2 9 8.5 23t20.5 29q48 52 95 106t90 108q57 71 115.5 138t118.5 133.5t120.5 133t121.5 135.5q3 3 4 5h-1q-21 0 -40.5 -3t-39 -6.5t-39.5 -6.5t-41 -3q-24 0 -47.5 2t-45.5 5t-40 5t-30 2q-8 0 -11.5 -16.5t-10.5 -36t-21 -35.5t-42 -16q-20 0 -33.5 14.5 t-7.5 42.5q5 22 11 41.5t13 39.5q5 14 11.5 28.5t19 26.5t33 19.5t52.5 7.5q14 0 61 2t115 1q57 0 85 1t41.5 2.5t18.5 3t14.5 3t31.5 2.5t69 1q32 0 48 -16.5t10 -43.5q-3 -15 -16 -31t-25 -30h1q-70 -79 -144 -159t-148 -162t-146.5 -165t-139.5 -168l-24 -29 q-7 -9 -14.5 -18t-14.5 -19q34 5 65.5 8.5t63.5 3.5q65 0 125.5 -12.5t120.5 -26.5v1q30 -7 53.5 -14.5t53.5 -7.5q19 0 26 1t8.5 4.5t0.5 10t1 18.5l12 54q4 20 21.5 38t43.5 18q21 0 31.5 -8t14.5 -20.5t3.5 -27t-3.5 -27.5q-2 -12 -5.5 -24t-7.5 -22q-7 -21 -13.5 -43 t-19.5 -39.5t-37 -29t-66 -11.5q-53 0 -101 8.5t-94.5 19t-92 19t-92.5 8.5q-52 0 -106.5 -10.5t-111.5 -30.5q-10 0 -25.5 -6.5t-29.5 -6.5q-26 0 -39 16t-7 42z" />
<glyph unicode="[" horiz-adv-x="437" d="M52 -136q9 45 22 83.5t21 78.5q8 38 11.5 75t11.5 77q13 64 32 128.5t39 128t40 126t37 123.5q14 54 32.5 109.5t29.5 109.5l5 20q1 5 1.5 10.5t1.5 11.5q13 63 22.5 97t18 51.5t18.5 24.5t24 16q2 1 16 4.5t34.5 7.5t43 7.5t42.5 3.5q1 0 7 -3t11.5 -8t9.5 -12t2 -15 q-5 -26 -19.5 -38.5t-32.5 -18t-37 -7t-32 -5.5q-1 0 -2 1t-3 -1t-5 -8.5t-7 -22.5q-32 -123 -64.5 -253t-67.5 -259q-11 -41 -24 -81t-26.5 -80t-25.5 -79.5t-20 -78.5l-10 -49q-3 -13 -5 -25l-4 -24q-5 -25 -14 -60t-17 -68q-5 -26 -8 -46.5t-2 -28.5v3q8 -15 25 -20 t33 -9.5t26 -13.5t5 -34q-7 -29 -27.5 -41t-35.5 -12q-11 0 -35 6t-48 18.5t-40 32.5t-10 47z" />
<glyph unicode="\" horiz-adv-x="825" d="M286 979l117 53l310 -1116l-116 -52z" />
<glyph unicode="]" horiz-adv-x="400" d="M45 -183q0 1 3 11t10.5 21t20 20t30.5 9q7 0 14.5 -2.5t15.5 -4.5h2q15 0 16 11q6 28 9 60q11 87 30.5 174t39.5 181q18 88 44.5 175.5t45.5 175.5q9 42 23 84t28.5 83t27.5 80t21 77q2 11 5.5 27t5.5 31t2 25.5t-4 10.5q-7 0 -24.5 -2.5t-36.5 -2.5q-23 0 -38.5 7.5 t-22.5 27.5q5 23 19.5 38.5t31.5 20.5h-1q13 4 28.5 7.5t31.5 6.5t31.5 5t28.5 2q29 0 41 -17t13.5 -44t-4 -60t-12.5 -64l-2 -12q-5 -23 -11 -45t-15 -46q-1 -8 -2 -15.5t-3 -15.5q-12 -58 -29.5 -118.5t-36 -121.5t-36 -121.5t-29.5 -117.5q-10 -44 -13 -94 q-6 -27 -14.5 -54.5t-13.5 -50.5q-15 -69 -23.5 -138t-23.5 -140q-5 -26 -10.5 -48t-14 -39t-20.5 -28.5t-30 -17.5h-1q-18 -4 -49.5 -8.5t-57.5 -4.5q-25 0 -35.5 20t-5.5 42z" />
<glyph unicode="^" horiz-adv-x="558" d="M156 544q1 6 10.5 18.5t21 26t22.5 26t15 17.5q3 4 5.5 7t4.5 6q35 48 62 101t51 108q7 16 15 33.5t19 31t25.5 22.5t34.5 9t27 -11t9 -20l-1 1q20 -54 35.5 -110.5t31.5 -112.5q2 -13 7 -26t10 -27q8 -23 15.5 -44t7.5 -38q-6 -29 -25 -46t-42 -17q-16 0 -24 7.5 t-13 18.5q-6 20 -11.5 42l-10.5 42q-11 43 -22 85.5t-30 89.5q2 3 -5.5 -16.5t-21.5 -50t-34 -67t-43.5 -68t-50.5 -52.5t-54 -21t-36.5 6.5t-4.5 28.5z" />
<glyph unicode="_" horiz-adv-x="680" d="M18 -26q5 25 17.5 39.5t29.5 21.5t37.5 8.5t41.5 1.5q95 -6 193 -9.5t192 -3.5q20 0 41 2.5t41 2.5q5 0 11 -1.5t10 -3.5q27 -16 21 -49q-5 -21 -8.5 -29.5t-10 -12t-17.5 -4.5t-29 -5l1 1q-33 -8 -63.5 -9t-59.5 -1h-23q-54 0 -107.5 3.5t-106.5 3.5q-21 0 -43 -1 t-42 -1h-23q-5 0 -10.5 0.5t-10.5 0.5q-3 0 -5.5 -0.5t-4.5 -0.5h-19h-14q-18 0 -31 7.5t-8 38.5z" />
<glyph unicode="`" horiz-adv-x="339" d="M292 770q9 42 9.5 82.5t-1.5 81.5q0 21 -1 42.5t-1 42.5q-1 5 1 15q5 22 22 38.5t40 22.5q7 2 10.5 2h8.5q20 0 33.5 -13t13.5 -38q0 -27 -1 -55.5t-3 -56.5q-2 -38 -2 -72v-66q-3 -16 -9 -31.5t-15.5 -27.5t-23 -19.5t-31.5 -7.5q-17 0 -27 7t-15.5 16.5t-7 20 t-0.5 16.5z" />
<glyph unicode="a" horiz-adv-x="644" d="M40 134q2 40 11 78q17 85 46.5 167t73.5 162q21 37 54 76.5t73.5 71.5t86.5 53t92 21q23 0 46 -5.5t44 -15.5q2 2 3 2.5t2 1.5q7 8 20.5 18t26.5 10q18 0 27 -7.5t11.5 -20t0.5 -27.5t-5 -30q-17 -76 -36 -152t-40 -152q-11 -38 -21 -80t-20 -80q-1 -5 -2 -8.5t-2 -7.5 l-4 -17q-2 -12 -4.5 -26t-2.5 -27t2.5 -21.5t10.5 -8.5q10 0 18 2.5t15 5.5h-1q5 2 10 8t12 12q14 16 31 29.5t41 13.5q1 0 8.5 -1.5t15 -6t13 -13t1.5 -21.5q-1 -3 0 -5.5t-7 -13.5l1 3q-15 -23 -34 -45t-42 -40t-49.5 -29t-54.5 -11q-20 0 -37.5 6.5t-29.5 20.5h1 q-20 21 -24.5 44t-4.5 59q-25 -27 -54 -52t-61 -44.5t-67 -31t-71 -11.5q-51 0 -78 20q-28 22 -38 54q-8 26 -8 57v15zM144 139.5q1 -18.5 8.5 -30t26.5 -11.5q26 0 52 10t48 28q38 31 71.5 64t61 68.5t47 75t29.5 85.5q8 38 16 77t21 84q3 13 5 26t5 26q1 5 -6 8.5t-18 5.5 t-23 3t-21 1q-18 0 -38.5 -7t-40 -18.5t-38 -25.5t-33.5 -28q-30 -28 -55.5 -70.5t-46 -91t-35.5 -99t-24 -94.5q-5 -23 -9 -45.5t-3 -41z" />
<glyph unicode="b" horiz-adv-x="655" d="M77 14.5q-2 12.5 1 29t7 34.5l3 13q2 11 4 20t5 18q27 87 48.5 173t39.5 173q28 130 63 255.5t61 249.5q7 33 12 66t12 66q-6 0 -21 -3t-22 -3q-18 0 -34 13t-10 42q4 20 18.5 31.5t34 17.5t41.5 9.5t43 6.5q25 0 39 -7t19.5 -19.5t5 -29t-4.5 -35.5l-9 -42 q-21 -100 -46 -206.5t-57 -208.5q-2 -5 -4 -12t-3 -12l-4 -16l3 3v-1q52 40 116 68t128 28q50 0 81 -36q20 -23 30.5 -49.5t13.5 -55.5t-0.5 -60t-10.5 -62q-13 -61 -28.5 -120t-35.5 -116v1q-15 -47 -43 -91t-70 -78t-98 -55t-127 -21q-21 0 -41.5 4t-40.5 15q-6 3 -13.5 6 t-13.5 3q-3 0 -5.5 -5.5t-8 -11.5t-14.5 -11.5t-24 -5.5q-20 0 -29 7.5t-11 20zM206 163q-4 -20 9.5 -31.5t33 -17.5t40 -8t31.5 -2q62 0 104.5 26.5t72 74.5t49.5 116t38 151q2 8 3 17.5t3 19.5q3 13 3 32.5t-5 37.5t-16 31t-31 13q-38 0 -69 -13t-60.5 -32t-59 -40.5 t-63.5 -37.5q2 0 1 -6q-21 -83 -41.5 -165.5t-42.5 -165.5z" />
<glyph unicode="c" horiz-adv-x="551" d="M83 389q23 110 82 209q23 37 56 72t71.5 62.5t81 44t83.5 16.5q33 0 62 -8.5t57 -22.5l-1 1q13 -5 20.5 -14.5t10 -22t1.5 -27t-4 -28.5q-1 -5 -2.5 -10.5t-2.5 -10.5l-1 -4q-5 -20 -16 -41t-42 -29q-25 0 -33 11.5t-8 31.5q5 32 -6 49t-54 17q-50 0 -93 -31.5t-76 -77 t-54.5 -95.5t-29.5 -87q-9 -39 -9 -77q0 -10 1 -20q3 -47 17.5 -83t39 -58t56.5 -22q25 0 55.5 12t62.5 38q12 9 22.5 22t22.5 25t26 20t34 8q22 0 25.5 -13t0.5 -25q-6 -31 -27 -53l3 2q-24 -32 -51.5 -59t-58.5 -47.5t-66 -32t-73 -11.5q-37 0 -71 15t-55 47v-1 q-68 94 -68 211q0 46 11 97z" />
<glyph unicode="d" horiz-adv-x="703" d="M90 138q-2 18 -2 36q0 23 2 47q4 42 11 79q9 44 21.5 88.5t30 88t40.5 85t55 78.5q22 25 51.5 50t62.5 45.5t68.5 33t70.5 12.5q16 0 32 -2.5t30 -5.5t26 -4.5t21 0.5l-1 -1q19 69 37.5 139t38.5 141l3 14q9 41 10 41q-4 0 -13 -3t-20.5 -7t-23.5 -7t-22 -3 q-23 0 -33.5 12.5t-5.5 36.5q4 22 19 33.5t32 19.5q23 9 54 20.5t55 11.5q13 0 26 -8t23 -24.5t13.5 -40.5t-3.5 -57l-17 -68q-30 -111 -61 -220.5t-60 -221.5q-16 -60 -34 -119.5t-31 -119.5q-5 -26 -5 -63q0 -28 -7 -63q-3 -14 -5.5 -25.5t-9.5 -25.5q-5 -23 1 -40t20 -17 t30.5 11t34 24.5t36 24.5t36.5 11q11 0 18 -5t11 -11.5t5.5 -13t0.5 -10.5q0 -3 -2.5 -9t-6.5 -13.5t-10 -14.5t-13 -10l-17 -14q-17 -14 -35 -29t-37 -27t-38 -19t-39 -7q-32 0 -50 9.5t-27.5 24.5t-13 33t-5.5 35v8q1 3 -2 1q-22 -29 -54.5 -53t-68.5 -41t-70.5 -27 t-59.5 -10q-18 0 -34 4.5t-29 16.5q-30 29 -43 66.5t-17 78.5zM196 173q2 -39 10 -63.5t25 -24.5q45 0 92 29.5t89 71.5q17 17 30.5 31.5t23.5 28.5t16.5 29.5t11.5 35.5q1 7 2.5 16t6 27t13 48t22.5 78l7 34q6 30 12.5 60.5t14.5 61.5q1 9 -8.5 16t-23 11.5t-29 7 t-25.5 2.5q-35 0 -67.5 -15t-60.5 -40t-51.5 -57.5t-42 -68t-31.5 -71t-19 -66.5q-10 -47 -15 -95q-4 -37 -4 -69q1 -9 1 -18z" />
<glyph unicode="e" horiz-adv-x="543" d="M60 177q-1 16 -1 32q0 39 8 80q13 65 38 137t72 135q23 31 52.5 63.5t62.5 59t68.5 43.5t70.5 17t66.5 -15t57.5 -45q17 -20 15.5 -44.5t-6.5 -49.5q-5 -24 -13 -47.5t-20 -45.5q-16 -31 -44.5 -66t-65 -69t-77.5 -62.5t-81 -46.5q-16 -7 -33 -15t-32 -16.5t-25.5 -16 t-11.5 -13.5q-2 -12 10 -30q17 -29 38 -45t56 -16q30 0 67.5 15.5t84.5 39.5q4 2 9 5t10 5h-1q17 10 34.5 19t31.5 9q21 0 30 -16.5t5 -33.5q-2 -10 -7 -23t-15 -23q-4 -5 -8.5 -7.5t-11.5 -6.5q-14 -8 -26.5 -15t-26.5 -14q-46 -26 -90.5 -46t-94.5 -20q-61 0 -103 25 t-65 67t-28 96zM175.5 324.5q-0.5 -1.5 0.5 -3.5q6 3 11 6.5t10 5.5q23 11 46.5 23.5t46.5 27.5q26 17 54 40t52 49t42 54.5t24 57.5q2 10 1 17t-4 14l1 -2q-10 21 -42 21q-13 0 -26.5 -2t-23.5 -10q-48 -37 -78 -69.5t-49.5 -65.5t-32.5 -67t-26 -74q-2 -5 -3 -9.5t-3 -9.5 q0 -2 -0.5 -3.5z" />
<glyph unicode="f" horiz-adv-x="463" d="M-242 -332q4 19 14 29.5t21 15.5t20.5 5.5t13.5 0.5q13 -7 19.5 -14t10 -14t5.5 -13t6 -10q24 3 41.5 5.5t30.5 13.5q25 25 50.5 51.5t48.5 54t41 57t28 60.5q24 78 45.5 151.5t41 145.5t36.5 144t33 146l3 12q4 20 5.5 28t0.5 11q-25 7 -54.5 8.5t-58.5 1.5 q-9 0 -21.5 -1t-25.5 -1q-16 0 -30.5 2t-25.5 8.5t-16 18t-1 29.5q7 32 46.5 44t107.5 12q28 0 51.5 -4.5t39.5 -4.5q6 0 14.5 27t17 61.5t15.5 66t9 41.5q11 55 30.5 108.5t39.5 104.5q14 37 38 69t54 56t66 38t74 14q22 0 32.5 -14.5t6.5 -32.5q-3 -12 -10.5 -21 t-18 -15.5t-23 -11.5t-24.5 -9q-37 -14 -61 -35t-38 -56q-30 -77 -51 -152.5t-38 -151.5l-4 -22q-2 -9 -4.5 -19.5t-5 -20t-4.5 -16.5t-3 -7q22 -5 52.5 -5t60 -3t52.5 -12.5t29 -31.5l1 -2q2 -5 1.5 -9.5t-1.5 -10.5q-7 -31 -29 -39.5t-43 -8.5q-34 0 -66 2.5t-52 2.5 q-17 0 -21.5 -3t-7.5 -17l-18 -85q-6 -29 -12 -59.5t-11 -56.5q-11 -48 -21.5 -95t-24.5 -95q-10 -35 -19 -69.5t-19 -69.5t-22.5 -70t-28.5 -71q-35 -76 -89.5 -136t-116.5 -116l2 2q-8 -6 -15 -9h3q-32 -14 -64.5 -25t-67.5 -11h-12t-11 1q-23 11 -40 27q-14 14 -24 34 t-4 46z" />
<glyph unicode="g" horiz-adv-x="623" d="M-140.5 -310.5q0.5 7.5 2.5 18.5q10 48 40.5 83.5t72.5 62t92.5 44.5t100.5 31q24 5 64.5 14.5t79.5 19.5t67.5 19.5t29.5 15.5q10 37 20 73.5t18 71.5l5 22q-42 -37 -74.5 -66.5t-70.5 -57.5q-31 -23 -60 -30.5t-58 -10.5q-48 0 -74 19t-36 49q-8 25 -8 55v12 q2 37 10 73l17 83q7 32 14.5 66.5t21.5 66.5q9 24 24.5 45.5t28.5 48.5q24 38 39.5 62.5t29 42t28 30t35.5 26.5v-1q10 7 26 18t34.5 20.5t39 16.5t40.5 7h11q24 0 51 -2t52 -12l3 -1q8 7 16.5 15t23.5 8q18 0 29 -11.5t7 -27.5q-5 -24 -7 -48.5t-3 -49t-3 -49.5t-8 -51 q-5 -26 -12.5 -50.5t-12.5 -50.5q-7 -30 -12.5 -61.5t-12.5 -63.5q1 4 -3.5 -13.5t-11.5 -46t-16 -63t-16 -64.5t-11.5 -50t-3.5 -20q18 0 38.5 10t40 22.5t38 22.5t33.5 10q19 0 29.5 -13.5t5.5 -40.5q-4 -18 -22.5 -36t-43.5 -34.5t-53.5 -28.5t-51.5 -18h1 q-16 -5 -26 -9.5t-16.5 -11t-10.5 -15t-8 -20.5q-10 -31 -20 -60.5t-21 -55.5q-9 -21 -29.5 -51.5t-47.5 -59t-58.5 -50t-64.5 -25.5q-50 -6 -100 -10t-99 -8q-31 0 -60.5 7t-53.5 21t-40 36.5t-19 52.5v1v12q-1 6 -0.5 13.5zM-33 -290q-5 -23 14.5 -41.5t56.5 -18.5 q14 0 30.5 1.5t33.5 3.5q42 5 72 7t53 8.5t42 20.5t40 43q1 5 8 12q5 8 12.5 21t16 29t15.5 33.5t11 34.5l1 7q-19 -5 -55 -13t-80 -19.5t-90 -25.5t-85 -30t-65.5 -34.5t-30.5 -38.5zM176 152.5q0 -20.5 5 -32t17 -11.5q17 0 38 10t43 25.5t43 34t38 36.5q19 20 42 40.5 t43.5 41.5t36.5 44t21 47l10 68q4 17 9 32.5t8 29.5q0 1 3 17t6 34t4 33t-3 15q-18 8 -36.5 14t-36.5 6q-7 -1 -15.5 -2t-19.5 -5q-52 -18 -92 -58t-69 -91t-48.5 -108.5t-30.5 -110.5q-7 -33 -11.5 -61t-4.5 -48.5z" />
<glyph unicode="h" horiz-adv-x="801" d="M91 45l3 13q3 16 7 32t9 31q17 46 30 92.5t24 92t21.5 91.5t24.5 92q15 53 30 112.5t31 121.5t33 124.5t37 121.5q4 15 11.5 42t14.5 53.5t13 46t8 19.5q-2 -1 -3 -1t-3 -1q-41 -12 -68 -23.5t-57 -15.5q-9 0 -17.5 4.5t-14.5 11.5t-9 16.5t-1 19.5q4 17 19 30t26 19 q10 3 33.5 13t51 20t54.5 18t44 8q34 0 46 -25.5t6 -56.5q-2 -8 -4.5 -17.5t-8.5 -32t-17 -63.5t-30 -112q-25 -92 -48.5 -182.5t-46.5 -183.5q14 13 41.5 40.5t63.5 54.5t78 47.5t86 20.5q9 0 19 -3t19 -6q40 -16 61 -37.5t28 -49t3.5 -61t-11.5 -73.5q-2 -6 -3.5 -13.5 t-3.5 -12.5q-26 -81 -50.5 -161.5t-48.5 -160.5q-2 -6 -3 -10t-3 -8v2l-4 -14t-4 -15q-1 -4 -0.5 -10t5.5 -6q16 0 29.5 13t29 28.5t33.5 28.5t43 13q3 0 10 -1t13.5 -5t10.5 -12t1 -22t-15.5 -31t-30.5 -34t-40 -33.5t-44 -29.5t-42.5 -20.5t-35.5 -7.5q-12 0 -28 5 t-29.5 15t-22 26t-3.5 37q14 63 32 123t36 119t35.5 118t30.5 121q7 34 -8 54t-40 20q-17 0 -45.5 -16.5t-61 -43.5t-67 -61t-63 -69.5t-49 -68.5t-25.5 -58q-12 -57 -31 -108t-30 -105q-3 -12 -4 -26.5t-5 -31.5q0 -1 -2.5 -10.5t-9.5 -21t-19 -20.5t-31 -9q-6 0 -15 4 t-16.5 12t-12 21.5t-0.5 31.5z" />
<glyph unicode="i" horiz-adv-x="428" d="M121 128.5q2 19.5 7 45.5q2 8 4 15t5 14l-1 -2q22 72 45.5 145t47.5 146q2 10 5 17q11 32 25 65.5t22 65.5q-18 -13 -37 -23t-41 -10q-8 0 -17 7t-15 30q3 15 22.5 36t45 40t53.5 32.5t49 13.5q23 0 35 -12t17 -28.5t4.5 -35t-3.5 -30.5q-2 -5 -2.5 -9t-2.5 -9 q-24 -65 -46.5 -121t-41.5 -109.5t-35.5 -106.5t-28.5 -112q-10 -45 -5 -58.5t19 -13.5q11 0 21.5 4t27.5 12h-1q8 4 20 10.5t25.5 12.5t27 10t24.5 4q22 0 31.5 -14t5.5 -31q-4 -20 -31.5 -41t-63.5 -38.5t-72.5 -29t-59.5 -11.5q-5 0 -13.5 1.5t-16.5 7.5q-23 21 -35.5 38 t-17 35t-2.5 37.5zM341 991q4 19 14.5 36t25 29.5t32.5 21.5t36 12q38 0 60 -20q16 -15 16 -41q0 -9 -2 -19q-5 -27 -22.5 -51t-38.5 -35q-15 -10 -28 -12t-27 6q-13 4 -26 10.5t-23 15.5t-15 20.5t-2 26.5z" />
<glyph unicode="j" horiz-adv-x="392" d="M-232 -245q1 2 2 6.5t5 11.5q2 3 5.5 9t9.5 12t15.5 10t22.5 4q22 0 32 -14.5t15.5 -32.5t9.5 -32.5t13 -14.5q5 0 8 1q38 7 73.5 28t65.5 51t54.5 67t40.5 76q39 102 68.5 209.5t51.5 209.5q15 69 28 137.5t28 139.5v1l-19 -9.5t-22.5 -10.5t-22.5 -8.5t-19 -3.5 q-24 0 -30 15.5t-2 33.5q2 10 15 22t32.5 24.5t42 24.5t43.5 21.5t37.5 15.5t23.5 6q18 0 27 -9.5t11.5 -25t0 -35.5t-6.5 -40l-88 -416q-13 -62 -33 -130.5t-48.5 -136.5t-66 -131t-84.5 -114q-23 -23 -54 -45t-64.5 -39.5t-67.5 -28.5t-64 -11q-13 0 -26.5 4.5t-18.5 22.5 q-5 10 -13 26.5t-15.5 34.5t-12.5 35t-3 29zM363 971q-1 14 2 29q4 18 14.5 35t25.5 30t33 21t36 8q36 0 51.5 -25.5t9.5 -56.5q-4 -19 -15.5 -35.5t-27 -29t-34 -20t-36.5 -7.5q-20 0 -32.5 7t-19 18.5t-7.5 25.5z" />
<glyph unicode="k" horiz-adv-x="663" d="M50 70q5 16 8.5 31t6.5 30l17 78q11 50 26.5 98t25.5 94q2 8 3.5 18t6.5 36q17 77 38 153.5t42 152.5v-1q29 106 57 214.5t51 214.5q-12 -3 -22 -7t-19.5 -7.5t-20.5 -5.5t-25 -2q-4 0 -6 1q-3 0 -8.5 1t-11 5t-9 10.5t-1.5 18.5q4 19 25 37t50.5 32t62 22.5t60.5 8.5 q26 0 36.5 -15.5t5.5 -37.5l-37 -177q-28 -128 -67.5 -260.5t-75.5 -263.5q51 30 98 64.5t96 70.5q25 18 52 39.5t54.5 40t56 30.5t56.5 12q17 0 35.5 -6t32.5 -17.5t21.5 -28t3.5 -38.5q-4 -15 -21 -32.5t-39 -17.5q-19 0 -28 9q-20 10 -27 17t-11 7q-5 -2 -15.5 -9 t-24.5 -17q-15 -10 -36 -25t-44 -31l-46 -32t-41.5 -29t-30 -22t-11.5 -11q-2 -5 1 -8q18 -58 38.5 -122.5t44 -128t51.5 -121.5t62.5 -104.5t76.5 -77t93 -37.5q27 -4 42.5 -18t10.5 -37q-3 -12 -11 -22.5t-19.5 -19t-24.5 -13t-26 -4.5q-11 0 -18 3q-89 19 -148 72.5 t-98 127.5q-51 97 -87.5 190t-67.5 194q-3 5 -3 6t-1 3l2 -1l-2 7q-3 8 -6 17t-5 16.5t-1 7.5q-22 0 -41.5 -17t-27.5 -39q-22 -78 -41 -155.5t-36 -156.5q0 -2 -4 -12t-12.5 -21.5t-22.5 -21t-36 -9.5q-21 0 -28.5 16t-4.5 33z" />
<glyph unicode="l" horiz-adv-x="426" d="M89.5 70.5q0.5 24.5 5.5 48.5q0 3 2 9q27 106 56.5 218.5t61.5 226.5t66 226.5t70 219.5q2 7 6 16t6 16q6 30 -4.5 37t-39.5 8q-11 0 -24.5 1.5t-25 7t-18 15t-3.5 24.5q4 18 14 28.5t23.5 16.5t30 8t33.5 2q77 -1 105 -31q19 -20 19 -57q0 -20 -5 -45q-1 -3 -1.5 -6.5 t-1.5 -6.5q-27 -104 -59 -212.5t-65.5 -217.5t-66 -217.5t-58.5 -212.5q-6 -18 -9 -36q-2 -11 -4 -23t-2 -22.5t3 -17t10 -6.5t19.5 6t25.5 15t24.5 20t17.5 20q21 32 40.5 44.5t42.5 12.5q26 0 37.5 -13.5t6.5 -33.5q-3 -15 -27.5 -44t-60.5 -58t-79 -51t-83 -22 q-34 0 -53.5 12t-27.5 31t-7.5 43.5z" />
<glyph unicode="m" horiz-adv-x="1092" d="M157 43q15 61 31 126.5t32 132t32 131t32 123.5l3 14q2 8 5.5 25.5t7.5 28.5q-26 -8 -48 -15.5t-45 -10.5q-23 0 -34.5 14.5t-8.5 29.5q4 19 19.5 30t36 19.5t44 16.5t44.5 22h-1q16 10 32.5 18.5t33.5 8.5q31 0 37 -28l1 1q0 -2 -2 -21t-5 -36q-4 -14 -8 -20 q8 6 21.5 16.5t24.5 20.5l15 13q44 35 85 47t86 12q31 0 50.5 -6.5t31.5 -18.5t19 -29t15 -37q5 3 8.5 5t5.5 3l19 16q19 16 38 30.5t39.5 26t42.5 18.5t47 7q37 0 63.5 -16.5t42.5 -42.5q17 -28 22 -60q2 -14 2 -27q0 -19 -4 -38q-8 -37 -18 -80.5t-21 -88t-22 -87.5 t-21 -80q-8 -41 -14.5 -88t-10.5 -84q16 4 31.5 13t30.5 21l-3 -4q5 5 12.5 13.5t18 16t23.5 13t30 5.5q7 0 14 -4t12.5 -11t8 -16.5t0.5 -21.5q-5 -24 -32.5 -49t-63 -45.5t-70.5 -33.5t-56 -13q-35 0 -53 22t-16 58v-1q1 38 6.5 78.5t14.5 82.5q3 14 7.5 34t10 42 t11.5 42.5t11 35.5q18 55 29 106.5t25 104.5q4 22 0.5 39.5t-11 30t-16.5 19t-16 6.5q-11 0 -26.5 -10t-33.5 -18q-32 -26 -53.5 -43t-36.5 -30t-24.5 -25.5t-17 -29.5t-15 -42t-17.5 -64q-7 -29 -17 -71t-22 -88.5t-26 -92.5t-30 -82.5t-34 -59.5t-37 -23q-20 0 -29 8 t-11 19t0 21.5t3 16.5q15 52 31.5 110t33.5 117.5t33.5 117.5t32.5 110l3 16q2 5 3 10t3 10q4 19 4 40t-3.5 39t-12 29.5t-21.5 11.5q-12 0 -28.5 -7t-34.5 -17t-35 -21.5t-30 -21.5q-17 -13 -36 -29t-35.5 -34t-29 -37.5t-16.5 -39.5l-2 -12q-1 -3 -1 -6.5t-1 -6.5 q-8 -39 -18.5 -84.5t-21 -92t-21 -92t-18.5 -84.5q-2 -11 -6.5 -25.5t-13 -27.5t-22.5 -22t-35 -9q-17 0 -31 12.5t-9 33.5z" />
<glyph unicode="n" horiz-adv-x="689" d="M90 58q1 14 4 30q2 11 5.5 21.5l5.5 16.5v-1q14 38 26.5 71t26.5 68q4 12 10.5 26.5t12.5 29t10.5 27.5t6.5 21q15 57 35.5 114.5t39.5 108.5q2 9 5 13l-6 -2q-5 -2 -13.5 -6t-19.5 -8t-22.5 -7t-21.5 -3t-16.5 4t-11 9.5t-7 11.5t-3.5 9l1 10q2 9 6 15.5t16 15.5 q18 13 42 28.5t49 29.5t48.5 23.5t39.5 9.5q18 -1 27.5 -8.5t13.5 -19.5t3 -28t-5 -33t-9.5 -37t-11.5 -35q20 16 49 41.5t64 50t73.5 42.5t77.5 18q34 0 50.5 -22.5t22.5 -54.5q3 -19 3 -40q0 -15 -2 -30q-4 -37 -10 -66q-11 -53 -29 -102.5t-37.5 -97.5t-37 -94t-26.5 -91 q-4 -17 -4 -30.5t11 -15.5q9 0 18.5 5t20 11t21.5 11t23 5q22 0 35.5 -18.5t8.5 -41.5q-4 -20 -20 -35.5t-37.5 -26.5t-44 -16.5t-40.5 -5.5q-44 0 -67 16t-32 41t-7 55t8 58q14 64 34 119t40 111q15 42 34.5 90t29.5 91q7 35 -1.5 46.5t-27 7.5t-43 -19.5t-49 -35 t-45.5 -39t-32 -31.5q-20 -24 -41.5 -47t-41.5 -50t-37.5 -61t-30.5 -81q-7 -24 -16 -48.5t-17 -44.5q-14 -32 -20.5 -57t-13.5 -48l-6 -8q-6 -11 -16.5 -22.5t-34.5 -11.5h-6h1q-16 1 -24.5 7.5t-12 16.5t-2.5 24z" />
<glyph unicode="o" horiz-adv-x="612" d="M84 178q-1 14 -1 28q0 20 2 42q3 36 11 74l4 17q0 1 -0.5 1.5t-0.5 2.5q9 41 26.5 89.5t43.5 98t60 96t75.5 82.5t89.5 57.5t103 21.5q70 0 112.5 -29.5t63.5 -75t23 -99.5v-18q0 -44 -8 -85q-11 -51 -30.5 -108t-47 -112t-63 -105.5t-79 -88.5t-94 -60.5t-108.5 -22.5 q-42 0 -74 8t-55 29t-36.5 59t-16.5 98zM191 240v-10q0 -43 11 -85l1 1v-5l4 -9q-2 -8 7 -15.5t22 -13.5t26.5 -9.5t19.5 -3.5q41 0 76.5 18.5t66 49.5t55.5 71t44.5 82.5t33 84.5t21.5 77q4 19 7 37t6 38v-1q4 30 -4 55t-23.5 43.5t-37.5 28.5t-46 10t-47.5 -9t-46 -23.5 t-42 -33.5t-34.5 -40q-40 -56 -67 -115.5t-40 -121.5q-11 -53 -13 -101z" />
<glyph unicode="p" horiz-adv-x="618" d="M-42 -455.5q-3 11.5 1 29.5t13.5 28.5t20 16.5t20 8t12.5 2q7 33 14 78t14.5 92.5t14.5 92.5t14 78q20 94 46.5 183.5t46.5 182.5l34 158q3 13 6 30.5t6.5 34.5t8 30t9.5 16q-4 -2 -7.5 -2.5t-6.5 -2.5q-16 -8 -32.5 -14.5t-27.5 -6.5q-22 0 -31.5 16.5t-6.5 33.5 q2 11 9 20t13 17v-1q4 4 26 18t49 29t51 26.5t32 11.5q18 0 27.5 -6t13.5 -15.5t4.5 -21.5t-0.5 -24q17 20 37.5 38.5t44 32.5t49 22.5t52.5 8.5q14 0 29 -2.5t26 -7.5q49 -21 72 -52.5t30 -70.5q3 -19 3 -39.5t-3 -41.5q-7 -43 -16 -87q-19 -89 -55 -180.5t-105 -179.5 q-18 -22 -41.5 -45.5t-50.5 -42.5t-55.5 -31.5t-57.5 -12.5q-25 0 -51 8.5t-51 20.5l-14 -66q-7 -34 -16.5 -81.5t-19.5 -97t-19.5 -96t-16.5 -79.5q-4 -20 -16 -35.5t-28 -27t-34.5 -17.5t-36.5 -6q-12 0 -22.5 2.5t-17.5 9t-10 18zM251 205q-5 -23 4.5 -41.5t24 -31.5 t30 -20.5t22.5 -7.5q31 0 60 20.5t54 53.5t45.5 74t37 82.5t27.5 79.5t17 64q6 28 11 55t9 56q1 10 -1.5 26t-11 31t-24.5 25.5t-41 10.5q-14 0 -33.5 -10.5t-41 -28t-43.5 -39t-40 -43.5t-31 -42.5t-16 -34.5l-29 -139q-8 -36 -15 -70.5t-15 -69.5z" />
<glyph unicode="q" horiz-adv-x="588" d="M48 84q-1 10 -1 21q0 28 6 54q7 33 19.5 71t27.5 76t31 74.5t30 66.5l28 61l-1 -1q20 51 49.5 94t64.5 73.5t72.5 48t73.5 17.5q38 0 71 -12.5t70 -32.5q18 12 38 24t38 12q22 0 32 -16t6 -33q-3 -18 -23 -33q-23 -17 -35 -42.5t-21 -57.5q-43 -149 -83.5 -294.5 t-72.5 -294.5q-17 -79 -34 -158.5t-36 -158.5q-7 -29 -20 -54.5t-33 -42.5l1 1q-5 -5 -15.5 -12.5t-23 -15t-27 -13t-27.5 -5.5q-19 0 -33 17.5t-9 40.5q0 3 2.5 10t8 15t13 14t18.5 7q21 12 31.5 35t15.5 49l81 381l-8 -7h1q-24 -21 -51 -43.5t-55.5 -41.5t-58.5 -31 t-58 -12q-32 0 -54 21.5t-34 54.5t-15 73zM154 82q1 -17 6 -28.5t16 -11.5q7 0 17 5q27 13 54.5 33.5t54.5 45t52 52.5t46 55q22 19 41.5 66.5t36 102t28.5 103.5t18 71q2 8 4 13.5t2 7.5l1 1q-6 7 -17.5 13t-25.5 10.5t-28.5 7t-25.5 2.5q-30 0 -55.5 -18t-47.5 -47.5 t-40.5 -65.5t-33.5 -72q-27 -65 -55 -136.5t-42 -138.5q-3 -16 -5 -35t-1 -36z" />
<glyph unicode="r" horiz-adv-x="518" d="M97 628q3 14 13.5 23.5t26.5 17.5t35 15.5t39 18.5q13 6 28 14.5t30.5 17t30.5 14t27 5.5q18 0 27.5 -6.5t12.5 -18.5t1 -27.5t-6 -33.5q30 29 64.5 52t79.5 23q14 0 30.5 -4t30.5 -13q13 -9 30 -21.5t31 -29.5t22 -38t3 -46q-1 -6 -5 -14.5t-11.5 -17t-18.5 -14.5 t-27 -6q-22 0 -35.5 16.5t-19.5 42.5q-1 1 -5 7.5t-11 13t-17 12t-23 5.5q-7 0 -14.5 -4t-12.5 -9q-42 -47 -78 -95t-53 -106q-27 -85 -51.5 -169.5t-50.5 -169.5q-8 -35 -23.5 -55t-44.5 -20q-14 0 -24 6t-16 15.5t-7.5 21t0.5 23.5q2 7 3.5 12t3.5 10q23 75 43 152t37 152 q11 56 26 110t26 105q-26 -10 -49 -21.5t-53 -12.5q-6 1 -14.5 4.5t-16 10t-12 14.5t-2.5 18z" />
<glyph unicode="s" horiz-adv-x="538" d="M82 136q1 34 4 64q1 5 5.5 23t13.5 37.5t24.5 35t39.5 15.5q22 0 33.5 -16.5t7.5 -33.5q-3 -13 -6.5 -26t-5.5 -22q-5 -21 -5 -38q0 -22 8 -37q14 -27 59 -27q29 0 53.5 9.5t43.5 25.5t31 37t17 43q4 22 1.5 37.5t-10.5 26.5t-19.5 19.5t-24.5 17.5q-41 32 -71 55.5 t-47 47.5q-18 22 -23 50q-2 10 -2 22q0 21 6 47q12 54 35.5 96t55.5 71.5t70 45t78 15.5q22 0 51.5 -9.5t54 -29.5t38.5 -51q8 -19 8 -42q0 -15 -4 -32q-3 -14 -10 -31.5t-17.5 -32.5t-25 -25.5t-31.5 -10.5q-8 0 -16.5 3t-14.5 8.5t-9 14t-1 19.5q3 12 5.5 19t4.5 12 q8 40 -6.5 61.5t-45.5 21.5q-26 0 -46 -13.5t-35 -33t-24 -42t-13 -40.5q-5 -23 5 -40.5t26 -31t34 -25t30 -23.5q23 -18 44 -35.5t35 -40.5q15 -23 19 -53q2 -10 1 -21q0 -23 -6 -52q-9 -42 -32.5 -81t-59 -70t-81 -49.5t-97.5 -18.5q-64 0 -96.5 20t-44.5 50 q-12 27 -12 58v6z" />
<glyph unicode="t" horiz-adv-x="472" d="M129 602q5 19 19.5 35t31.5 26q10 6 33 10t48 8t46.5 8.5t27.5 10.5q2 0 6.5 13t10 33.5t12 45t12 46.5t10 38.5t5.5 22.5t-3 6q-14 0 -29.5 -1t-32.5 -1q-15 0 -29.5 10.5t-9.5 35.5q3 15 25 29t51 24t58.5 16t48.5 6t28 -7.5t11.5 -19t0.5 -25.5t-5 -28 q-3 -16 -12.5 -49.5t-20 -71.5t-19.5 -72.5t-13 -52.5q8 2 20 4t27 2t35 -1.5t37 -7t27.5 -16.5t6.5 -29q-4 -19 -14.5 -30t-24.5 -16.5t-31 -7t-34 -2.5q-42 0 -58.5 -5t-21.5 -8q-14 -20 -28.5 -64.5t-28.5 -98.5t-26.5 -111t-22.5 -102q-4 -17 -7 -36.5t-3.5 -36t2.5 -27 t12 -10.5q12 0 27 14.5t33.5 33.5t39 37.5t42.5 26.5q16 0 25.5 -4.5t13 -11.5t3.5 -16t-2 -17t-9 -20t-16.5 -24.5t-20.5 -25t-20 -21.5q-14 -14 -29 -28t-32 -25.5t-36.5 -19t-42.5 -7.5q-16 0 -32 4.5t-29.5 14.5t-22.5 24t-10 34q-1 15 -1 29q0 32 4 66q6 49 18 97 l15 67q15 54 27.5 109t32.5 108q4 8 6 16q2 13 2 15.5t-3 2.5q-21 0 -52 -8t-66 -8q-6 0 -14.5 1.5t-16 6t-11.5 13t-1 23.5z" />
<glyph unicode="u" horiz-adv-x="707" d="M114 609q1 7 15.5 21.5t36 32t48 35.5t52.5 33.5t49 25t38 9.5q29 0 36 -21.5t-2 -62.5q-1 -7 -3 -15.5t-6.5 -24t-12 -41t-20.5 -65t-32 -95.5t-45 -134v1q-13 -45 -22 -79.5t-15 -60.5q-8 -42 -5.5 -57t16.5 -15q8 -1 15 2.5t16 8.5q124 66 214 169q5 5 8.5 12.5 t5.5 15.5q19 68 44 138.5t49 133.5q5 23 10 41t11 37q3 13 7.5 31.5t12.5 35.5t22 29.5t36 12.5q16 0 24.5 -7.5t12 -20.5t2 -29.5t-5.5 -35.5q-4 -18 -8.5 -35t-9.5 -30q-17 -60 -37 -122t-37 -120q-11 -39 -24 -79.5t-21 -77.5q-3 -15 -5 -31t-1.5 -30t5 -23.5t14.5 -10.5 q8 0 17.5 7t20.5 15.5t23 15.5t25 7q25 0 37 -19.5t7 -41.5q-5 -23 -22 -40.5t-39.5 -30.5t-46.5 -19.5t-43 -6.5q-39 0 -61 11t-32.5 29t-13.5 41t-4 48q-31 -20 -61 -44t-60 -44t-62 -33.5t-66 -13.5q-31 0 -53 11t-34 31t-14.5 47.5t4.5 60.5q13 62 31 123.5t35 124.5 l1 1q16 54 32.5 107t30.5 104q-24 -14 -53 -24t-49 -10q-21 0 -32 9t-6 32z" />
<glyph unicode="v" horiz-adv-x="672" d="M121 643q1 19 15 27t28 13q24 8 52 16t57 17q33 10 67 22t69 16q32 0 49 -17t12 -42q-2 -7 -3.5 -12.5t-6.5 -12.5q-31 -56 -63.5 -113.5t-62 -116t-53 -117.5t-35.5 -117q-5 -22 -6 -42.5t2 -37t11 -26.5t23 -10t34.5 8t40.5 20t41 26.5t35 27.5q42 36 79.5 88.5 t68 111.5t52.5 121.5t34 118.5q7 32 8.5 61t-10.5 52q0 4 -6.5 10t-14 13.5t-12.5 17.5t-2 22t10 22t16.5 17.5t20.5 11.5t20 4q29 0 48 -12t29 -32t13.5 -45t2.5 -51t-4.5 -51t-8.5 -44q-11 -50 -30 -105t-45 -110.5t-57 -108.5t-66 -100q-24 -32 -61 -67t-80 -65 t-86.5 -49.5t-80.5 -19.5q-50 0 -80 17.5t-44 47.5t-14 70.5t10 86.5q15 70 43 139t56.5 126t52.5 97.5t30 55.5q-32 -6 -64 -13t-63 -12l1 1q-13 -4 -27 -4q-5 0 -14 2.5t-16.5 8t-12.5 14.5t-2 23z" />
<glyph unicode="w" horiz-adv-x="911" d="M64 99q-2 31 5 61q11 55 37 110t52 107q29 53 55.5 109.5t56.5 106.5h-8q-20 0 -36.5 8.5t-28.5 20.5t-18 26t-3 26q4 17 17 26.5t39 9.5q14 0 23 -1.5t20 -1.5q31 0 60 10t57 10q25 0 37 -16t7 -38q-4 -17 -17 -33q-58 -79 -102 -162.5t-84 -167.5q-16 -34 -33.5 -68.5 t-26.5 -68.5q-2 -9 -3 -22t-0.5 -25t3 -21.5t7.5 -11.5q5 0 15 5q25 8 53 30.5t55.5 53t53 66.5t45.5 71q31 51 59.5 105t51.5 108l-1 -1q14 33 30.5 65.5t34.5 65.5q4 14 19.5 25.5t31.5 11.5q14 0 29 -9q13 -5 18.5 -11t7 -13t0.5 -13.5t-2 -11.5q-14 -35 -33.5 -75.5 t-39.5 -85t-37.5 -91t-27.5 -92.5q-6 -27 -10 -61q-4 -31 -4 -58q1 -3 1 -7q0 -31 6.5 -52.5t23.5 -21.5h-1q13 0 30.5 7.5t35 19.5t33 27t26.5 30q71 99 118 201.5t70 212.5q3 15 6.5 33.5t4 34.5t-2 27t-9.5 11q-2 0 -4 -0.5t-4 -0.5t-10.5 3.5t-17 11t-14 19t-2.5 27.5 q2 9 9.5 19t17.5 18t20.5 13.5t18.5 5.5t21 -2t21 -5h-1q17 -6 30.5 -21.5t22.5 -37t11 -47t-3 -51.5q-7 -35 -16.5 -70t-17.5 -68q-7 -25 -24.5 -74t-45 -107.5t-64 -119.5t-80 -111t-94.5 -82t-107 -32q-14 0 -28 4t-23 13h1q-15 11 -29 28.5t-23 40t-12 49.5t3 56 q-24 -32 -53.5 -66t-63.5 -62t-72 -46.5t-79 -18.5q-30 0 -50.5 15.5t-31.5 40.5t-13 56z" />
<glyph unicode="x" horiz-adv-x="732" d="M46 93q1 4 3 9.5t7 11.5t14 12.5t25 11.5q22 -3 50 -10v1q6 -1 8 -3l96 134t94 136q3 3 4 11v6l1 2q-1 14 -1 38t-0.5 52t-1.5 56.5t-4 52t-7 38.5t-11 15q-10 0 -22.5 -7.5t-34.5 -15.5l-91 -34q-4 -2 -6.5 6.5t-4.5 20t-2.5 22t-0.5 12.5q3 16 27.5 34t55.5 32 t61.5 23.5t45.5 9.5q33 0 52 -16.5t29 -41.5t14 -54.5t6 -55.5l2 -20v1q1 -9 1 -20.5t-2 -22.5l10.5 14t13.5 17q23 30 51.5 63.5t60 62.5t65.5 48t69 19q20 0 38.5 -6.5t33 -19t23 -32t8.5 -44.5q1 -6 1 -9v-5v1q1 -9 2 -19.5t-1 -21.5q-5 -26 -25.5 -37.5t-38.5 -11.5 q-12 0 -26 8.5t-12 27.5q-4 27 -8 44t-15 24q-12 -3 -34 -22t-48 -47t-53 -61t-49.5 -63.5t-38 -55t-17.5 -36.5q-2 -10 -2.5 -20t0.5 -21q8 -69 18 -140t32 -132q9 -21 24 -46.5t35 -47t44 -36t52 -14.5q10 0 23.5 5t29.5 10.5t33 10.5t34 5q5 0 9.5 -0.5t9.5 -3.5 q3 -2 10 -6t14 -11t11.5 -17.5t1.5 -25.5q-3 -16 -12.5 -24t-24.5 -13.5t-36.5 -11t-49.5 -14.5h1q-17 -6 -32.5 -10t-33.5 -4q-25 0 -50 8t-48 21t-43.5 29.5t-36.5 33.5q-26 27 -46 65t-35 83t-24.5 93.5t-13.5 95.5q-14 -23 -33 -48t-36 -49l-12 -17q-13 -20 -28 -39.5 t-31.5 -35.5t-34.5 -26t-38 -10q-11 0 -19.5 2t-19.5 6q-5 2 -16.5 6.5t-22 12.5t-17.5 20.5t-3 30.5z" />
<glyph unicode="y" horiz-adv-x="607" d="M56 -321q7 32 24.5 41t34.5 9q19 0 31 -7.5t20.5 -17t15 -17t15.5 -7.5q8 0 20 6.5t25 17.5t26.5 24.5t24.5 27.5q36 45 62 91.5t45.5 94.5t34 97t25.5 99q-36 -30 -67.5 -58t-61.5 -49.5t-60 -34.5t-64 -13q-40 0 -64 20.5t-35 51.5q-13 32 -13 72q0 34 7 65 q6 28 14 56.5t16.5 55.5t15.5 52t12 46q11 48 26.5 97t35.5 93q3 7 6 13.5t5 13.5q-26 -15 -57 -29t-51 -14q-18 0 -28 4.5t-14.5 11t-5.5 14t1 14.5q2 10 11 19.5t21.5 17.5t27 16t27.5 15q16 9 38 22t44 25t41.5 20.5t30.5 8.5q18 0 27 -7.5t11.5 -19t1 -25.5t-4.5 -27 q-7 -33 -16.5 -63t-21.5 -59q-21 -49 -37.5 -100t-30.5 -99q-10 -30 -19.5 -60t-15.5 -58q-5 -23 -7.5 -49.5t-4.5 -52.5v2q1 -28 7 -43t25 -15q30 0 68 27t74.5 64t68 75.5t49.5 61.5l-2 -1q6 6 7 14q5 22 7 46t7 49q14 66 34 137t35 143q3 16 10 26t15.5 15t16.5 7t14 2 q19 0 29 -10t13 -23.5t1.5 -28.5t-3.5 -24l-34 -160q-13 -62 -25.5 -126.5t-26.5 -130.5q-18 -83 -38.5 -163.5t-47.5 -156.5q-28 -78 -71.5 -147.5t-97.5 -133.5q-15 -18 -35.5 -33t-43 -26t-46 -17.5t-44.5 -6.5q-12 0 -33 8t-40 23t-31 35.5t-7 45.5z" />
<glyph unicode="z" horiz-adv-x="694" d="M41 63q5 17 14 34t26 31q50 42 95 86.5t87 92.5q59 69 122.5 143t123.5 146q-41 0 -84.5 6.5t-78.5 22.5l-1 -2q-1 -6 -8 -16t-16.5 -20t-21.5 -17.5t-23 -7.5q-27 0 -35 16t-3 40q9 15 19.5 34t23 36.5t27.5 29.5t33 12q20 0 40.5 -5t41 -10.5t41.5 -10.5t43 -5 q68 0 145 42q18 8 33.5 19t36.5 11q24 0 32.5 -16.5t5.5 -31.5q0 -3 -1 -4l-9 -25q-1 -4 -8 -11t-16 -15t-18.5 -15.5t-15.5 -11.5q-70 -51 -129 -117t-113 -132q-47 -57 -97.5 -114.5t-97.5 -111.5l-3 -5h5q35 -2 68 -10.5t66 -17.5t66.5 -16t68.5 -7q37 0 51.5 11t19.5 38 q1 2 1 7q3 14 7 27.5t10.5 24t16.5 17t27 6.5q20 0 31 -8.5t16 -21.5t5 -29t-3 -30q-5 -21 -15.5 -41t-25 -38t-32 -32.5t-36.5 -23.5l-3 -1q-20 -7 -40.5 -9.5t-41.5 -2.5q-11 0 -23 0.5t-23 1.5q-31 2 -59 9.5t-55 16t-54 15.5t-54 7q-29 0 -62.5 -6.5t-66.5 -19.5 q-10 -4 -17.5 -6t-18.5 -2q-25 0 -33.5 11.5t-6.5 31.5z" />
<glyph unicode="{" horiz-adv-x="485" d="M118.5 -134.5q0.5 23.5 5.5 44.5q9 42 19 82.5t21 81.5q3 10 5.5 20t5.5 20q5 22 12 43.5t14 42.5q8 24 16 50t14 51q8 34 1.5 61t-24.5 53h1l-4 4q-8 8 -17.5 21.5t-5.5 33.5q5 21 25.5 37t42.5 28q7 5 15.5 8.5t14.5 8.5q13 7 24 24t19.5 39t15.5 47.5t12 49.5 q2 11 4 23t4 23t5 25t5 25q8 36 18.5 78.5t25 83t33 76t42.5 57.5q8 8 21 18t27.5 18.5t29 14t26.5 5.5t20 -4l3 -2q8 -6 13.5 -16t2.5 -24q-2 -12 -14 -24t-25 -16q-26 -11 -44 -35.5t-31.5 -57t-23 -71t-18.5 -78.5q-2 -7 -3 -14t-2 -15q-11 -54 -24.5 -106.5 t-30.5 -103.5q-8 -25 -16.5 -43.5t-20 -33.5t-28 -28.5t-39.5 -28.5q24 -42 27.5 -87t-6.5 -90q-5 -24 -12.5 -47t-15.5 -45q-19 -48 -30 -93.5t-22 -90.5q-5 -26 -11 -51.5t-13 -51.5l-3 -13q-3 -16 -2 -28q4 -11 9 -19q8 -10 12 -21t1 -25q-7 -30 -26 -41t-30 -11 q-13 0 -20 6l3 -1q-20 10 -31.5 27.5t-17 39.5t-5 45.5z" />
<glyph unicode="|" horiz-adv-x="281" d="M48 -149l270 1270h116l-270 -1270h-116z" />
<glyph unicode="}" horiz-adv-x="487" d="M38 -204q2 6 3.5 11t5.5 10q8 13 24 22t31 15l-3 -2q33 17 51.5 37.5t26.5 55.5q2 8 2.5 14t2.5 13l5 26q8 35 15.5 70t15.5 70t15.5 70t15.5 71q7 32 16 60.5t22.5 55t32.5 50.5t45 47q-23 38 -34.5 81t-0.5 91q2 14 6.5 27t9.5 25q16 38 25.5 74.5t17.5 72.5 q5 21 10 43t11 43q9 45 3 77q-4 11 -12 25.5t-15 27.5q-11 15 -18 26.5t-4 25.5h38q1 3 2.5 10.5t4 15t6.5 13.5t10 6q45 -26 65.5 -57t25.5 -66.5t-1.5 -74.5t-15.5 -81q-6 -28 -13 -54t-15 -52q-17 -53 -27 -102q-6 -29 -9 -54t3 -45q4 -11 13 -22l18 -22 q14 -16 23.5 -30.5t5.5 -31.5q-2 -13 -17 -29t-30 -23q-38 -16 -61 -51.5t-32 -77.5q-11 -46 -21 -92t-20 -93q-5 -23 -10.5 -46t-10.5 -46l-6 -27q-6 -26 -12 -52.5t-15 -51t-22.5 -46.5t-33.5 -40q-10 -9 -26 -21t-33 -22.5t-33.5 -18t-28.5 -7.5q-15 0 -24.5 6 t-15.5 14.5t-8 18t0 17.5z" />
<glyph unicode="~" horiz-adv-x="923" d="M165 364q0 10 2 19q2 11 6 20q21 38 47 63.5t56 40.5t63 21.5t68 6.5q24 0 48.5 -5t47.5 -16l-1 1q13 -6 23.5 -11.5t21.5 -9.5q23 -12 42 -18.5t47 -6.5q25 0 54.5 4.5t59.5 10.5q7 2 13 2.5t13 2.5q5 1 12 5.5t14 8.5q5 3 10 7t10 7l2 1q10 10 24 21.5t34 11.5 q10 0 15.5 -2.5t11.5 -6.5q-1 -1 3 -3l-2 2q21 -15 16 -42q-7 -33 -38 -57.5t-70 -41t-79.5 -24.5t-66.5 -8q-8 0 -15 -0.5t-14 1.5q-12 -3 -22 -4t-19 -1q-40 0 -70.5 11.5t-57.5 25.5q-23 12 -47 21.5t-51 9.5q-23 0 -43 -6.5t-39 -21.5q-2 -2 -5 -5.5t-8 -8.5 q-8 -10 -17 -21t-19 -20.5t-21.5 -16t-23.5 -6.5q-14 0 -21.5 5.5t-10.5 14t-3 18.5z" />
<glyph unicode="&#xa4;" horiz-adv-x="983" d="M102 166l76 80q-69 96 -69 217t69 217l-76 80l88 94l80 -84q90 72 219 72q134 0 224 -72l80 84l88 -94l-76 -80q69 -96 69 -217t-69 -217l76 -80l-88 -94l-80 84q-90 -72 -224 -72q-129 0 -219 72l-80 -84zM236 463q0 -109 73.5 -182.5t182.5 -73.5q104 0 180 73.5 t76 182.5q0 104 -76 180t-180 76q-109 0 -182.5 -76t-73.5 -180z" />
<glyph unicode="&#xad;" horiz-adv-x="819" d="M162 359q5 25 17 39.5t29.5 21.5t38 8.5t41.5 1.5q95 -6 193 -9.5t192 -3.5q11 0 21.5 1t21.5 2q10 1 19.5 1.5t19.5 0.5q11 0 21 -5q27 -17 21 -49q-3 -16 -6.5 -25t-8 -14t-11.5 -6.5t-18 -2.5q-5 -1 -10 -1t-11 -2l1 1q-33 -8 -63.5 -9t-59.5 -1h-23q-26 0 -53.5 0.5 t-53.5 2.5q-28 2 -54.5 3t-53.5 1h-21.5t-21.5 -1q-11 0 -21 -0.5t-21 -0.5h-22q-5 0 -10.5 0.5t-10.5 0.5q-3 0 -5.5 -0.5t-5.5 -0.5h-18h-21.5t-19 4t-12 14t-0.5 28z" />
<glyph unicode="&#xb6;" horiz-adv-x="778" d="M98 657q0 316 406 316q108 0 160 -10v-1092h-70v1036h-98v-1036h-72v498h-8q-123 0 -220.5 76.5t-97.5 211.5z" />
<glyph unicode="&#xb7;" horiz-adv-x="352" d="M59 378q0 24 9 45t24 36t36 24t45 9t44.5 -9t35.5 -24t24 -36t9 -45t-9 -44.5t-24 -36t-35.5 -24.5t-44.5 -9t-45 9t-36 24.5t-24 36t-9 44.5z" />
<glyph unicode="&#xde;" horiz-adv-x="1071" d="M119.5 75.5q1.5 28.5 9.5 57.5q9 36 17 72t16 71q5 26 10 50t10 50q6 31 15 60t24 54.5t36.5 47t53.5 38.5q-5 2 -12 4.5t-12 2.5q-19 0 -43 -12q-10 -5 -20 -8t-19 -3q-25 0 -36 23v-1q-7 13 -5.5 24.5t8 21t16 17.5t18.5 16l3 2q21 15 40.5 30.5t38.5 32.5h-1 q29 29 54 50t48.5 34.5t46 20t47.5 6.5q27 0 56 -8t63 -23l2 -2l12 -4q0 -1 2.5 -2t4.5 -1q36 -14 63 -33t42.5 -44t19.5 -58t-5 -76q-2 -8 -4.5 -17.5t-4.5 -16.5q-25 -84 -44 -172q-8 -36 -15 -73.5t-14 -75.5q-3 -16 -5.5 -29.5l-5 -27t-5.5 -28.5t-7 -33 q27 17 51.5 25.5t47.5 8.5q25 0 46 -12t42 -36q2 -3 3.5 -4.5l2.5 -2.5l2 -2q1 5 1 10v8.5t1 8.5q2 36 8.5 76t14.5 78q5 20 8.5 39t8.5 38q5 17 9.5 38.5t8.5 38.5l6 28t5 28q5 32 10.5 66t12.5 67q8 38 18 74t22 69q3 6 4 9.5t2 6.5q3 11 6 21.5t9 18.5t16.5 12.5 t28.5 3.5q17 -1 25.5 -8.5t11 -18t0.5 -23t-6 -24.5q-11 -31 -19 -61.5t-15 -59.5q-5 -24 -9 -47.5t-9 -47.5q-4 -20 -8.5 -45.5t-8.5 -45.5q-6 -27 -12.5 -53.5t-14.5 -50.5v1l-6 -20t-5 -20q-5 -25 -8.5 -49.5t-5.5 -49.5q-3 -26 -6 -50.5t-9 -52.5q-8 -34 -21.5 -61.5 t-42.5 -52.5q-17 -14 -31 -22t-29 -8q-26 0 -48 36q-26 51 -44 51q-11 0 -28 -14.5t-42 -40.5q-2 -2 -5.5 -6t-5.5 -6q-11 -15 -27 -26.5t-40 -6.5q-14 3 -21.5 10.5t-10.5 17.5t-2 21t3 22l2 9q12 63 26 131t28 131l53 263q7 37 6 61t-14 41.5t-40.5 31.5t-73.5 30 q-37 14 -60 14q-22 0 -43 -14t-53 -45q11 -5 21 -10t21 -13v1q20 -15 26.5 -35t1.5 -41q-5 -22 -21.5 -41.5t-43.5 -30.5q-26 -11 -42 -26.5t-26.5 -33.5t-16.5 -38t-10 -39q-2 -11 -5 -21t-6 -21q-3 -8 6 -12q43 -23 57 -69.5t4 -97.5q-10 -44 -37 -85t-72 -69h1 q-26 -16 -48 -16q-37 0 -49 46q-7 29 -5.5 57.5zM195.5 110.5q-5.5 -21.5 6.5 -43.5q26 15 36 37.5t18 44.5q4 14 2 28.5t-16 15.5q-17 1 -25.5 -14t-10.5 -27q-5 -20 -10.5 -41.5zM529 -221.5q1 24.5 11 51.5q17 44 49.5 66t66.5 36q23 8 43.5 0t35 -27t20.5 -46t0 -56 l-2 -6t-3 -7q31 26 59.5 55.5t57.5 59.5l26.5 26.5t36.5 36t36.5 35.5t27.5 26q-8 -25 -27 -60.5t-44 -74.5t-53.5 -79t-56.5 -73.5t-52.5 -57.5t-40.5 -32h-1q-19 -9 -38.5 -14.5t-38.5 -5.5q-39 0 -63 26q-15 16 -27 34.5t-18 40t-5 46zM612 -207q-8 -22 3 -30.5t28 -10.5 q14 -1 19.5 10.5t7.5 25.5q-2 6 -1 13.5t1 14t-3 11.5t-12 6q-17 2 -28 -10.5t-15 -29.5z" />
<glyph unicode="&#xe0d;" horiz-adv-x="1071" d="M119.5 75.5q1.5 28.5 9.5 57.5q9 36 17 72t16 71q5 26 10 50t10 50q6 31 15 60t24 54.5t36.5 47t53.5 38.5q-5 2 -12 4.5t-12 2.5q-19 0 -43 -12q-10 -5 -20 -8t-19 -3q-25 0 -36 23v-1q-7 13 -5.5 24.5t8 21t16 17.5t18.5 16l3 2q21 15 40.5 30.5t38.5 32.5h-1 q29 29 54 50t48.5 34.5t46 20t47.5 6.5q27 0 56 -8t63 -23l2 -2l12 -4q0 -1 2.5 -2t4.5 -1q36 -14 63 -33t42.5 -44t19.5 -58t-5 -76q-2 -8 -4.5 -17.5t-4.5 -16.5q-25 -84 -44 -172q-8 -36 -15 -73.5t-14 -75.5q-3 -16 -5.5 -29.5l-5 -27t-5.5 -28.5t-7 -33 q27 17 51.5 25.5t47.5 8.5q25 0 46 -12t42 -36q2 -3 3.5 -4.5l2.5 -2.5l2 -2q1 5 1 10v8.5t1 8.5q2 36 8.5 76t14.5 78q5 20 8.5 39t8.5 38q5 17 9.5 38.5t8.5 38.5l6 28t5 28q5 32 10.5 66t12.5 67q8 38 18 74t22 69q3 6 4 9.5t2 6.5q3 11 6 21.5t9 18.5t16.5 12.5 t28.5 3.5q17 -1 25.5 -8.5t11 -18t0.5 -23t-6 -24.5q-11 -31 -19 -61.5t-15 -59.5q-5 -24 -9 -47.5t-9 -47.5q-4 -20 -8.5 -45.5t-8.5 -45.5q-6 -27 -12.5 -53.5t-14.5 -50.5v1l-6 -20t-5 -20q-5 -25 -8.5 -49.5t-5.5 -49.5q-3 -26 -6 -50.5t-9 -52.5q-8 -34 -21.5 -61.5 t-42.5 -52.5q-17 -14 -31 -22t-29 -8q-26 0 -48 36q-26 51 -44 51q-11 0 -28 -14.5t-42 -40.5q-2 -2 -5.5 -6t-5.5 -6q-11 -15 -27 -26.5t-40 -6.5q-14 3 -21.5 10.5t-10.5 17.5t-2 21t3 22l2 9q12 63 26 131t28 131l53 263q7 37 6 61t-14 41.5t-40.5 31.5t-73.5 30 q-37 14 -60 14q-22 0 -43 -14t-53 -45q11 -5 21 -10t21 -13v1q20 -15 26.5 -35t1.5 -41q-5 -22 -21.5 -41.5t-43.5 -30.5q-26 -11 -42 -26.5t-26.5 -33.5t-16.5 -38t-10 -39q-2 -11 -5 -21t-6 -21q-3 -8 6 -12q43 -23 57 -69.5t4 -97.5q-10 -44 -37 -85t-72 -69h1 q-26 -16 -48 -16q-37 0 -49 46q-7 29 -5.5 57.5zM195.5 110.5q-5.5 -21.5 6.5 -43.5q26 15 36 37.5t18 44.5q4 14 2 28.5t-16 15.5q-17 1 -25.5 -14t-10.5 -27q-5 -20 -10.5 -41.5zM529 -221.5q1 24.5 11 51.5q17 44 49.5 66t66.5 36q23 8 43.5 0t35 -27t20.5 -46t0 -56 l-2 -6t-3 -7q31 26 59.5 55.5t57.5 59.5l26.5 26.5t36.5 36t36.5 35.5t27.5 26q-8 -25 -27 -60.5t-44 -74.5t-53.5 -79t-56.5 -73.5t-52.5 -57.5t-40.5 -32h-1q-19 -9 -38.5 -14.5t-38.5 -5.5q-39 0 -63 26q-15 16 -27 34.5t-18 40t-5 46zM612 -207q-8 -22 3 -30.5t28 -10.5 q14 -1 19.5 10.5t7.5 25.5q-2 6 -1 13.5t1 14t-3 11.5t-12 6q-17 2 -28 -10.5t-15 -29.5z" />
<glyph unicode="&#x152;" d="M-225 1029q3 37 25.5 50.5t50.5 21.5h-1q11 4 20.5 7t14.5 7q15 10 29 17q-30 60 -18 118q17 76 99 126q20 11 43 18.5t44 7.5q38 0 67 -27q14 -15 15.5 -42t-4.5 -58q-7 -29 -20 -59.5t-31 -49.5q-24 -26 -57.5 -49t-66.5 -45q-5 -3 -6 -3.5l-1 -0.5l-1 -1t-8 -6 q17 -2 33.5 -2.5t30.5 -0.5q67 0 117.5 18.5t91 50t75 74t70.5 90.5q5 6 13.5 17.5t18.5 24t18.5 24t13.5 17.5q6 -37 7.5 -58.5t-0.5 -33.5q-4 -21 -20 -45l2 1q-45 -74 -90 -127t-95.5 -87t-108 -50.5t-126.5 -16.5q-31 0 -64.5 3.5t-69.5 9.5h1q-7 1 -14 1.5t-14 0.5 q-15 0 -30.5 1t-28 6t-19.5 17t-6 33zM-18 1243q-8 -24 1 -36.5t29 -10.5q17 1 27.5 6.5t17 14.5t11 19.5t9.5 21.5q4 9 5 18.5t-1.5 17.5t-9 12.5t-18.5 3.5q-32 -4 -47.5 -22t-23.5 -45z" />
<glyph unicode="&#xf70b;" d="M-225 1029q3 37 25.5 50.5t50.5 21.5h-1q11 4 20.5 7t14.5 7q15 10 29 17q-30 60 -18 118q17 76 99 126q20 11 43 18.5t44 7.5q38 0 67 -27q14 -15 15.5 -42t-4.5 -58q-7 -29 -20 -59.5t-31 -49.5q-24 -26 -57.5 -49t-66.5 -45q-5 -3 -6 -3.5l-1 -0.5l-1 -1t-8 -6 q17 -2 33.5 -2.5t30.5 -0.5q67 0 117.5 18.5t91 50t75 74t70.5 90.5q5 6 13.5 17.5t18.5 24t18.5 24t13.5 17.5q6 -37 7.5 -58.5t-0.5 -33.5q-4 -21 -20 -45l2 1q-45 -74 -90 -127t-95.5 -87t-108 -50.5t-126.5 -16.5q-31 0 -64.5 3.5t-69.5 9.5h1q-7 1 -14 1.5t-14 0.5 q-15 0 -30.5 1t-28 6t-19.5 17t-6 33zM-18 1243q-8 -24 1 -36.5t29 -10.5q17 1 27.5 6.5t17 14.5t11 19.5t9.5 21.5q4 9 5 18.5t-1.5 17.5t-9 12.5t-18.5 3.5q-32 -4 -47.5 -22t-23.5 -45z" />
<glyph unicode="&#x153;" d="M-180 1471q1 18 8 30t17.5 19.5t23 12t25.5 9.5h-1q11 4 20.5 6.5t14.5 6.5q13 9 30 18q-32 59 -18 116q15 75 97 124q20 12 42.5 19t43.5 7q37 0 67 -27q13 -14 15 -41t-4 -57q-6 -29 -19.5 -59.5t-30.5 -48.5q-24 -25 -58 -48t-66 -45q-5 -3 -6 -3.5l-1 -0.5l-1 -1 t-8 -6q17 -2 34 -2.5t31 -0.5q66 0 116 18t90 49t74 73t69 90q5 6 13.5 17.5t18 24t18 23.5t12.5 17q8 -36 9 -57.5t-1 -32.5q-2 -12 -7 -22.5t-11 -21.5h1q-44 -73 -89 -125.5t-94.5 -86.5t-106.5 -50t-125 -16q-32 0 -65 3.5t-68 9.5h1q-7 1 -14 1.5t-14 0.5 q-15 0 -30.5 1t-27.5 6t-19 17t-6 33zM20 1683q-8 -24 1.5 -36.5t29.5 -10.5q17 1 27.5 6.5t17.5 14.5t11 19.5t9 21.5q4 9 5 18.5t-1.5 17.5t-9 12.5t-18.5 3.5q-32 -4 -47.5 -22t-24.5 -45z" />
<glyph unicode="&#xf714;" d="M-180 1471q1 18 8 30t17.5 19.5t23 12t25.5 9.5h-1q11 4 20.5 6.5t14.5 6.5q13 9 30 18q-32 59 -18 116q15 75 97 124q20 12 42.5 19t43.5 7q37 0 67 -27q13 -14 15 -41t-4 -57q-6 -29 -19.5 -59.5t-30.5 -48.5q-24 -25 -58 -48t-66 -45q-5 -3 -6 -3.5l-1 -0.5l-1 -1 t-8 -6q17 -2 34 -2.5t31 -0.5q66 0 116 18t90 49t74 73t69 90q5 6 13.5 17.5t18 24t18 23.5t12.5 17q8 -36 9 -57.5t-1 -32.5q-2 -12 -7 -22.5t-11 -21.5h1q-44 -73 -89 -125.5t-94.5 -86.5t-106.5 -50t-125 -16q-32 0 -65 3.5t-68 9.5h1q-7 1 -14 1.5t-14 0.5 q-15 0 -30.5 1t-27.5 6t-19 17t-6 33zM20 1683q-8 -24 1.5 -36.5t29.5 -10.5q17 1 27.5 6.5t17.5 14.5t11 19.5t9 21.5q4 9 5 18.5t-1.5 17.5t-9 12.5t-18.5 3.5q-32 -4 -47.5 -22t-24.5 -45z" />
<glyph unicode="&#x160;" d="M-354.5 1120q1.5 11 3.5 22q13 58 55 102t94 82q55 37 102 37q23 0 43 -7.5t37 -19.5q18 -14 32 -14q11 0 21 10.5t21 28.5q52 78 118 142.5t150 110.5l12 6q10 6 21.5 11.5t24 8t26.5 0.5t31 -11q-11 -37 -27.5 -51.5t-33.5 -24.5q-3 -2 -6 -3.5t-6 -3.5l1 1 q-81 -53 -147 -114.5t-114 -147.5v1q-27 -48 -45.5 -69.5t-42.5 -21.5q-17 0 -34.5 10.5t-44.5 30.5q-12 10 -25.5 17.5t-27.5 7.5q-8 0 -19.5 -4.5t-21.5 -12.5q-32 -23 -59.5 -49t-34.5 -58q-2 -6 -2 -12v-12q2 -19 14 -27q3 0 6.5 3t6.5 6q2 3 4 6.5t4 6.5q22 32 48.5 50 t57.5 18q13 0 25 -3.5t26 -9.5q29 -17 41.5 -45.5t5.5 -60.5q-2 -12 -6.5 -25t-12.5 -24q-22 -35 -54.5 -56t-66.5 -21q-20 0 -39 8q-27 10 -54.5 23.5t-50.5 32t-38 43.5t-18 59q-2 12 -0.5 23zM-173 1046q-2 -12 3.5 -21.5t21.5 -8.5q18 4 31.5 12t16.5 28q4 17 -3.5 25.5 t-25.5 6.5q-19 -2 -30 -13.5t-14 -28.5z" />
<glyph unicode="&#xf709;" d="M-354.5 1120q1.5 11 3.5 22q13 58 55 102t94 82q55 37 102 37q23 0 43 -7.5t37 -19.5q18 -14 32 -14q11 0 21 10.5t21 28.5q52 78 118 142.5t150 110.5l12 6q10 6 21.5 11.5t24 8t26.5 0.5t31 -11q-11 -37 -27.5 -51.5t-33.5 -24.5q-3 -2 -6 -3.5t-6 -3.5l1 1 q-81 -53 -147 -114.5t-114 -147.5v1q-27 -48 -45.5 -69.5t-42.5 -21.5q-17 0 -34.5 10.5t-44.5 30.5q-12 10 -25.5 17.5t-27.5 7.5q-8 0 -19.5 -4.5t-21.5 -12.5q-32 -23 -59.5 -49t-34.5 -58q-2 -6 -2 -12v-12q2 -19 14 -27q3 0 6.5 3t6.5 6q2 3 4 6.5t4 6.5q22 32 48.5 50 t57.5 18q13 0 25 -3.5t26 -9.5q29 -17 41.5 -45.5t5.5 -60.5q-2 -12 -6.5 -25t-12.5 -24q-22 -35 -54.5 -56t-66.5 -21q-20 0 -39 8q-27 10 -54.5 23.5t-50.5 32t-38 43.5t-18 59q-2 12 -0.5 23zM-173 1046q-2 -12 3.5 -21.5t21.5 -8.5q18 4 31.5 12t16.5 28q4 17 -3.5 25.5 t-25.5 6.5q-19 -2 -30 -13.5t-14 -28.5z" />
<glyph unicode="&#x161;" d="M-515 1145q6 32 28 68l-1 -1q45 75 104.5 110.5t129.5 30.5q8 0 15 -0.5t15 -0.5q23 -1 46.5 -1t45.5 -2q14 -1 26.5 -1.5t22.5 -0.5q17 0 27.5 3.5t19 14t16.5 28.5t20 48q11 28 25.5 55t39 50.5t63 41t97.5 28.5q-46 -44 -76.5 -84t-50.5 -77.5t-32.5 -73t-22.5 -70.5 q-15 -49 -47 -65q8 -7 15 -17.5t12 -21.5q8 -18 8 -42.5t-6 -50.5q-6 -27 -17 -54t-26 -51t-34 -42.5t-40 -28.5q-14 -5 -27 -8.5t-25 -3.5q-31 0 -54 15.5t-43 33.5q-8 6 -12 10q-5 3 -7.5 10t-4.5 14q-1 2 -2 5t-2 5t-4 5.5t-4 5.5q-2 5 -5 8.5t-8 1.5l-1 -1 q-9 -5 -13 -15t-3 -20l1 -1q3 -8 5 -16.5t1 -16.5t-6 -16.5t-17 -17.5q-13 -8 -23 -10t-18 -1t-14 4.5t-12 7.5q-2 2 -4 2.5t-4 2.5q-19 16 -38 33t-39 37q-27 29 -37.5 62t-2.5 71zM-426 1139q-5 -21 7 -38.5t27 -33.5v1l3.5 -3.5t3.5 -2.5q9 11 19 20t22 20 q23 19 44.5 33.5t43.5 14.5q17 0 31 -13t21 -48v1q7 -23 22.5 -41t42.5 -21q12 -2 25 4t20 20l-1 -1q-8 -2 -15 -2t-12 3h2q-16 4 -31 10t-25.5 16t-14.5 25.5t1 38.5q8 32 26 60t47 45q-10 1 -20 1h-21h-50.5t-46.5 5q-15 3 -26 3q-44 0 -75.5 -25t-56.5 -63 q-10 -14 -13 -29zM-111 1145q-2 -12 6 -16t19 -2t20 6t11 21q-2 8 -7 13.5t-16 6.5q-14 0 -22.5 -7.5t-10.5 -21.5z" />
<glyph unicode="&#xf712;" d="M-515 1145q6 32 28 68l-1 -1q45 75 104.5 110.5t129.5 30.5q8 0 15 -0.5t15 -0.5q23 -1 46.5 -1t45.5 -2q14 -1 26.5 -1.5t22.5 -0.5q17 0 27.5 3.5t19 14t16.5 28.5t20 48q11 28 25.5 55t39 50.5t63 41t97.5 28.5q-46 -44 -76.5 -84t-50.5 -77.5t-32.5 -73t-22.5 -70.5 q-15 -49 -47 -65q8 -7 15 -17.5t12 -21.5q8 -18 8 -42.5t-6 -50.5q-6 -27 -17 -54t-26 -51t-34 -42.5t-40 -28.5q-14 -5 -27 -8.5t-25 -3.5q-31 0 -54 15.5t-43 33.5q-8 6 -12 10q-5 3 -7.5 10t-4.5 14q-1 2 -2 5t-2 5t-4 5.5t-4 5.5q-2 5 -5 8.5t-8 1.5l-1 -1 q-9 -5 -13 -15t-3 -20l1 -1q3 -8 5 -16.5t1 -16.5t-6 -16.5t-17 -17.5q-13 -8 -23 -10t-18 -1t-14 4.5t-12 7.5q-2 2 -4 2.5t-4 2.5q-19 16 -38 33t-39 37q-27 29 -37.5 62t-2.5 71zM-426 1139q-5 -21 7 -38.5t27 -33.5v1l3.5 -3.5t3.5 -2.5q9 11 19 20t22 20 q23 19 44.5 33.5t43.5 14.5q17 0 31 -13t21 -48v1q7 -23 22.5 -41t42.5 -21q12 -2 25 4t20 20l-1 -1q-8 -2 -15 -2t-12 3h2q-16 4 -31 10t-25.5 16t-14.5 25.5t1 38.5q8 32 26 60t47 45q-10 1 -20 1h-21h-50.5t-46.5 5q-15 3 -26 3q-44 0 -75.5 -25t-56.5 -63 q-10 -14 -13 -29zM-111 1145q-2 -12 6 -16t19 -2t20 6t11 21q-2 8 -7 13.5t-16 6.5q-14 0 -22.5 -7.5t-10.5 -21.5z" />
<glyph unicode="&#x178;" d="M-147.5 1538.5q1.5 11.5 3.5 21.5q6 29 20.5 54.5t34 48t43.5 42.5t50 39q27 20 53 28.5t49 8.5t43 -7t37 -20q10 -8 18.5 -11t14.5 -3q11 0 21 10.5t21 28.5q52 78 117.5 142.5t149.5 110.5q4 2 7.5 3.5t5.5 2.5q10 6 21.5 12t24 8.5t26.5 0t31 -11.5q-6 -18 -13 -30.5 t-15 -20.5t-16.5 -14t-17.5 -11q-2 -2 -5.5 -3.5t-5.5 -3.5l1 1q-81 -53 -147.5 -114.5t-114.5 -147.5l1 1q-27 -48 -46 -69.5t-44 -21.5q-17 0 -34 11t-44 31q-13 9 -26.5 16.5t-27.5 7.5q-19 0 -40 -16q-32 -24 -59 -49.5t-34 -57.5q-1 -6 -1.5 -12.5t-0.5 -12.5 q2 -19 14 -27q3 0 6.5 3t6.5 7q2 3 4 6.5t4 5.5q21 32 47.5 50t57.5 18q25 0 50 -13q30 -17 42.5 -45t5.5 -60q-5 -27 -19 -50q-22 -35 -54.5 -56t-66.5 -21q-20 0 -39 8q-27 10 -54.5 23.5t-50 32t-38 43.5t-17.5 60q-2 11 -0.5 22.5zM33 1464q-2 -12 3.5 -21.5t21.5 -8.5 q17 4 31 12t17 28q3 17 -4 25.5t-25 6.5q-19 -2 -30.5 -13.5t-13.5 -28.5z" />
<glyph unicode="&#xf717;" d="M-147.5 1538.5q1.5 11.5 3.5 21.5q6 29 20.5 54.5t34 48t43.5 42.5t50 39q27 20 53 28.5t49 8.5t43 -7t37 -20q10 -8 18.5 -11t14.5 -3q11 0 21 10.5t21 28.5q52 78 117.5 142.5t149.5 110.5q4 2 7.5 3.5t5.5 2.5q10 6 21.5 12t24 8.5t26.5 0t31 -11.5q-6 -18 -13 -30.5 t-15 -20.5t-16.5 -14t-17.5 -11q-2 -2 -5.5 -3.5t-5.5 -3.5l1 1q-81 -53 -147.5 -114.5t-114.5 -147.5l1 1q-27 -48 -46 -69.5t-44 -21.5q-17 0 -34 11t-44 31q-13 9 -26.5 16.5t-27.5 7.5q-19 0 -40 -16q-32 -24 -59 -49.5t-34 -57.5q-1 -6 -1.5 -12.5t-0.5 -12.5 q2 -19 14 -27q3 0 6.5 3t6.5 7q2 3 4 6.5t4 5.5q21 32 47.5 50t57.5 18q25 0 50 -13q30 -17 42.5 -45t5.5 -60q-5 -27 -19 -50q-22 -35 -54.5 -56t-66.5 -21q-20 0 -39 8q-27 10 -54.5 23.5t-50 32t-38 43.5t-17.5 60q-2 11 -0.5 22.5zM33 1464q-2 -12 3.5 -21.5t21.5 -8.5 q17 4 31 12t17 28q3 17 -4 25.5t-25 6.5q-19 -2 -30.5 -13.5t-13.5 -28.5z" />
<glyph unicode="&#x17d;" d="M-162 1164.5q-4 11.5 1 33.5q6 22 16 33.5t23 16t27 4t28 -1.5q5 -1 10 -1h10q17 -3 31.5 -5t22.5 -2q14 0 22.5 6.5t12.5 24.5q2 12 3 29.5t2 41.5q0 10 1.5 21.5t7.5 22t17.5 18t31.5 8.5q16 0 26.5 -5.5t16 -15t5.5 -22t-4 -24.5q-8 -20 -12.5 -35.5t-7.5 -27.5 q-4 -19 -2 -29t8 -14t15 -4h19h-1q10 1 18.5 1.5t18.5 -0.5h2q13 0 27 -1.5t24.5 -7.5t14 -18.5t-3.5 -34.5l1 1q-6 -19 -17.5 -28.5t-25 -13.5t-28 -3t-26.5 4q-30 8 -42 8q-14 0 -23 -14t-20 -50q-4 -14 -6 -36q-1 -5 -1 -11t-1 -12l-2 -14q-5 -23 -17.5 -39.5 t-41.5 -16.5q-32 1 -39.5 19.5t-2.5 41.5q2 13 6 22t7 19q3 6 5 12.5t4 11.5q1 7 5 16v-1q4 11 6 19t4 15q2 10 -3.5 15t-26.5 5q-14 0 -38 -3h1q-10 -4 -24 1h1q-5 1 -11 1.5t-13 -0.5q-14 -1 -27 -1t-22 4.5t-13 16z" />
<glyph unicode="&#xf70d;" d="M-162 1164.5q-4 11.5 1 33.5q6 22 16 33.5t23 16t27 4t28 -1.5q5 -1 10 -1h10q17 -3 31.5 -5t22.5 -2q14 0 22.5 6.5t12.5 24.5q2 12 3 29.5t2 41.5q0 10 1.5 21.5t7.5 22t17.5 18t31.5 8.5q16 0 26.5 -5.5t16 -15t5.5 -22t-4 -24.5q-8 -20 -12.5 -35.5t-7.5 -27.5 q-4 -19 -2 -29t8 -14t15 -4h19h-1q10 1 18.5 1.5t18.5 -0.5h2q13 0 27 -1.5t24.5 -7.5t14 -18.5t-3.5 -34.5l1 1q-6 -19 -17.5 -28.5t-25 -13.5t-28 -3t-26.5 4q-30 8 -42 8q-14 0 -23 -14t-20 -50q-4 -14 -6 -36q-1 -5 -1 -11t-1 -12l-2 -14q-5 -23 -17.5 -39.5 t-41.5 -16.5q-32 1 -39.5 19.5t-2.5 41.5q2 13 6 22t7 19q3 6 5 12.5t4 11.5q1 7 5 16v-1q4 11 6 19t4 15q2 10 -3.5 15t-26.5 5q-14 0 -38 -3h1q-10 -4 -24 1h1q-5 1 -11 1.5t-13 -0.5q-14 -1 -27 -1t-22 4.5t-13 16z" />
<glyph unicode="&#x17e;" d="M-141.5 1614q-3.5 11 1.5 33q6 22 15.5 33.5t22 16t27 4t28.5 -1.5q4 -1 9 -1h10q18 -3 31.5 -5t23.5 -2q14 0 21 6.5t12 24.5q2 11 3.5 28.5t1.5 41.5q0 9 1.5 20.5t7.5 21.5t17 17.5t31 8.5q33 1 42.5 -19.5t1.5 -45.5q-15 -39 -19 -63q-4 -19 -2.5 -29t7.5 -14 t14.5 -4t19.5 1h-1q9 1 17.5 1.5t18.5 -0.5h2q13 0 27 -1.5t24.5 -7.5t14 -18t-3.5 -34q-6 -19 -17.5 -28.5t-24.5 -13t-27 -2.5t-26 4q-30 8 -42 8q-14 0 -22.5 -14t-19.5 -50q-4 -13 -6 -35q-1 -5 -1.5 -11t-1.5 -12l-2 -14q-5 -23 -17 -39t-40 -16q-33 2 -40.5 19.5 t-2.5 40.5q3 13 6 22t7 18q3 7 5 13t4 11q2 4 2.5 8t1.5 8v-1q4 11 6.5 19t3.5 14q2 11 -2.5 16t-25.5 5q-13 0 -38 -3h2q-10 -3 -25 1h1q-5 1 -10.5 1.5t-12.5 -0.5q-14 -1 -27 -1t-22 4.5t-12.5 15.5z" />
<glyph unicode="&#xf716;" d="M-141.5 1614q-3.5 11 1.5 33q6 22 15.5 33.5t22 16t27 4t28.5 -1.5q4 -1 9 -1h10q18 -3 31.5 -5t23.5 -2q14 0 21 6.5t12 24.5q2 11 3.5 28.5t1.5 41.5q0 9 1.5 20.5t7.5 21.5t17 17.5t31 8.5q33 1 42.5 -19.5t1.5 -45.5q-15 -39 -19 -63q-4 -19 -2.5 -29t7.5 -14 t14.5 -4t19.5 1h-1q9 1 17.5 1.5t18.5 -0.5h2q13 0 27 -1.5t24.5 -7.5t14 -18t-3.5 -34q-6 -19 -17.5 -28.5t-24.5 -13t-27 -2.5t-26 4q-30 8 -42 8q-14 0 -22.5 -14t-19.5 -50q-4 -13 -6 -35q-1 -5 -1.5 -11t-1.5 -12l-2 -14q-5 -23 -17 -39t-40 -16q-33 2 -40.5 19.5 t-2.5 40.5q3 13 6 22t7 18q3 7 5 13t4 11q2 4 2.5 8t1.5 8v-1q4 11 6.5 19t3.5 14q2 11 -2.5 16t-25.5 5q-13 0 -38 -3h2q-10 -3 -25 1h1q-5 1 -10.5 1.5t-12.5 -0.5q-14 -1 -27 -1t-22 4.5t-12.5 15.5z" />
<glyph unicode="&#x192;" d="M-717 1141q7 21 30 38q26 18 49 36.5t44 36.5q27 23 55.5 46t61.5 45q31 18 62 18q17 0 34 -5t31 -13q2 -1 3.5 -1.5t2.5 -1.5q23 -12 45 -25t43 -28q20 -14 39 -25t38 -11q16 0 33 12t39 41q16 23 36.5 32t42.5 9q14 0 27 -3.5t23 -11.5q43 -27 64 -70t9 -112 q-3 -23 -19 -47t-42 -47q-8 -8 -17 -15t-17 -14q-22 -19 -43.5 -40t-34.5 -49q-9 -21 -31.5 -33.5t-41.5 -14.5q-17 -2 -26 0.5t-14 7.5t-7 12t-3 15l-1 9l-1 -1q-6 41 -35 78t-71 65.5t-93 45t-102 16.5q-23 0 -47 -4.5t-44 -12.5q-5 -3 -12 -7t-12 -6q-7 -3 -13 -6l-12 -6 q-9 -4 -18.5 -7.5t-18.5 -4t-17 3.5t-14 14q-12 20 -5 41zM-538 1211q24 7 59.5 3t75 -14.5t80 -26.5t75 -33t59 -33.5t32.5 -29.5q-10 18 -31 38t-47.5 39t-55 36t-54.5 29.5t-46.5 20t-29.5 7.5q-5 0 -22.5 -5t-37.5 -11t-37 -11.5t-20 -8.5zM-97 1199q-3 -16 8 -40v-2v1 q5 -16 16 -30q6 -7 8.5 -13.5t6.5 -12.5q3 -7 5 -12t4 -4q13 3 18.5 15.5t10.5 26.5q2 4 3.5 8.5t3.5 8.5l-1 -2q13 35 1 55q-1 2 -3 7l-4 10v-1q-5 11 -10 20t-12 9q-8 0 -21 -7q-29 -14 -34 -37z" />
<glyph unicode="&#xf703;" d="M-717 1141q7 21 30 38q26 18 49 36.5t44 36.5q27 23 55.5 46t61.5 45q31 18 62 18q17 0 34 -5t31 -13q2 -1 3.5 -1.5t2.5 -1.5q23 -12 45 -25t43 -28q20 -14 39 -25t38 -11q16 0 33 12t39 41q16 23 36.5 32t42.5 9q14 0 27 -3.5t23 -11.5q43 -27 64 -70t9 -112 q-3 -23 -19 -47t-42 -47q-8 -8 -17 -15t-17 -14q-22 -19 -43.5 -40t-34.5 -49q-9 -21 -31.5 -33.5t-41.5 -14.5q-17 -2 -26 0.5t-14 7.5t-7 12t-3 15l-1 9l-1 -1q-6 41 -35 78t-71 65.5t-93 45t-102 16.5q-23 0 -47 -4.5t-44 -12.5q-5 -3 -12 -7t-12 -6q-7 -3 -13 -6l-12 -6 q-9 -4 -18.5 -7.5t-18.5 -4t-17 3.5t-14 14q-12 20 -5 41zM-538 1211q24 7 59.5 3t75 -14.5t80 -26.5t75 -33t59 -33.5t32.5 -29.5q-10 18 -31 38t-47.5 39t-55 36t-54.5 29.5t-46.5 20t-29.5 7.5q-5 0 -22.5 -5t-37.5 -11t-37 -11.5t-20 -8.5zM-97 1199q-3 -16 8 -40v-2v1 q5 -16 16 -30q6 -7 8.5 -13.5t6.5 -12.5q3 -7 5 -12t4 -4q13 3 18.5 15.5t10.5 26.5q2 4 3.5 8.5t3.5 8.5l-1 -2q13 35 1 55q-1 2 -3 7l-4 10v-1q-5 11 -10 20t-12 9q-8 0 -21 -7q-29 -14 -34 -37z" />
<glyph unicode="&#x2c6;" d="M-506 1139q10 47 42.5 90.5t86.5 75.5l-1 -1q41 26 78 26q45 0 77 -39q2 -2 3.5 -5t3.5 -6q1 -4 3 -6t4 -3q22 17 46.5 32t50.5 15q23 0 45 -14q9 -7 14.5 -22.5t8.5 -36.5q15 66 35 139t55 154q21 -14 29.5 -30.5t10 -33t-1.5 -32t-6 -25.5l-1 -3q-6 -35 -11.5 -65.5 t-11.5 -60.5q-6 -34 -13.5 -71t-16.5 -87q-2 -12 -5 -25.5l-5 -22.5q-6 -33 -15 -56.5t-23.5 -39.5t-37 -25.5t-56.5 -14.5l1 1q-2 -1 -6.5 -2t-8.5 -2q-18 -5 -35.5 -3t-25.5 23q-8 23 1.5 35.5t22.5 23.5l11 11q28 31 34 59q4 17 2.5 36t-3.5 39l-1 -1q-1 8 -1 15.5 t-2 15.5q-1 5 -2.5 9t-6.5 3q-8 -1 -24 -14t-31 -29.5t-25.5 -33t-7.5 -23.5q10 -34 4 -65q-9 -47 -57 -77q-43 -28 -88 -28q-40 0 -71 22h1q-47 33 -63.5 80t-5.5 98zM-395 1159q17 16 38 25.5t46 5.5q16 -3 18 -5q8 -5 12 -3q2 5 -0.5 9.5t-5.5 10.5q-2 4 -3.5 7.5 t-3.5 7.5q-3 10 -9 15.5t-18 2.5h1q-21 -6 -42 -28t-33 -48zM-386 1072q-3 -20 6.5 -32.5t27.5 -17.5q12 -4 23.5 5t19.5 25q1 17 -4 32t-25 17q-17 3 -30.5 -4.5t-17.5 -24.5z" />
<glyph unicode="&#xf707;" d="M-506 1139q10 47 42.5 90.5t86.5 75.5l-1 -1q41 26 78 26q45 0 77 -39q2 -2 3.5 -5t3.5 -6q1 -4 3 -6t4 -3q22 17 46.5 32t50.5 15q23 0 45 -14q9 -7 14.5 -22.5t8.5 -36.5q15 66 35 139t55 154q21 -14 29.5 -30.5t10 -33t-1.5 -32t-6 -25.5l-1 -3q-6 -35 -11.5 -65.5 t-11.5 -60.5q-6 -34 -13.5 -71t-16.5 -87q-2 -12 -5 -25.5l-5 -22.5q-6 -33 -15 -56.5t-23.5 -39.5t-37 -25.5t-56.5 -14.5l1 1q-2 -1 -6.5 -2t-8.5 -2q-18 -5 -35.5 -3t-25.5 23q-8 23 1.5 35.5t22.5 23.5l11 11q28 31 34 59q4 17 2.5 36t-3.5 39l-1 -1q-1 8 -1 15.5 t-2 15.5q-1 5 -2.5 9t-6.5 3q-8 -1 -24 -14t-31 -29.5t-25.5 -33t-7.5 -23.5q10 -34 4 -65q-9 -47 -57 -77q-43 -28 -88 -28q-40 0 -71 22h1q-47 33 -63.5 80t-5.5 98zM-395 1159q17 16 38 25.5t46 5.5q16 -3 18 -5q8 -5 12 -3q2 5 -0.5 9.5t-5.5 10.5q-2 4 -3.5 7.5 t-3.5 7.5q-3 10 -9 15.5t-18 2.5h1q-21 -6 -42 -28t-33 -48zM-386 1072q-3 -20 6.5 -32.5t27.5 -17.5q12 -4 23.5 5t19.5 25q1 17 -4 32t-25 17q-17 3 -30.5 -4.5t-17.5 -24.5z" />
<glyph unicode="&#x2dc;" d="M-223 1115q-3 23 2 47q7 29 23 54t45 45q19 13 40 22.5t43 9.5q14 0 28.5 -5.5t26.5 -18.5q24 -23 34.5 -52.5t3.5 -62.5q-2 -11 -7.5 -23.5t-13.5 -26.5q-7 -12 -11 -20.5t-6 -16.5q-2 -13 13 -14.5t35 0.5q70 8 126.5 48t101.5 99l-2 -1q7 9 13 17t13 17q9 13 19.5 27 t25.5 31t36.5 37t52.5 45q-25 -97 -69.5 -174.5t-101 -131.5t-121 -82.5t-128.5 -28.5q-34 0 -69 8t-67 22q-42 19 -62.5 51.5t-23.5 77.5zM-136 1145q-2 -18 6 -31.5t31 -12.5q18 1 27 17.5t14 29.5q4 18 -3.5 34t-25.5 18q-9 1 -17.5 -4.5t-15.5 -13.5t-11 -18t-5 -19z " />
<glyph unicode="&#xf710;" d="M-223 1115q-3 23 2 47q7 29 23 54t45 45q19 13 40 22.5t43 9.5q14 0 28.5 -5.5t26.5 -18.5q24 -23 34.5 -52.5t3.5 -62.5q-2 -11 -7.5 -23.5t-13.5 -26.5q-7 -12 -11 -20.5t-6 -16.5q-2 -13 13 -14.5t35 0.5q70 8 126.5 48t101.5 99l-2 -1q7 9 13 17t13 17q9 13 19.5 27 t25.5 31t36.5 37t52.5 45q-25 -97 -69.5 -174.5t-101 -131.5t-121 -82.5t-128.5 -28.5q-34 0 -69 8t-67 22q-42 19 -62.5 51.5t-23.5 77.5zM-136 1145q-2 -18 6 -31.5t31 -12.5q18 1 27 17.5t14 29.5q4 18 -3.5 34t-25.5 18q-9 1 -17.5 -4.5t-15.5 -13.5t-11 -18t-5 -19z " />
<glyph unicode="&#xe01;" horiz-adv-x="719" d="M106 24q1 6 4 14t5 16q2 7 4 14.5t3 9.5q5 49 12.5 98.5t18.5 99.5q7 30 14.5 61t16.5 60q1 3 2 6.5t2 6.5q6 21 12 40.5t15.5 38t23.5 35t35 31.5q-5 2 -10 2t-10 -1h1q-5 -1 -9.5 -2t-9.5 -3l-22 -6t-20.5 -2t-17 7.5t-11.5 22.5q-3 12 -1 22t7.5 18t13.5 15.5t16 14.5 q5 4 9 7t6 5q40 42 72.5 74t61.5 53.5t55.5 32t53.5 10.5q38 0 82.5 -19t109.5 -53h-1q28 -15 48 -31t32 -37t16 -48.5t-1 -64.5q-5 -39 -11 -75.5t-14 -71.5q-8 -34 -15.5 -67.5t-15.5 -65.5q-9 -33 -16.5 -65.5t-15.5 -67.5q-6 -29 -11 -59t-10 -62q-3 -12 -8.5 -24 t-14.5 -22t-21 -15.5t-27 -4.5q-18 2 -26 7.5t-9 14t2.5 18t8.5 20.5v-1q2 5 3 8.5t2 5.5q14 63 26 116t23.5 105t23.5 105t26 116q13 63 -7 110t-73 71q-11 5 -25 10.5t-26 11.5t-23.5 11t-24.5 10q-9 4 -24 4q-16 0 -34 -5.5t-34 -14.5t-29 -21t-20 -26l1 1q-2 -6 2.5 -9 t9.5 -5q10 -1 23 -8h-1q30 -19 44.5 -32t10.5 -31q-3 -16 -20.5 -30t-50.5 -34v1q-21 -13 -35.5 -28.5t-22.5 -39.5q-14 -37 -24 -72.5t-18 -70.5q-10 -48 -17 -98.5t-13 -104.5v-11q-1 -4 0.5 0t2 4.5t-0.5 -7t-7 -35.5q-5 -24 -18.5 -42t-42.5 -21q-29 -2 -38 12.5 t-4 36.5z" />
<glyph unicode="&#xe02;" horiz-adv-x="672" d="M128 489q-6 22 0 50q8 36 35 81t62 85.5t73.5 69.5t69.5 33q53 -1 97 -29t70 -69q21 -35 31.5 -59.5t5.5 -47.5t-27 -48.5t-60 -58.5q-50 -45 -77.5 -88.5t-37.5 -91.5q-6 -26 -8 -57q-1 -6 -1.5 -14.5t-1.5 -16.5q-2 -17 -2.5 -32.5t-0.5 -25.5v1q1 -10 1 -17v-13v1 q0 -19 1 -33.5t5 -14.5q5 0 16 6.5t30 22.5q9 8 22.5 9.5t22.5 -2.5q14 -7 24.5 -9.5t18.5 -2.5q11 0 16 22q-1 1 1.5 14.5t3.5 20.5q0 5 1 10t1 9v1q12 89 30 175q11 54 24 106t27 105q10 40 20.5 84.5t21.5 87.5q2 12 5.5 24.5t10.5 22.5t18.5 16t29.5 5q14 0 22.5 -7 t12 -17.5t3.5 -22.5t-2 -23q-29 -108 -55 -210.5t-48 -204.5q-14 -63 -25.5 -126t-22.5 -129q-5 -19 -16.5 -42.5t-22.5 -38.5v1q-13 -20 -31 -33t-34 -13q-13 0 -23 8.5t-14 28.5q-3 20 -8.5 28.5t-11.5 8.5q-8 0 -24 -9.5t-33 -20.5q-29 -20 -50 -32t-36 -12 q-23 0 -27.5 24t-2.5 69q1 22 2 42t0 40q0 42 2 82.5t12 86.5q5 21 12 45t15 46q7 15 14.5 30.5t17.5 31.5q-14 -12 -30 -21.5t-35 -13.5q-15 -3 -35 -3q-40 0 -67.5 18t-37.5 57zM212 525q-2 -20 7 -23.5t27 -4.5h16t12 2.5t9.5 8.5t8.5 17q0 10 -2 15t-7 6.5t-11.5 1.5 h-15.5t-16 0.5t-13 -1t-10 -6.5t-5 -16zM273 627h8.5t9.5 -1q5 -2 10 -3t10 -3l-1 1q16 -4 31 -8.5t26 -13.5t15.5 -24t-1.5 -40q-2 -7 -3.5 -13t-4.5 -13q11 15 25 28t28 24q34 25 37 42q2 13 -8 27.5t-22 28.5q-17 17 -33.5 31t-34.5 14q-10 0 -21.5 -6t-28.5 -22 q-8 -9 -15 -17q-6 -7 -12 -14.5t-11 -12.5q-3 -4 -1 -1.5t-3 -3.5z" />
<glyph unicode="&#xe03;" horiz-adv-x="700" d="M137 595q-1 14 2 30q7 30 26.5 56t49.5 49l-1 -1q102 81 177 81q38 0 67 -20v1q2 -2 7 -6.5t10 -7.5q2 -5 9 2q19 18 39.5 32.5t42.5 14.5q11 0 22.5 -6.5t19.5 -17.5q2 -7 5 -9q9 -13 18 -26.5t15 -28t8.5 -31t-1.5 -34.5q-2 -11 -7 -21.5t-10 -21.5q-14 -22 -32 -44 t-45 -38v-1q-39 -23 -65 -46t-42.5 -47t-25.5 -50t-15 -55q-3 -14 -6 -29t-5 -32q-2 -8 -3 -15.5t-3 -16.5q-3 -20 -6.5 -41t-6.5 -37q-5 -34 -8.5 -52.5t-4.5 -18.5q9 0 60 42q16 14 30.5 17t28 -1.5t26.5 -14.5t26 -22l127 601q1 1 1 5.5t1 9.5q1 14 3.5 28t9.5 25 t19.5 17.5t34.5 5.5t31.5 -8t11 -18.5t-2.5 -25t-8 -28.5q-5 -11 -6 -18q-22 -89 -41 -166.5t-35 -155.5q-14 -63 -25.5 -128.5t-22.5 -138.5v1q-5 -42 -24.5 -71t-50.5 -54q-17 -14 -33 -24t-32 -10q-17 0 -27.5 12t-11.5 42q-3 24 -7 24q-5 0 -13.5 -5t-19.5 -12h1 q-13 -11 -26.5 -20.5t-25.5 -19.5q-17 -12 -33.5 -19t-26.5 -7q-26 0 -34.5 21t-4.5 51q1 5 2 11.5t1 11.5q7 45 13 84t12.5 77.5t14 78.5t16.5 87q5 30 16.5 58t31.5 53q-22 -14 -58 -20q-11 -2 -23 -3t-23 -1q-46 0 -80.5 19t-48.5 67q-4 16 -5 30zM262 592q-2 -20 4 -25 t26 -3q8 0 14 -1t10.5 -0.5t8 4t6.5 13.5q6 24 -3 29t-32 5q-8 0 -13.5 0.5t-9.5 -1t-7 -6.5t-4 -15zM300 684h12q47 0 73 -16q2 22 -4 32.5t-17 10.5q-12 0 -28 -6.5t-36 -20.5zM404 535q11 11 23 20t26 18q8 4 19.5 14t24.5 21l11 9q16 14 30 29.5t17 29.5q4 13 -12 24h-1 q-11 7 -21 -4t-18 -24q-3 -6 -6.5 -11.5t-9.5 -13.5q-14 -17 -27 -28t-33 -11h-10q0 -6 1 -10q-1 -9 -1.5 -17t-2.5 -18q-3 -15 -10 -28z" />
<glyph unicode="&#xe04;" horiz-adv-x="678" d="M92 -21.5q-1 10.5 2.5 22t7.5 20.5q21 43 30 84q11 51 4.5 100t-19.5 104q-2 9 -3.5 18.5t-3.5 18.5q-10 44 2 97q11 51 41 103t68 96q28 31 58.5 58t62.5 52q12 9 24.5 18.5t23.5 19.5q20 15 39.5 25.5t42.5 8.5q21 -3 42.5 -6t41.5 -7q33 -5 66.5 -10t65.5 -8 q24 -2 36.5 -9.5t17.5 -19.5t3.5 -27t-6.5 -32q-13 -44 -23 -87t-19 -85q-10 -44 -17.5 -85t-15.5 -84q-8 -45 -16.5 -90.5t-18.5 -91.5q-6 -29 -13 -59.5t-15 -59.5q-5 -14 -6 -24q-1 -2 -2 -5.5t-2 -7.5q-4 -13 -8.5 -26t-12.5 -23.5t-20 -16t-30 -3.5q-17 1 -23.5 7.5 t-7.5 15.5t2.5 20.5t7.5 23.5q2 5 2.5 8.5t1.5 6.5q11 54 22 106.5t22 104.5q9 45 19.5 95.5t21 102t21 102.5t20.5 98q5 25 -0.5 40t-36.5 11q-19 -2 -36.5 1t-34.5 8q-12 3 -23 6t-25 3q-12 0 -25 -5t-29 -16q-36 -28 -72 -57.5t-65.5 -62.5t-49 -69t-23.5 -78 q-3 -25 -3.5 -44t1 -35.5t5.5 -31.5t10 -33q22 41 40 75.5t36 68.5q10 22 23 40.5t29 32.5t35 22t43 8q5 0 13 -1.5t18 -3.5q43 -12 52 -39t2 -59q-2 -10 -5.5 -21t-6.5 -19q0 -2 -1.5 -6.5t-2.5 -6.5q-8 -21 -21 -41.5t-30.5 -36t-38 -25t-42.5 -9.5q-8 0 -17 1t-17 4 q-8 2 -14 4t-11 2t-8.5 -7t-7.5 -17q-1 -2 -2 -5t-1 -5q-14 -34 -26.5 -63t-24.5 -56q-24 -53 -47 -116q-2 -2 -4 -6q-9 -20 -22 -35t-40 -13q-17 1 -23.5 8.5t-7.5 18zM355.5 362q3.5 -11 20.5 -9q14 3 22 10.5t14 17t10.5 20.5t10.5 20q4 14 1 22.5t-17 3.5 q-25 -5 -37 -23t-21 -37q-7 -14 -3.5 -25z" />
<glyph unicode="&#xe05;" horiz-adv-x="726" d="M102.5 -7.5q-5.5 19.5 5.5 43.5v-2q4 11 6.5 22t4.5 21q10 47 7 90t-10 86q-4 28 -7 55.5t-4 56.5q1 16 2.5 34.5t6.5 38.5q10 51 34.5 105t58.5 103.5t75.5 91.5t86.5 68q18 11 34 17.5t33 6.5t31 -8.5t24 -29.5q10 -19 20 -19q12 0 35 23q45 45 93 45q15 0 29.5 -4.5 t27.5 -15.5q6 -5 12 -9t14 -8q13 -9 25.5 -19t21 -23.5t11.5 -31.5t-1 -41q-17 -64 -31.5 -127.5t-28.5 -124.5q-20 -98 -38 -194t-35 -200q-2 -12 -5.5 -26t-11 -25.5t-20.5 -18t-35 -4.5h1q-19 1 -27 7.5t-10 16t0 21t5 23.5l3 11q12 60 24.5 115.5t25.5 110.5 q16 72 34 158t35 164q1 5 2 8t3 8q2 11 4 20.5t6 17.5l-1 -2q11 31 -4.5 50t-37.5 34q-14 8 -26.5 0.5t-23.5 -18.5v1q-6 -8 -17 -15l-9 -8q-20 -17 -43 -32t-42 -15q-17 0 -32 15t-26 45q-3 12 -10 12q-10 0 -22.5 -8t-22.5 -17v1q-62 -56 -104 -122t-53 -138v1 q-6 -45 -5 -91t11 -99q17 35 31.5 64t29.5 56q2 5 4.5 9t5.5 9q11 22 23 44.5t28 42.5q4 4 8 9.5t8 10.5q13 16 26.5 31.5t28.5 28t32.5 20t37.5 7.5q8 0 16.5 -0.5t16.5 -4.5h-1q34 -12 41.5 -37t0.5 -55q-4 -20 -10.5 -37t-12.5 -32q-11 -25 -23.5 -50.5t-31 -45.5 t-44.5 -31t-63 -6h1q-23 3 -35.5 -5t-21.5 -29q-15 -33 -31 -64l-32 -62q-12 -23 -23.5 -47.5t-24.5 -50.5q-2 -3 -4 -9v1q-4 -8 -7.5 -15.5t-9 -13t-13.5 -8.5t-21 -2q-34 1 -39.5 20.5zM375 390.5q0 -8.5 2.5 -15.5t7 -11.5t12.5 -3.5q16 1 26.5 9t18 18.5t13 23 t11.5 23.5q6 14 1.5 25t-20.5 13q-26 -10 -44.5 -25t-25.5 -41q-2 -7 -2 -15.5z" />
<glyph unicode="&#xe06;" horiz-adv-x="909" d="M141 657q10 46 62 104q60 68 119 68q43 0 81 -44q18 -21 31 -21q12 0 36 21q26 22 50.5 35t50.5 13q20 0 38 -10.5t32 -32.5q16 -23 26.5 -48.5t5.5 -51.5q-5 -20 -19.5 -40t-43.5 -42q-14 -11 -23 -20.5t-15.5 -22t-12 -31t-12.5 -48.5q22 12 39 12q29 0 41.5 -21.5 t22.5 -50.5q20 -57 45.5 -114t56.5 -117q2 8 3.5 13.5t2.5 12.5q3 11 4 20.5t3 20.5q2 17 5.5 34t8.5 34l-1 -1q7 21 11 38.5t9 40.5q3 13 4 22.5t3 17.5q0 5 2.5 18.5t4.5 19.5q6 32 14 70.5t15 70.5q5 25 10.5 51.5t12.5 52.5q3 13 9 26.5t15.5 24t22.5 16.5t30 5 q18 0 26.5 -7t10 -16.5t-1.5 -21.5t-7 -23q0 -1 -1 -2t-1 -2l-1 -2q-10 -32 -18 -61t-14 -58q-5 -21 -8 -41t-7 -41q-5 -23 -9 -46.5t-9 -48.5q-2 -11 -5 -22.5t-6 -22.5q-10 -40 -18.5 -77t-15.5 -69q-9 -41 -17 -82t-16 -93q-4 -22 -16.5 -35t-26.5 -26q-4 -3 -8.5 -7 t-7.5 -7q-17 -18 -29.5 -23t-32.5 3q-17 9 -20.5 29t12.5 37q7 7 7.5 16.5t-3.5 20.5t-11.5 23t-15.5 25q-12 18 -23.5 38t-18.5 41q-4 14 -12 31.5t-17 36.5q-8 15 -14.5 29.5t-13.5 34.5l1 -1q-1 2 -1 4t-0.5 4t-0.5 4q-3 9 -7.5 17.5t-9.5 8.5q-16 -5 -30 -19t-20 -33 q-11 -48 -23 -103.5t-23 -103.5l-16 -78q-10 -31 -31 -45.5t-44 -14.5q-17 0 -31.5 6t-27.5 17l1 -1q-53 41 -74.5 80t-12.5 83q8 38 40.5 77t89.5 84q36 29 59.5 60t28.5 76v-1q2 10 4 19.5t4 19.5q11 51 34.5 98.5t75.5 88.5q9 7 11 14q2 5 -1.5 10.5t-8.5 13.5 q-5 10 -10 10t-11.5 -5t-14.5 -10q-6 -5 -13.5 -10t-13.5 -10h1q-23 -18 -47.5 -35t-55.5 -26q9 -15 15.5 -31.5t2.5 -36.5q-4 -15 -14.5 -30t-33.5 -29q-46 -29 -88 -29q-51 0 -91 48q-28 38 -39.5 69.5t-4.5 62.5zM238 653q-3 -20 8 -25q5 -2 7 1t5 10q2 2 2 2.5t2 3.5 l-2 -1q7 16 23.5 27.5t36.5 16.5q6 2 10.5 2h9.5q2 0 4 3q-4 11 -13.5 22.5t-22.5 15.5q-21 -8 -32.5 -16.5t-22.5 -27.5q-5 -9 -9 -17.5t-6 -16.5zM286 562q5 -8 19.5 -9t25.5 9q5 5 5.5 17t-4.5 20q-6 9 -13.5 7t-14.5 -8q-10 -7 -18 -17.5t0 -18.5zM314.5 140.5 q4.5 -9.5 11.5 -18.5q5 -5 9 -9.5t6 -9.5v1q2 -5 5.5 -10t6.5 -3q6 4 7 11t2 15q1 5 2 11t2 11l22 101q-24 -20 -39.5 -39t-30.5 -40v1q-8 -12 -3.5 -21.5z" />
<glyph unicode="&#xe07;" horiz-adv-x="592" d="M134 539q1 32 16 46.5t37 14.5q14 0 30 -8t27 -22q30 -38 54 -96.5t46 -120.5q20 -60 42 -117t52 -97q3 7 4.5 14t3.5 14q2 12 3.5 24.5t3.5 25.5q2 15 3.5 30t6.5 31q5 19 6 28.5t1 17.5v-1q1 8 3.5 21.5t7.5 33.5q3 11 5.5 22.5t4.5 21.5q5 23 6.5 44t-4.5 38.5t-20 31 t-41 22.5q-29 10 -36.5 30.5t-2.5 45.5q3 14 9 28t14 28q15 26 44 53t60 47t58.5 29t40.5 0q27 -26 34 -62t-2 -78q-2 -10 -4.5 -19t-5.5 -17q-17 -55 -29.5 -103.5t-22.5 -93.5q-8 -35 -14 -68.5t-12 -68.5q-6 -37 -14 -76.5t-17 -82.5l-13 -61q-2 -11 -4 -20.5t-6 -19.5 q-2 -2 -2 -4.5t-1 -4.5q-7 -19 -18 -35.5t-40 -24.5q-15 -4 -25.5 -2t-18 8t-12.5 14.5t-10 17.5h-1q-11 26 -22.5 51.5t-24.5 50.5q-25 52 -48.5 104t-43.5 109q-20 55 -45.5 106t-62.5 100zM485 660q-10 -27 4 -40.5t36 -13.5q16 0 23.5 6t10.5 15t3.5 19t3.5 19q3 8 6 18 t3 18t-5 13t-20 4q-23 -1 -40 -18.5t-25 -39.5z" />
<glyph unicode="&#xe08;" horiz-adv-x="653" d="M119 474q8 56 31.5 109t56 97.5t72 77.5t79.5 48q33 11 73 11q36 0 78 -8t79.5 -21.5t67.5 -31t42 -37.5q21 -31 4 -70q-29 -69 -45.5 -128.5t-29.5 -117.5q-5 -24 -9.5 -48t-9.5 -50q-5 -27 -10 -55.5t-12 -57.5q-3 -14 -6 -27.5t-6 -27.5q-14 -56 -48.5 -92.5 t-83.5 -62.5q-42 -21 -63 -8.5t-3 57.5q5 10 7.5 19t4.5 17q7 32 4 65t-8 65q-3 23 -5.5 44.5t-2.5 43.5q-1 8 -7.5 10t-16.5 0q-2 0 -4.5 -0.5t-5.5 -0.5q-68 -5 -104 24t-31 83q3 27 18 54.5t37.5 51.5t50 41.5t55.5 23.5q30 7 49 2.5t30 -17t15.5 -31.5t6.5 -42 q4 -74 7 -149t8 -149q8 38 17 76l18 76q12 50 24 99.5t22 98.5l4 14q2 7 5 15t6 15q5 12 9 24t6 22q5 21 -4 39.5t-46 29.5h1q-32 9 -60.5 14.5t-54.5 5.5q-49 0 -88.5 -19.5t-77.5 -63.5l-8 -8q-26 -29 -51.5 -63t-48.5 -89zM301 400q2 -16 18 -24t33 3q19 12 26 25t8 27.5 t-2.5 29t-6.5 29.5q-15 -9 -30 -17t-26.5 -17.5t-17.5 -23t-2 -32.5z" />
<glyph unicode="&#xe09;" horiz-adv-x="725" d="M157 652q43 51 81 87t74 59t72.5 34t75.5 11q29 0 61 -5.5t69 -16.5q54 -16 90.5 -29t58 -29.5t30 -39t7.5 -56.5t-10.5 -82.5t-23.5 -116.5q-8 -36 -14 -72t-7.5 -71t3.5 -68.5t20 -64.5q6 -12 9 -29t-1 -34t-15 -36l-8 -14q-11 -18 -24 -37t-29 -35t-36 -26t-45 -10 q-20 0 -29.5 9.5t-15 23.5t-9 30t-10.5 29q-30 56 -19 115q12 52 54 101q-34 -28 -63 -60.5t-56 -68t-53 -71t-53 -69.5q-13 -15 -27.5 -27.5t-33.5 -12.5t-29 7t-13.5 17.5t-3 22.5t2.5 21l-1 -1q4 41 10.5 82t15.5 84q7 32 15.5 65t15.5 65q6 27 0 48.5t-41 30.5t-57 37.5 t-13 71.5q7 34 27 61t47 45.5t57.5 28.5t59.5 10q34 0 53.5 -18.5t14.5 -69.5l1 1q-1 -26 -9 -58q-11 -50 -23 -95t-24.5 -87.5t-24.5 -84.5t-21 -86v-5t1 -12q32 42 72.5 88.5t73.5 92.5q21 29 48 50t59 21q10 0 20 -1.5t20 -6.5l2 6q2 11 4.5 21t4.5 20q5 20 6 38.5 t6 41.5q2 8 4.5 18.5t5.5 19.5l-1 -1q6 20 10 40q4 19 4.5 31.5t-4.5 22.5t-15.5 18t-28.5 18h1q-42 22 -85 39.5t-90 17.5q-25 0 -47 -6.5t-46 -18t-53 -27t-68 -33.5q-13 -6 -29 -13.5t-39 -20.5zM280 525q-5 -24 9 -33t34 -9q10 0 15 4.5t7.5 11t3.5 13.5t4 13 q2 10 3.5 19t0 15.5t-7.5 10.5t-18 4q-20 -2 -33.5 -16t-17.5 -33zM595 138.5q0 -12.5 3.5 -23t10.5 -18t18 -10.5q4 -2 9 8t9 21l5 15q1 10 1 23.5t-1.5 26t-6 22t-13.5 12.5q-6 0 -11 -6t-9 -13.5t-7.5 -16.5t-4.5 -15q-3 -13 -3 -25.5zM650 131l2 3l-1 -8q-1 1 -0.5 2 t-0.5 3z" />
<glyph unicode="&#xe0a;" horiz-adv-x="594" d="M145 641q6 26 26 56.5t47.5 57.5t59.5 47t61 26q20 4 48 4q43 0 75.5 -19.5t49.5 -57.5q8 14 21 28t29 22q33 18 69.5 38t71 44t64.5 51.5t52 60.5q8 11 21 22t30 11q9 0 20 -7q12 -8 15.5 -20t1.5 -23q-3 -15 -13 -29q-30 -45 -72 -83.5t-89 -63.5q-41 -22 -57 -35 t-18 -24q-2 -10 -2 -26q-2 -42 -10 -90t-19 -96l-14 -66q-15 -71 -32 -140.5t-35 -141.5q-6 -22 -10 -44q-7 -30 -14.5 -58.5t-18 -51.5t-26 -37t-37.5 -14q-13 0 -23.5 6t-21.5 15h1q-10 7 -18.5 12t-14.5 5t-12.5 -4t-11.5 -8q-16 -14 -35.5 -25.5t-36.5 -11.5 q-18 0 -27.5 8t-12.5 19t-2 24t3 22l86 407q6 24 19 44q-24 -9 -52 -9q-30 0 -57.5 12.5t-47 34t-29 49.5t-2.5 59zM229.5 629.5q0.5 -4.5 3.5 -4.5q1 0 3 2q2 1 3 2.5t3 3.5q20 20 41.5 31.5t44.5 11.5q28 0 44 -11.5t23.5 -28t7.5 -35.5t-3 -34v-2l4 4q30 27 36 55 q4 20 -1 40t-16.5 35.5t-28 25t-35.5 9.5q-21 0 -39 -7.5t-33.5 -20t-28.5 -28.5t-24 -32q-2 -2 -2.5 -4t-1.5 -4q-1 -4 -0.5 -8.5zM282 579q-2 -9 4.5 -16t14.5 -7q10 0 19.5 7t11.5 16t-4.5 16.5t-16.5 7.5q-8 0 -17.5 -7.5t-11.5 -16.5zM334 105q10 8 21.5 15.5t22.5 7.5 q15 0 25 -8.5t19 -18.5l3.5 -3.5t2.5 -3.5q1 13 14 54q4 16 8.5 33.5t9.5 32.5v-2q5 20 9 34.5t7 27.5q2 11 4 21.5t4 22.5t5.5 28.5t6.5 30.5q4 15 7 30.5t8 30.5q13 53 26.5 109t24.5 109q4 18 3 33t-12 15h-3q-4 -2 -8 -2h-6h-5q6 -23 8.5 -44.5t-2.5 -44.5 q-6 -27 -22.5 -52t-47.5 -50q-22 -18 -36.5 -35.5t-24.5 -36t-16 -37.5t-10 -38q-3 -13 -5 -25t-5 -25q-2 -13 -5 -29t-6 -28l-3 -14q-4 -17 -5.5 -31t-2.5 -31q-1 -5 -3 -14.5t-4 -20t-4 -21.5t-3 -20z" />
<glyph unicode="&#xe0b;" horiz-adv-x="666" d="M149.5 595q-5.5 29 1.5 60q2 13 7.5 27t12.5 25q19 31 41.5 57t46.5 44.5t47 28.5t44 10q17 0 31 -8t25.5 -17t19.5 -17t13 -8q3 0 11 7t18.5 15t23.5 15t26 7q15 0 40 -9.5t50.5 -20.5t45.5 -19.5t23 -6.5q10 8 25 23.5t31.5 32.5t33.5 34.5t32 29.5q9 10 21 26.5 t21 32.5v-1q6 15 16 28.5t20.5 24.5t20.5 17.5t16 6.5q10 0 16 -6t9 -15t3.5 -19t-1.5 -18q-5 -26 -22.5 -54t-38 -53t-40.5 -44.5t-30 -27.5q-21 -17 -39 -35.5t-23 -39.5q-5 -24 5 -56q-25 -104 -43.5 -185.5t-34.5 -155.5q-12 -56 -23.5 -113.5t-24.5 -126.5 q-6 -26 -24.5 -47.5t-41.5 -37t-44.5 -24.5t-33.5 -9q-18 0 -28.5 11t-3.5 41q0 3 2 9v-1q1 5 1.5 11t-3.5 6h-1v-1q-2 -6 -11 -15t-12 -15q-12 -17 -24.5 -30.5t-31.5 -13.5q-5 0 -10 1.5t-12 3.5h1q-12 4 -19 13.5t-10 21t-3 24.5t2 24q11 76 23.5 148t26.5 141 q11 48 22.5 96.5t26.5 102.5q11 41 38.5 70t59.5 54v-1q17 14 18 22q2 5 -1.5 11t-8.5 13h1q-8 7 -13.5 11t-11.5 4q-8 0 -19 -14v1q-25 -30 -46 -47t-41 -17q-7 0 -16 3q15 -27 9 -58q-3 -12 -8.5 -25t-12.5 -26l1 1q-20 -32 -45.5 -45.5t-54.5 -13.5q-32 0 -56.5 13.5 t-40.5 36t-21.5 51.5zM248 603q-4 -15 5.5 -22t22.5 -9q23 -1 35 31q3 27 -26 31q-14 2 -24.5 -8t-12.5 -23zM259 698q24 11 46 11q12 0 24.5 -4t23.5 -13q-2 7 -4.5 16.5t-5.5 18.5t-6.5 15.5t-9.5 6.5l-7.5 -3.5t-18 -10t-22 -16t-20.5 -21.5zM419 126q29 22 54 22 q17 0 29.5 -4.5t21.5 -11.5t15 -15.5t11 -15.5q-5 7 -7 12t-2 10.5t1.5 12t3.5 17.5l20 93q23 106 44.5 208t44.5 217q2 11 -4.5 16.5t-18.5 7.5q0 -5 -1 -10.5t-2 -8.5q-8 -25 -26 -41.5t-38 -31.5t-38.5 -31.5t-25.5 -41.5q-13 -44 -23 -87t-18 -83q-11 -54 -21 -111 t-20 -123zM550 101q1 -1 1 -2t1 -2q-1 1 -1 2t-1 2zM552 97l2 -3zM630 696q1 -1 2 -1q-1 0 -1 0.5t-1 0.5zM632 695l1 3z" />
<glyph unicode="&#xe0c;" horiz-adv-x="1083" d="M120 146q9 49 36 93q14 25 25.5 57t17.5 58q2 11 4 21t4 21l3 17q6 29 15.5 59t36.5 56q1 1 6 5t8 6q5 3 8.5 6t1.5 5h1q-7 10 -15 10q-2 0 -5.5 -2.5t-7.5 -4.5q-17 -17 -37 -23.5t-36 10.5h-1q-17 21 -8 42t26 38v-1q11 11 22.5 21.5t22.5 21.5q35 33 69 65.5t72 63.5 q23 20 49 30.5t53 10.5q24 0 47 -9q96 -33 176 -87q19 -13 29.5 -28.5t14 -32.5t1.5 -36t-6 -38q-2 -8 -3.5 -15.5t-3.5 -14.5q-4 -14 -6.5 -26.5t-3.5 -24.5l-5 -24q-2 -7 -3 -12.5t1.5 -10.5t8.5 -9.5t19 -9.5h-1q24 -9 40.5 -26t28 -39.5t19.5 -49t15 -52.5l8 -32 q7 -28 15.5 -54.5t22.5 -56.5l4 20q3 14 6.5 28t6.5 28q5 24 9 47l8 46q4 26 9 52l10 52q18 85 44 175t52 173l3 12q2 11 5 21.5t9.5 19t17 12.5t27.5 3q18 -1 26.5 -7.5t10 -16t-1 -22t-6.5 -24.5l-3 -8q-12 -55 -26.5 -109.5t-28.5 -108.5q-15 -54 -28.5 -107t-24.5 -107 q-10 -48 -18 -96t-11 -96q-3 -40 -23 -77.5t-52 -69.5q-15 -15 -32 -28t-42 -9q-21 4 -25 18t-6 29v9q-10 81 -40 161.5t-60 153.5q-1 2 -2 3.5t-2 3.5q-3 7 -8.5 12.5t-10.5 5.5q-11 -4 -14.5 -16t-5.5 -26v-3q-4 -41 -8.5 -82t-9.5 -81q-2 -22 -4.5 -43t-4.5 -43 q-1 -4 -1 -12q-1 -18 -5.5 -36.5t-27.5 -32.5q-13 -8 -26 -9t-24 2.5t-21 9.5t-17 13q-2 2 -5 4.5t-5 4.5q-15 15 -33.5 30.5t-33.5 24.5q-29 14 -31.5 40.5t11.5 58.5q15 34 37.5 67.5t52.5 59.5q45 45 75 98t41 104q7 33 9 64.5t2 63.5q-1 22 -10 37.5t-24 26t-33.5 18.5 t-37.5 15q-13 4 -26 9t-24 10v-1q-8 3 -13.5 5t-11.5 2q-19 0 -37.5 -14t-37.5 -31q-6 -6 -14 -13t-16 -15q-4 -4 -8 -7.5t-9 -8.5q35 -19 49 -33t9 -35q-4 -18 -22 -38.5t-52 -53.5q-15 -15 -25 -34.5t-15 -40.5q-7 -30 -0.5 -59t26.5 -46q21 -20 27.5 -51.5t-1.5 -69.5 q-8 -35 -27 -73t-50 -75l2 1q-2 -3 -5 -6t-5 -6q-17 -23 -38.5 -44.5t-53.5 -22.5q-18 -1 -27.5 4.5t-14 15t-5.5 21.5t0 24q-1 6 -0.5 12.5t-0.5 10.5q-14 54 -2 108zM195.5 91.5q-0.5 -9.5 10.5 -11.5q14 -2 19.5 8t10.5 21q2 6 4.5 12.5t5.5 11.5q14 21 14.5 40.5 t-7.5 36.5q-2 6 -8.5 8.5t-12.5 -3.5q-15 -15 -17 -32t-7 -34q0 -2 -0.5 -3.5t-0.5 -3.5h-2q-2 -8 -3.5 -15.5t-3.5 -15.5q-2 -10 -2.5 -19.5zM523 128q-4 -17 43 -32q1 4 1 7.5t1 7.5q4 24 7.5 50t7.5 55q-56 -68 -60 -88z" />
<glyph unicode="&#xe0e;" horiz-adv-x="762" d="M66 -297q7 32 28.5 56.5t44.5 47.5q30 28 68 45.5t72 25.5q11 2 20 4t15 3q13 3 21 6t14 8.5t11 13.5t11 21q4 7 9 16.5t11 19.5q17 29 34.5 40t27.5 5t10 -28.5t-18 -60.5q-4 -10 -7 -18t-5 -17q-3 -17 0.5 -32.5t11 -30.5t18 -29.5t21.5 -27.5q10 -12 21 -27t21 -29 q14 45 21.5 74.5t13.5 57.5q3 14 6 29t6 33q3 16 6.5 37t8.5 41q12 63 23 118t21.5 107t20 102.5t20.5 104.5q7 36 14 75t15 82q4 25 -15.5 50t-52 44.5t-72.5 31.5t-75 12q-23 0 -41 -8q-49 -22 -53 -47q-5 -20 15 -42q12 -15 18.5 -30.5t2.5 -31.5q-3 -17 -15.5 -29.5 t-38.5 -24.5q-29 -13 -40 -34.5t-14 -49.5q-2 -22 -5 -45t-7 -44q-5 -29 -8.5 -58.5t-3.5 -64.5q-1 -20 -3 -42t-7 -45q-5 -21 -11 -42l-12 -42q-4 -13 -7.5 -25t-6.5 -24q-17 -68 -75 -42q-23 12 -42 40t-31.5 62.5t-16 71t4.5 64.5q6 17 13 34.5t17 33t24 28.5t33 20 q16 6 25.5 14t15 18t8 21t4.5 22v6.5t2 7.5q1 8 2 16.5t1 19.5q1 20 6 48q5 22 16 43.5t34 43.5q-33 7 -47.5 17t-9.5 30q3 14 17 31t37 40q8 8 17 19t16 21q16 21 35.5 41.5t45.5 35.5q60 30 120 30q31 0 61 -6.5t57 -16t51 -21.5t44 -24h-1q47 -29 60 -72.5t-1 -106.5 l-11 -50q-22 -102 -37.5 -184.5t-29.5 -159.5q-12 -68 -26.5 -142t-31.5 -153q-8 -40 -18.5 -84t-21.5 -94q-1 -5 -2 -14.5t-3 -14.5l-6 -28v-12t1 -11q1 -11 0.5 -22t-2.5 -22q-3 -16 -12.5 -29t-32.5 -21l2 1q-18 -6 -30.5 -4t-21.5 9.5t-15.5 18t-11.5 21.5l1 -1 q-1 3 -3.5 7l-5 8t-4 7t-1.5 2q-2 2 -4.5 5.5t-5.5 8.5q-23 34 -50 71t-53 65q-4 -5 -8.5 -11t-9.5 -11q-12 -15 -25 -31.5t-27 -35.5v1q-13 -20 -28 -37t-32 -29.5t-37.5 -19t-44.5 -4.5q-20 1 -33.5 8.5t-22.5 19t-14.5 27t-8.5 32.5v-1q-3 23 0 42zM162 -308 q-2 -10 5 -14q8 -7 18.5 0t20.5 18q14 16 27.5 31t26.5 32l15 17q-29 -5 -52.5 -17t-40.5 -35q-17 -19 -20 -32zM176 171q-52 -56 14 -102q7 12 10 24.5t4.5 24.5t3 24.5t4.5 25.5q2 7 0 14t-12 5q-6 -2 -13.5 -6.5t-10.5 -9.5z" />
<glyph unicode="&#xe0f;" horiz-adv-x="755" d="M-33 -288q6 28 24 55q15 21 36.5 41.5t45 34t46.5 17t40 -8.5q27 -20 47 -20q18 0 34.5 18.5t32.5 42.5l42 60q8 -31 9.5 -49t-0.5 -26q-4 -18 -12 -34t-18 -32q-8 -14 -15.5 -27t-10.5 -24q-1 -5 -0.5 -12t3.5 -14q5 7 9 12.5t9 11.5q33 47 68 88q33 39 62 39 q30 0 43 -44q8 -30 19.5 -61t30.5 -60q3 11 5.5 22t4.5 22q3 11 5 21t4 21v-1q2 9 4 20t4 20q14 69 27 131.5t26 124.5q11 49 20 97t20 97q15 70 30.5 140.5t32.5 147.5q10 41 -5 61.5t-44 29.5h1q-12 3 -23 8.5t-22 10.5q-22 10 -46.5 19.5t-50.5 9.5q-16 0 -32 -5t-33 -17 q-17 -13 -27.5 -22.5t-12.5 -16.5q-1 -9 27 -23q19 -9 29 -23t7 -31q-2 -11 -13 -23t-28 -23q-45 -29 -72 -68t-36 -81q-2 -12 -3.5 -26.5t-2.5 -28.5q-2 -35 -8 -73t-13 -75q-5 -29 -9.5 -56t-7.5 -55q0 -12 5 -30q2 -11 4.5 -22.5t0.5 -22.5q-4 -17 -16.5 -27.5 t-38.5 -9.5q-21 0 -50.5 3t-56.5 12.5t-45 28t-17 50.5q0 11 2 25t5 28q10 48 39.5 92t80.5 73q20 12 27 25t9 31v-1q1 16 3.5 32.5t6.5 34.5q10 48 32.5 93.5t60.5 85.5h-2q-7 0 -16.5 -5.5t-20.5 -12.5l-1 -1q-4 -4 -8 -6q-19 -12 -37 -14t-33 13q-18 22 -8 42.5t28 36.5 q5 4 14.5 10.5t18.5 12.5q19 10 33 24v-1q7 7 14 14.5t13 14.5h-1q19 21 38 41t40 36.5t44.5 28t51.5 15.5h-1q8 2 17.5 2h19.5q37 0 74.5 -9t72 -24t63 -35.5t48.5 -43.5q9 -9 13 -29.5t1 -38.5q-52 -253 -105 -503t-108 -508q-1 -3 -1.5 -6t-0.5 -8q-1 -11 -3 -22.5 t-7.5 -22t-16 -19t-28.5 -13.5t-29.5 -3t-19 9t-12.5 16.5t-9 19.5l-6 15q-11 23 -22.5 46.5t-22.5 48.5h1q-4 8 -6.5 13.5t-4.5 10t-5 10t-7 14.5q-17 -18 -28.5 -40t-22.5 -43q-7 -13 -13 -26t-11 -22l1 2q-2 -3 -3.5 -6t-3.5 -6q-8 -17 -19.5 -30t-34.5 -15 q-14 -1 -22.5 2.5t-13 10.5t-6 15.5t-2.5 16.5v4q-3 49 -19 49q-14 0 -49 -26q-20 -16 -43 -25.5t-45 -9.5q-17 0 -32 6t-27 20h-1q-34 37 -23 90zM51 -291q-7 -11 2 -16.5t19 -6.5q22 5 43 14.5t31 31.5q6 15 -5 23.5t-26 7.5q-24 -1 -39.5 -17.5t-24.5 -36.5zM144.5 71 q4.5 -15 25.5 -13q15 2 20.5 8.5t6.5 15t1 18t5 16.5q-3 9 1 21t6.5 22.5t0 18t-17.5 6.5q-11 0 -18.5 -8.5t-13.5 -20.5t-9.5 -25.5t-6.5 -24.5q-5 -19 -0.5 -34z" />
<glyph unicode="&#xe10;" horiz-adv-x="713" d="M-52 -335q2 11 9 24.5t15 24.5q24 29 56.5 44.5t59.5 15.5q22 0 39.5 -7t30.5 -19l6 -7q3 3 4 5t2 3q20 25 38.5 50t38.5 52q2 5 9 14t9 13q18 -1 27 -5.5t12 -10.5t2 -13.5t-3 -14.5v-8q-10 -20 -18 -34.5t-16 -28.5q-13 -22 -25 -45.5t-17 -43.5q-2 -13 -2 -23.5 t4 -23.5q10 15 21.5 27.5t23.5 25.5q23 24 43.5 50t25.5 58q3 17 26 34.5t53 31t59 20t44 2.5q12 -4 17 -9.5t6 -12t-1 -13.5l-4 -14q-2 -3 -1.5 -3.5t-0.5 -2.5q-4 -23 -10 -53t-11 -53q-3 -14 -6.5 -27.5t-6.5 -27.5q-17 -77 -21 -155v-1q-1 -11 -10 -21t-18 -18 q-12 -12 -21 -15t-16 -0.5t-12 8.5t-10 13q-18 23 -34 46.5t-30 49.5q-8 18 -18 18q-13 0 -27 -24l2 2q-3 -5 -5.5 -8t-4.5 -5t-3 -3.5t-2 -2.5q-1 -2 -2 -2l-2 -8l-2 -8q-3 -11 -6.5 -23t-9 -22t-15 -17t-24.5 -8t-24.5 6t-15.5 18t-10 24t-8 25q0 9 -1 14q-1 11 -2 20.5 t-5 14.5q-2 2 -3.5 5l-2.5 5q0 3 -3 3.5t-12 -8.5q-20 -20 -45 -31t-50 -11q-43 0 -66 32h1q-13 17 -19.5 41t-1.5 51zM28 -341q-5 -8 3 -15.5t13 -5.5q4 2 10 4l12 4h-2q14 5 26.5 9.5t15.5 15.5v1v-1v1q2 16 -26 17q-3 -2 -6.5 -3.5t-8.5 -3.5l1 2q-10 -5 -21.5 -10 t-16.5 -15zM160 578q3 12 10 22.5t16 18.5q18 14 35.5 31t34.5 34q35 35 70 66t78 52v-1q31 15 60 15q14 0 26.5 -3.5t25.5 -8.5q15 -8 30 -14.5t31 -11.5q19 -8 36.5 -13t34.5 -5q24 0 49.5 16t47.5 50q8 11 16.5 19.5t17.5 16.5q-4 -3 1.5 2.5t15.5 15t21.5 20.5t19.5 18 q-14 -69 -32 -119t-41.5 -82t-53.5 -47t-69 -15q-29 0 -65 8t-79 22q-23 8 -37.5 12.5t-25.5 4.5t-23 -7.5t-32 -26.5q69 -5 128 -17.5t116 -35.5q21 -8 36.5 -19t25 -26t11.5 -35.5t-5 -48.5q-10 -40 -19.5 -79.5t-17.5 -79.5q-11 -51 -19.5 -101.5t-12.5 -102.5 q-2 -21 -11 -38.5t-22 -31.5t-29 -25t-31 -20q-6 -4 -11.5 -7.5t-10.5 -7.5q-18 -11 -33.5 -12.5t-24.5 6t-9.5 23.5t12.5 40q8 15 14.5 29.5t8.5 28.5q8 35 3.5 68.5t-11.5 67.5v-1q-4 23 -7.5 48t-3.5 51l1 -1q0 6 -5 5.5t-11 -2.5q-4 -1 -7 -2t-5 -2q-35 -9 -58 -9 q-45 0 -70 22.5t-23 64.5v-1q0 16 4 31q8 42 36.5 71t71.5 44q5 2 8.5 2.5t6.5 2.5q-28 5 -52 5q-29 0 -61 -9.5t-67 -32.5q-15 -9 -30.5 -7.5t-27.5 15.5q-11 18 -7 39zM368 443q-5 -20 5 -23.5t24 -3.5q17 -1 28.5 6t14.5 27q2 16 -4.5 24t-29.5 6q-11 -2 -22.5 -10.5 t-15.5 -25.5zM398 -290.5q0 -7.5 15 -12.5q12 -3 19 1t12 11t10 14.5t13 10.5q2 14 -5.5 22t-18.5 8q-14 0 -26 -10t-17 -27q-2 -10 -2 -17.5zM523 543q18 -27 22 -69q5 -41 8 -81.5t8 -82.5l15 69q3 14 6 25t5 21q6 29 7 48.5t-6 33t-22.5 21.5t-42.5 15z" />
<glyph unicode="&#xe11;" horiz-adv-x="928" d="M127 614.5q1 12.5 3 23.5q10 46 41 82t67 68q23 20 45.5 29t44.5 9q24 0 45 -9.5t38 -23.5h-1q13 -12 26 -12q10 0 29 16h-1q17 15 37.5 27t43.5 12q21 0 38 -11h-1q33 -22 55.5 -52t36.5 -67v1q1 -4 -1.5 -12.5t-8 -18t-12.5 -17.5t-13 -12q-30 -18 -50.5 -38t-34 -41.5 t-21 -44t-12.5 -45.5q-3 -16 -6 -31.5t-5 -32.5l-2 -18t-3 -18q5 10 10.5 19.5t11.5 20.5q22 38 43.5 76t41.5 76q28 53 57.5 105.5t64.5 102.5q15 21 32 34.5t37 13.5q22 0 43 -18q23 -18 47.5 -31t49.5 -25q2 -1 3.5 -1.5t3.5 -1.5h-1q27 -14 29.5 -33.5t-2.5 -45.5 q-23 -104 -45.5 -207t-44.5 -207l-45 -207q-1 -4 -1.5 -7.5t-0.5 -8.5q-2 -13 -4.5 -25.5t-8.5 -22.5t-17.5 -16t-31.5 -6t-29 6.5t-11 17t0.5 24t5.5 26.5l3 12q9 43 18 85.5t18 84.5q20 95 41 189t45 188q8 41 -8 66t-46 42q-9 6 -17 6q-11 0 -21 -21q-85 -142 -163 -283 t-138 -291v1q-2 -4 -3 -8.5t-2 -6.5q-2 -7 -4 -14.5t-7 -15.5l1 1q-2 -4 -5 -11t-7 -16q-5 -13 -11.5 -26.5t-15.5 -24t-22 -16.5t-31 -4q-29 4 -36 18.5t-3 34.5q2 10 5 18t5 16q3 6 5.5 12t3.5 10q11 64 25 132t27 131q8 38 16 76.5t16 79.5q11 48 36.5 93.5t70.5 80.5 q7 5 14 12.5t9 12.5q1 6 -10 21q-13 15 -25 15t-29 -14h1q-13 -11 -25 -22l-24 -22q-35 -30 -64 -30q-16 0 -26 10t-15 35v-1q-3 17 -12 29t-29 7q-24 -7 -42.5 -28.5t-29.5 -46.5q-1 -2 0 -3.5t5 0.5q17 5 33.5 7.5t33.5 2.5q31 0 54 -8h-1q35 -10 51 -35t-1 -67 q-17 -40 -47.5 -64t-74.5 -16q-27 5 -53 12t-48 19.5t-37 33.5t-19 54q-2 12 -1 24.5zM252 572q-2 -11 6.5 -19.5t25.5 -9.5t29.5 6.5t15.5 18.5q2 11 -7 19.5t-26 9.5q-14 1 -27.5 -6.5t-16.5 -18.5z" />
<glyph unicode="&#xe12;" horiz-adv-x="1096" d="M130 436q16 74 54.5 142.5t101.5 131.5q53 52 88.5 80.5t68.5 28.5q25 0 47 -20t47 -65q3 3 7 6t7 6l18 20l-1 -1q23 25 47.5 46.5t58.5 21.5q19 0 38 -10q23 -11 43 -24t35 -31t23.5 -43t7.5 -61q-1 -10 -3 -21.5t-4 -22.5q-5 -23 -11.5 -44t-13.5 -43q-7 -21 -13.5 -42 t-11.5 -40q-2 -8 -3 -16.5t-2 -18.5q19 6 34 6q21 0 35.5 -8.5t25.5 -22.5t18 -31t13 -35q4 -11 7 -22.5t6 -23.5q5 -18 7.5 -30t5 -22.5t6.5 -22.5t12 -31q8 47 18.5 96.5t21.5 101.5l12 54q16 75 30.5 146t22.5 131q2 14 5 28.5t6 29.5q2 14 6 27.5t12 24t21 16t33 4.5 q17 0 25.5 -5.5t11 -14.5t1.5 -19.5t-4 -21.5l-1 -8q-6 -28 -12.5 -62t-13.5 -69q-6 -32 -13.5 -68t-12.5 -62q-7 -31 -13.5 -60t-12.5 -58q-5 -26 -11 -50t-11 -48q-9 -43 -17 -86.5t-15 -87.5q-3 -28 -13 -56.5t-34 -52.5q-9 -9 -12 -13q-15 -16 -31.5 -28.5t-40.5 -10.5 q-15 1 -22.5 6t-10 12.5t-2 17t1.5 19.5q0 5 0.5 9.5t-0.5 7.5v-1q-5 37 -11 69.5t-14.5 63.5t-19 62t-23.5 65v1q-5 8 -11 15t-19 3h1q-26 -10 -28 -35q0 -29 -5 -58.5t-11 -58.5l-7 -35q-2 -10 -5 -19.5t-5 -19.5l-9 -54q-6 -40 -21 -56.5t-39 -16.5q-15 0 -43 13v-1 q-58 25 -81.5 69.5t-12.5 98.5q7 32 27 65t55 65q25 22 41.5 43.5t27 44.5t17.5 48t13 54q6 31 15 60q5 15 9 29.5t7 28.5l4 26t2 25q-1 8 -1.5 16t0.5 16v27.5t-7 23.5v-1q-12 14 -22.5 22.5t-18.5 8.5t-17.5 -9.5t-22.5 -31.5q-5 -8 -13 -15.5t-14 -14.5q-5 -5 -9.5 -8.5 t-9.5 -10.5q-41 -48 -74 -48q-17 0 -30.5 16t-23.5 38q-9 24 -17 37.5t-16 13.5q-16 0 -62 -48q-48 -51 -75.5 -105.5t-39.5 -111.5q-7 -35 -10 -71t-2 -71q2 -18 5.5 -39.5t8.5 -36.5q2 -8 4 -12t3.5 -8.5t2.5 -11.5t2 -21q8 13 16.5 24.5t16.5 23.5q11 16 21.5 31t21.5 32 q9 14 6.5 28t-7.5 25l-2 4t-1 4q-11 22 -12.5 45t3.5 44q11 50 50.5 89t102.5 55h-1q10 3 18 4t16 1q35 0 50 -21t11 -52q0 -6 -1 -13t-3 -12q-2 -14 -3.5 -28t-4.5 -29q-6 -29 -18.5 -54.5t-38.5 -46.5q-36 -30 -63 -59.5t-50 -60.5t-43 -63t-41 -66q-8 -12 -15 -23.5 t-15 -24.5q2 2 -2 -5t-6 -11q-8 -19 -20.5 -33t-40.5 -11q-17 1 -24.5 7t-10 14.5t-1.5 18.5t3 20q1 4 1 9q3 47 -3 83.5t-15 73.5q-7 23 -13 56q-22 97 -1 196zM396 406q-8 -25 19 -28q21 7 31 24t18 34q5 12 2 24t-17 9q-24 -5 -34.5 -24.5t-18.5 -38.5zM579 122 q-4 -24 23 -51q6 17 12.5 33.5t9.5 31.5q3 12 4 22.5t-2 23.5q-22 -18 -33 -32t-14 -28zM592 43l30 10q-13 10 -20 18q-3 -5 -5 -10l-4 -10q0 -2 -0.5 -4t-0.5 -4z" />
<glyph unicode="&#xe13;" horiz-adv-x="1041" d="M107 51q3 14 7 25.5t7 20.5q15 41 26.5 87t21.5 91l26 123q11 50 32 95t65 84q-11 -3 -21 -10.5t-20 -15.5l-4 -3q-21 -17 -41 -24t-38 13q-10 11 -12 20.5t2 18t11.5 16.5t15.5 15q2 3 4 5q23 26 47 53t47 51q46 46 108 72t121 26q66 0 122 -28.5t82 -85.5h-1 q8 -17 5.5 -31t-10.5 -30q-17 -39 -28 -77t-19 -76q-7 -32 -12 -64l-10 -64q-5 -31 -10.5 -62.5t-12.5 -62.5q-2 -6 -2.5 -11.5t-2.5 -10.5q14 15 25.5 32t22.5 34q6 8 11.5 16.5t10.5 16.5q27 40 55.5 60.5t60.5 20.5q17 0 34 -7t34 -19q15 -12 21 -12q-2 1 0.5 10.5 t5.5 22.5l13 63q15 71 30.5 140.5t31.5 139.5l2 8q3 14 6.5 28t11 24.5t20 16.5t32.5 4q17 -2 24 -8.5t8 -16t-2.5 -21t-7.5 -23.5q-2 -5 -2.5 -8t-1.5 -5q-9 -43 -17.5 -85t-17.5 -85l-26 -120t-27 -120q-5 -27 -5 -56.5t9 -52.5q8 -20 1 -51q-6 -27 -21 -60t-35.5 -63 t-43 -53.5t-41.5 -31.5q-23 -9 -45 -7t-36 22q-22 34 -30 68.5t0 70.5q5 28 22.5 59t44.5 63l4 6l4 6v-1q7 7 12 13.5t6 11.5t-13 15q-6 4 -13 6t-12 2q-17 0 -39 -33q-11 -14 -20.5 -29t-20.5 -30q-32 -44 -63.5 -89t-54.5 -92v-2q-6 -11 -13 -23t-16.5 -21t-22.5 -13.5 t-30 -0.5q-14 4 -21 12t-8.5 18t1 21.5t5.5 22.5q1 2 2 5t1 5q17 54 30 106.5t24 105.5q8 35 14.5 69.5t13.5 69.5v-1q9 53 21 104q5 26 10.5 52t12.5 52q4 24 -1 41.5t-16.5 30t-26.5 21.5t-31 17h1q-5 1 -15 5q-14 7 -29.5 12.5t-31.5 5.5q-18 0 -37.5 -8.5t-38.5 -29.5h1 q-7 -8 -11.5 -13t-5.5 -7q1 2 14 0q29 -7 48 -28.5t17 -53.5q0 -18 -6 -29.5t-15 -18t-20.5 -10t-23.5 -4.5q-6 0 -11 -0.5t-11 -3.5q-11 -9 -25 -32.5t-27.5 -53t-24.5 -61t-17 -57.5q-8 -34 -3 -44q0 1 4.5 -0.5t9.5 -3.5q50 -20 69 -53t10 -77q-9 -42 -46 -92 q-15 -21 -34.5 -39t-41 -31t-44 -18.5t-44.5 -0.5q-26 9 -33 36.5t-1 56.5zM201.5 67q1.5 -7 12.5 -8q10 -1 17.5 5t12.5 15t8.5 18.5t6.5 17.5q2 10 3.5 19t1 16t-5 11.5t-13.5 4.5q-19 0 -27 -15t-7 -31q0 -8 -3 -18t-5.5 -19t-1 -16zM816.5 74q3.5 -10 12.5 -20 q24 18 36.5 36.5t17.5 43.5q2 14 0 29.5t-14 13.5q-22 -8 -34 -31.5t-18 -47.5q-4 -14 -0.5 -24z" />
<glyph unicode="&#xe14;" horiz-adv-x="688" d="M117.5 359q0.5 61 12.5 127q12 72 50 133.5t92 107t119 71.5t133 26q32 0 59 -6h-1q14 -2 26 -3l24 -2q34 -2 63 -7t49 -25q9 -12 11 -26t-1 -29q-4 -16 -9.5 -30t-11.5 -28q-7 -16 -13 -30.5t-8 -27.5q-15 -76 -29 -146t-28 -139t-29 -139t-31 -146q0 -2 -0.5 -3 t-0.5 -5q-1 -12 -3 -24t-7.5 -22.5t-16.5 -17t-31 -7.5q-22 -1 -32 5t-12.5 16t0 22.5t5.5 25.5l2 11q19 85 36 163t34 155.5t34.5 155.5t35.5 163q0 2 1 5l2 6q2 8 2 13t-10 8q-63 19 -121 19q-101 0 -170 -65t-115 -180q-5 -12 -8.5 -24.5t-5.5 -22.5q-11 -56 -6 -112 t15 -113q1 -9 2.5 -17t2.5 -17l1 1q1 -8 2 -14t2 -11q0 -4 1.5 -8t2.5 -6q17 26 32 50.5t30 47.5v-1q8 14 17.5 28.5t19.5 29.5l-1 -1q4 8 2 11.5t-7 8.5q-2 3 -5 6q-21 21 -26.5 51.5t0.5 60.5q11 49 46 92t86 59q19 6 39 6q17 0 31 -7t22 -23q6 -12 11.5 -27.5t8 -33 t0.5 -35.5t-10 -35q-16 -32 -36 -59t-40 -51v1q-14 -19 -28.5 -36t-25.5 -36q-38 -61 -70.5 -116.5t-68.5 -118.5q-1 -2 -2 -4.5t-3 -4.5q-8 -14 -17.5 -26t-30.5 -14q-14 -2 -22.5 2t-13.5 10.5t-7.5 14.5t-3.5 16l1 -1q-13 60 -24.5 118t-17.5 116.5t-5.5 119.5zM380 397 q2 -13 19 -11q15 1 24.5 8.5t15.5 17.5t9.5 22t8.5 23q6 14 2.5 25.5t-23.5 9.5q-13 -3 -21.5 -10t-14.5 -16.5t-10 -19.5t-8 -19q-4 -17 -2 -30z" />
<glyph unicode="&#xe15;" horiz-adv-x="757" d="M125 348q0 45 10 90q20 98 78.5 188.5t147.5 157.5h-1q25 19 47.5 30t42.5 11q38 0 62 -48q5 -19 11 -19q5 0 26 18q31 23 70 35t77 12t70.5 -12.5t46.5 -37.5q8 -14 7.5 -33t-4.5 -39q-3 -11 -5.5 -20.5t-5.5 -17.5q-23 -68 -38.5 -132t-29.5 -128q-7 -31 -13 -61.5 t-12 -61.5q-7 -34 -13.5 -68.5t-14.5 -69.5q-5 -22 -10 -45t-11 -46q0 -2 -1 -7t-1 -7q-1 -11 -2.5 -22t-7 -20t-16 -15t-29.5 -8q-24 -2 -34.5 5.5t-12.5 20t1 27t6 28.5q32 145 63 281.5t66 282.5q3 15 4 31t-1.5 30t-10 24.5t-22.5 15.5q-11 3 -21 3q-26 0 -46.5 -19 t-37.5 -45q-20 -29 -35.5 -42t-32.5 -13t-29 14t-23 37q-21 54 -26 54q-7 0 -50 -46q-50 -52 -83.5 -108.5t-46.5 -116.5q-5 -23 -7 -45t0 -45q3 -31 8 -69t12 -79q1 -8 2 -11.5t1 -6t0.5 -7t2.5 -15.5q4 6 7.5 12t7.5 11q17 27 32 49.5t29 45.5q2 5 5 9t4 4q-27 0 -43.5 6 t-24 16t-8 23.5t2.5 28.5q4 21 12 39v-1q1 3 2.5 10t3 13t2 9t0.5 -1q14 48 48.5 84.5t82.5 50.5q25 7 42.5 2t30.5 -16t22.5 -26.5t17.5 -30.5q10 -17 12 -34t-2 -34q-5 -24 -19 -46t-34 -45q-31 -35 -59 -69t-53.5 -69t-47 -72t-39.5 -78q-2 -4 -2.5 -7.5t-2.5 -6.5 q-4 -11 -8.5 -21t-11 -18.5t-17 -14.5t-26.5 -7t-25 3t-13.5 11.5t-6 17.5t-1.5 20v-1q0 10 -1 14q-7 46 -14.5 86t-15.5 82q-2 13 -4.5 25.5t-4.5 26.5v-1q-8 45 -8 90zM361 399q-3 -17 3 -28.5t23 -9.5q24 4 41 19.5t21 41.5q4 17 -5.5 27t-23.5 17q-23 -11 -39 -27.5 t-20 -39.5z" />
<glyph unicode="&#xe16;" horiz-adv-x="717" d="M92 41q2 27 8 56q4 17 8.5 34t9.5 32q5 13 9 24l8 22q9 25 16.5 46t12.5 42q2 11 3.5 23t2.5 27q3 35 9 67q10 45 34.5 87t75.5 76l-1 -1q5 4 11.5 8.5t4.5 6.5h1q-5 6 -13 8t-17 -3v1q-12 -7 -25.5 -13t-26 -7.5t-22.5 3.5t-16 22q-6 16 -2.5 28t11.5 21t19.5 16.5 t22.5 13.5l10 5q19 12 35.5 27.5t29.5 31.5q38 49 80.5 69.5t87.5 20.5q37 0 73 -12q56 -18 100.5 -48.5t86.5 -67.5q17 -17 20 -37t-1 -42q-9 -46 -20.5 -99t-23 -107.5t-22.5 -107.5t-21 -99l-36 -172q-1 -1 -1 -7q-2 -12 -4 -25t-8 -23t-18 -15.5t-34 -3.5h1 q-15 1 -22.5 7.5t-9 16t0 20t4.5 20.5l1 9q14 59 27.5 117t25.5 117q4 15 7.5 31.5t8.5 31.5q6 27 13 57.5t13 57.5l10 46q2 10 4.5 20.5t4.5 21.5q1 6 3 14.5t4 15.5q4 19 4.5 34t-9.5 22q-5 5 -10.5 9t-10.5 8q-19 15 -39.5 29.5t-42.5 26.5t-46.5 19.5t-52.5 8.5 q-29 1 -50 -12.5t-37 -34.5q-8 -10 -3 -14t11 -7h-1q7 -2 14 -6t13 -10q15 -18 22 -35.5t4 -34.5q-5 -21 -23.5 -37t-54.5 -27h1q-32 -10 -48.5 -32.5t-23.5 -53.5q-2 -10 -4.5 -20.5t-4.5 -18.5q-5 -18 -8 -33.5t0.5 -29.5t14.5 -27t35 -25h-1q26 -14 34.5 -39.5t2.5 -54.5 q-7 -31 -25 -58q-15 -21 -32.5 -43t-38 -42.5t-44 -37.5t-50.5 -27q-23 -8 -36.5 -3t-21 17t-10 28t-2.5 30zM179 70q31 23 52 42.5t29 46.5q6 20 0 33t-23 15q-11 2 -17 -1.5t-9 -9.5t-5 -14t-4 -15q-7 -20 -11.5 -42.5t-11.5 -54.5z" />
<glyph unicode="&#xe17;" horiz-adv-x="805" d="M181 651q9 45 38.5 86.5t77.5 69.5q19 12 39 20.5t39 8.5q17 0 31 -7t27 -24q5 -8 9 -13t6 -9q19 -22 32 -45t6 -56q-3 -19 -18 -43l1 1q-37 -62 -62.5 -119.5t-39.5 -123.5q-2 -10 -4 -19.5t-3 -18.5q51 102 105 199.5t115 185.5q48 71 109 71q11 0 21.5 -2t23.5 -6 q46 -14 74 -24t41 -24t13 -36t-8 -61q-2 -11 -5 -26t-8 -32q-27 -111 -51 -215t-47 -208q-8 -35 -16 -71t-17 -74l-1 -4q-2 -11 -5 -21.5t-8.5 -18.5t-15 -13.5t-24.5 -6.5q-32 -2 -40.5 15.5t-3.5 41.5q1 12 3 21q4 20 6.5 34.5t8.5 40.5q5 20 10 41t10 41 q26 102 51.5 204.5t52.5 204.5q6 20 3.5 33.5t-11 23t-21 16t-26.5 13.5l1 -1q-8 2 -13.5 4t-10.5 2q-14 0 -26.5 -15t-23.5 -32q-2 -2 -3 -3.5t-3 -3.5l2 2q-31 -47 -62 -95t-58.5 -97.5t-51.5 -100.5t-40 -103q-13 -41 -29 -72.5t-33 -61.5q-13 -23 -25 -45.5t-21 -44.5 q-2 -3 -3 -5.5t-2 -5.5l1 1q-5 -10 -9.5 -20t-11.5 -18t-17.5 -12.5t-25.5 -3.5q-20 0 -29 7.5t-11 18.5t0 24t5 26q12 51 20.5 90.5t16.5 77.5t16.5 77t19.5 89q4 18 6.5 34.5t0 31t-12 27t-27.5 23.5q-40 23 -54 65t-4 89zM279.5 612.5q8.5 -21.5 31.5 -27.5 q11 -3 16.5 1.5t9 12.5t6 17.5t8.5 15.5q7 6 12 14t8 15q6 13 6 22t-5 15.5t-13.5 11t-17.5 8.5q-43 -15 -57 -55q-13 -29 -4.5 -50.5z" />
<glyph unicode="&#xe18;" horiz-adv-x="644" d="M125.5 -8q0.5 16 6.5 33q3 7 3 12q12 54 20.5 94.5t16.5 78t17 78l21 94.5l1 8q3 13 6.5 27.5t10.5 26.5t18.5 19.5t29.5 7.5q22 0 31.5 -10t10.5 -25t-3.5 -31.5t-8.5 -28.5l1 1q-10 -30 -16 -50.5t-10.5 -38t-8.5 -36t-10 -44.5q-3 -14 -4.5 -22.5t-3 -16t-4 -18 t-6.5 -28.5q29 18 57 28t52 10q28 0 53.5 -13.5t46.5 -36.5q4 -4 8 -7t6 -3q1 0 6 22q8 38 14.5 71t12.5 64l40 185q4 17 -6 25t-24 16q-38 23 -81 33t-91 10q-21 0 -43 -1.5t-47 -6.5l1 1q-3 -1 -7.5 -2t-8.5 -2q-10 -3 -21.5 -5t-19.5 -2q-13 0 -24 5t-16 19v-1 q-6 14 -4.5 25t8 20t16 16.5t19.5 14.5q8 6 14 13q3 3 6.5 5.5t6.5 5.5q26 24 50.5 48t48.5 51q31 33 62.5 55t66.5 22q17 0 33 -5t31 -16h-1q23 -15 44 -23.5t42 -8.5q35 0 71.5 26.5t77.5 86.5l31 -8q-22 -106 -72 -159.5t-114 -53.5q-36 0 -79 20q-30 15 -50 23.5 t-34 8.5q-16 0 -33 -17t-49 -57q61 -6 120 -18.5t110 -37.5q39 -21 52.5 -53t1.5 -83q-11 -43 -19 -78t-16 -69q-8 -38 -15 -75.5t-14 -85.5q-6 -25 -17.5 -45t-27 -36t-33.5 -27.5t-35 -20.5q-11 -5 -23 -11t-11 -5q-16 -9 -25.5 -9t-14.5 5.5t-7.5 15.5t-4.5 21v3v-2 q-3 26 -14 39.5t-27 13.5q-11 0 -26 -6t-32 -20q-10 -8 -21 -18.5t-22 -22.5q-2 -1 -3 -2.5t-3 -3.5q-7 -8 -14.5 -15t-15.5 -11.5t-18 -5t-22 5.5v-1q-22 9 -21.5 25z" />
<glyph unicode="&#xe19;" horiz-adv-x="785" d="M158 -19q-1 9 2 20l6 22q2 5 3 8.5t2 6.5q5 28 10 53.5t10 49.5q8 39 15 75t14.5 72.5t15.5 76t18 85.5q5 26 0 43t-26 32q-39 26 -53.5 65t-5.5 79q8 37 33 71t67 58q40 22 80 22q20 0 39.5 -7t34.5 -18q20 -15 26.5 -37t1.5 -46q-2 -11 -6.5 -23t-11.5 -22 q-34 -57 -52 -107t-29 -99q-6 -29 -10 -56.5t-9 -56.5q-4 -26 -8.5 -56.5t-9.5 -59.5l23 29q27 32 53 64.5t55 67.5q50 61 100 61q21 0 39 -12t32 -38q5 -8 12 -17t17 -16q8 34 15.5 64.5t16.5 61.5l16 58t14 59q5 23 9 49.5t6 54.5q3 33 17 57t50 28q21 1 31 -5t12.5 -16 t0.5 -23t-5 -25l-2 -6q-13 -54 -24.5 -103t-23 -96.5t-23.5 -96t-25 -102.5q-3 -16 -2.5 -34.5t5.5 -33.5l-1 1q5 -16 5 -35.5t-5 -40.5q-6 -31 -20.5 -64.5t-33.5 -64t-41.5 -54.5t-45.5 -36q-35 -16 -58.5 -5t-40.5 60q-2 34 -2 67t6 65q8 34 25 69.5t45 70.5q1 6 -10 17 t-22 21q-3 3 -6 5.5t-5 4.5t-8 -5l-12 -14l-9 -9q-35 -37 -64.5 -72.5t-56 -72t-52 -74t-52.5 -78.5v-1q5 6 0.5 0t-6.5 -10q-6 -10 -13.5 -20.5t-16.5 -18t-20 -11.5t-25 0v-1q-16 3 -23 9.5t-8 15.5zM264 623.5q6 -18.5 34 -16.5q20 1 26.5 5.5t8 12t1.5 17t8 21.5 q17 23 11 40.5t-20 22.5q-29 1 -45.5 -17t-22.5 -41q-7 -26 -1 -44.5zM575 104.5q0 -8.5 3.5 -14t12.5 -5.5q15 0 24 7.5t14.5 19t10 24t10.5 22.5q8 15 2.5 31t-19.5 14q-24 -2 -35.5 -21t-17.5 -39q-1 -9 -3 -19.5t-2 -19z" />
<glyph unicode="&#xe1a;" horiz-adv-x="731" d="M170 11.5q-1 14.5 2 30.5t6 30q6 32 11.5 59t10.5 52t10 49t10 50q5 20 9.5 41t9.5 45l5 24q4 21 7.5 42t1 40t-13 35.5t-33.5 30.5q-25 14 -31.5 34.5t-1.5 46.5q5 24 19.5 49.5t28.5 45.5q35 49 64 71t55 22q34 0 58 -32t41 -83l-1 1q12 -29 6 -59q-3 -13 -10 -26.5 t-21 -28.5h1q-32 -39 -50.5 -82.5t-26.5 -90.5q-3 -20 -6.5 -37t-6.5 -32q-5 -21 -9.5 -41t-9.5 -40q-5 -19 -10.5 -45t-10.5 -51l-2 -11q-3 -8 -5.5 -17.5t-1.5 -18.5q29 26 54.5 33.5t52.5 7.5q34 0 65.5 -13t63.5 -30q14 -10 28 -10q18 0 27 40l65 307q11 52 23 106.5 t26 120.5l10 44q2 6 3.5 11.5t2.5 10.5q4 14 8.5 28t12 25t19 17.5t28.5 6.5q30 -2 38 -16t3 -33q-2 -7 -5 -15.5t-7 -17.5q-5 -10 -6 -17q-20 -69 -34.5 -126t-26.5 -111q-10 -48 -18.5 -95t-18.5 -98q-7 -36 -13.5 -73.5t-14.5 -78.5q-6 -31 -19 -55t-31 -43t-39.5 -34.5 t-44.5 -28.5q-32 -17 -45.5 -8.5t-23.5 26.5q-4 8 -7 11q-20 26 -36.5 40t-34.5 14q-23 0 -59 -27l-10 -8q1 0 -6 -7t-10 -11v1q-9 -12 -19 -23t-21 -18.5t-25 -9t-30 7.5l1 -1q-17 7 -23.5 19.5t-7.5 27zM277.5 607.5q6.5 -15.5 29.5 -16.5q10 -1 17 4t12 12t8 15.5t5 15.5 q7 20 -1.5 37.5t-27.5 19.5q-9 1 -15 -4t-10.5 -12.5t-8 -15.5t-7.5 -14q-8 -26 -1.5 -41.5z" />
<glyph unicode="&#xe1b;" horiz-adv-x="735" d="M166 667q10 46 45 87t92 65q19 9 28 6t18 -7q2 -1 4.5 -2t4.5 -2h-1q23 -11 40 -30t27 -43t12.5 -51t-3.5 -55q-6 -32 -25 -64l1 1q-42 -69 -64.5 -123.5t-33.5 -107.5q-11 -50 -14.5 -103t-6.5 -120q-2 -10 -2 -11v-4q4 0 19 12v-1q31 25 60 35t55 10q31 0 58 -12 t51 -30q21 -15 30 -15q5 0 13 37l124 581q14 58 28.5 117t29.5 118q23 83 43.5 164.5t37.5 163.5l2 10q2 10 3.5 18.5t9.5 22.5q1 2 2 3t1 3q5 11 11 22.5t14 20t18 14t23 4.5q15 -2 21.5 -8.5t8.5 -16t-0.5 -21t-5.5 -23.5q-1 -4 -2.5 -8t-1.5 -6q-40 -158 -77.5 -317.5 t-74.5 -318.5q-1 -6 -3.5 -17t-4.5 -17q-33 -142 -66 -283t-65 -282q-15 -73 -89 -102q-20 -8 -33.5 -8t-23 5.5t-16 15t-12.5 20.5l-3 9l1 -1q-23 39 -59 39q-30 0 -71 -27q-7 -4 -12 -7.5t-10 -7.5q-11 -7 -22.5 -15.5t-17.5 -12.5q-32 -17 -53 -17q-26 0 -36.5 17.5 t-6.5 49.5q3 32 4.5 58t3.5 50q3 40 6.5 76t13.5 81q4 20 10 43t14 47q2 6 4 14l3 12q8 38 -2 64t-36 49q-29 27 -39 61.5t-2 70.5zM256 651q-3 -14 0.5 -25t11 -18.5t17.5 -12t21 -5.5q10 -1 16.5 5t11 15t8.5 19t10 18q-2 10 -3.5 22t-4.5 22t-10 16.5t-20 6.5 q-22 0 -37.5 -20.5t-20.5 -42.5z" />
<glyph unicode="&#xe1c;" horiz-adv-x="720" d="M129.5 233q-2.5 83 15.5 168q10 47 26.5 94.5t42.5 97.5q26 49 58.5 93t77.5 80q21 17 45 28.5t48 11.5q21 0 40 -8q16 -8 24.5 -19.5t11.5 -25t1.5 -28t-3.5 -27.5l-2 -8q-4 -33 -20 -61.5t-40 -49.5t-53 -33t-59 -12q-11 0 -23 1.5t-21 6.5q-14 5 -19 0t-8 -13 q-1 -3 -3 -8.5t-4 -9.5l1 1q-11 -29 -19 -55.5t-14 -52.5q-14 -69 -12 -137t22 -138q25 42 46 80.5t44 76.5l51 86l-1 -1q3 5 6 8.5t5 8.5q5 7 7 12t5 10v3q4 9 9 18.5t11.5 16.5t17 11.5t26.5 3.5q26 -2 33.5 -16.5t9.5 -34.5q2 -5 2.5 -11.5t1.5 -11.5q8 -56 18.5 -111 t36.5 -112l1 6q3 13 6 24t5 22q4 20 7 38l6 36q4 31 9.5 62.5t12.5 63.5q11 47 22.5 94.5t23.5 95.5q8 32 15.5 63.5t15.5 63.5q0 7 1 11q2 12 5 24t9 21.5t17 15t31 4.5q18 -1 26 -8.5t9.5 -18.5t-1 -23.5t-6.5 -23.5q0 -2 -1 -3t-1 -3q-19 -66 -34 -131t-29 -131 q-13 -62 -25.5 -123t-23.5 -124v1q-3 -19 -7 -38.5t-7 -38.5q-2 -4 -2 -7.5t-1 -7.5q-4 -21 -11 -43.5t-31 -41.5q-2 -2 -7.5 -10t-11.5 -16v1q-8 -11 -16.5 -21.5t-18.5 -18t-23 -11t-30 -0.5q-15 3 -22.5 9.5t-9.5 15.5t0 19.5t5 22.5q2 5 3 11t1 11q-8 30 -14.5 56 t-13.5 52t-13.5 54.5t-14.5 63.5q-26 -32 -42.5 -64.5t-33.5 -64.5v1q-11 -25 -22 -46t-22 -37v1q-10 -18 -16 -32q-8 -15 -15.5 -29t-17 -25.5t-22 -19t-30.5 -8.5q-19 -1 -29.5 5t-16 17t-6.5 25t-2 29q-1 8 -0.5 15.5t-1.5 14.5q-19 83 -21.5 166zM363 656 q-3 -14 1.5 -26.5t22.5 -8.5q25 4 32 22t11 37q0 5 2 11.5t2.5 12.5t-2.5 9t-14 2q-23 -3 -37 -19.5t-18 -39.5z" />
<glyph unicode="&#xe1d;" horiz-adv-x="693" d="M152.5 258q-9.5 111 15.5 229q11 51 29.5 103.5t46.5 106.5l-1 -1q23 46 60.5 77.5t91.5 37.5q47 5 70.5 -17t27.5 -62q3 -20 -2 -42q-7 -34 -28 -65.5t-50.5 -56t-64.5 -38t-70 -11.5q-13 1 -18 -11q-14 -89 -14.5 -179.5t18.5 -179.5q21 35 36.5 70t29.5 70 q14 33 28.5 66t34.5 66l1 4q4 6 8 14.5t6 16.5q5 12 11.5 24t14.5 21t19.5 14t27.5 3h-1q17 -1 25.5 -8t11 -17.5t1 -24t-4.5 -26.5q-2 -8 -3 -14t0 -8q0 -63 9.5 -127.5t32.5 -124.5q7 17 11 31.5t7 29.5q4 16 6.5 31.5t4.5 32.5q2 12 4 24.5t4 24.5q23 111 48 233.5 t49.5 248t48.5 248t45 233.5l6 30q2 5 3 10t3 10l1 7q4 18 12.5 33.5t36.5 18.5q33 2 39 -15.5t2 -42.5q-2 -12 -3.5 -24t-3.5 -24q-4 -19 -7 -38.5t-7 -39.5q-2 -10 -4 -18.5t-5 -17.5l1 1q-16 -58 -30 -118t-28 -123q-18 -87 -35 -175t-34 -177q-16 -88 -32.5 -174 t-34.5 -170q-7 -35 -15 -69.5t-16 -67.5q-2 -5 -2.5 -8.5t-1.5 -7.5q-3 -14 -7.5 -29t-15.5 -28q-5 -5 -9 -11t-9 -12q-6 -11 -13.5 -21t-16.5 -18.5t-20.5 -13t-26.5 -3.5q-18 1 -26.5 7.5t-11.5 16.5t-1 21.5t5 23.5q0 3 1.5 10.5t2.5 9.5v-1q-2 18 -9 39.5t-13 41.5 q-9 27 -17 60t-10 68q-21 -35 -35.5 -67.5t-26.5 -61.5l-16 -38t-19 -41v1q-2 -3 -3 -6.5t-3 -6.5q-10 -23 -24 -42t-46 -22q-16 -1 -26.5 3.5t-17.5 12.5t-11.5 18.5t-7.5 21.5q-30 109 -39.5 220zM309 616.5q6 -10.5 23 -6.5q28 5 43 24t23 46q0 6 1 13t0.5 13t-3.5 9.5 t-12 2.5q-16 -2 -27.5 -9t-20.5 -17.5t-15.5 -23.5t-11.5 -26q-6 -15 0 -25.5z" />
<glyph unicode="&#xe1e;" horiz-adv-x="795" d="M163 644q2 11 6.5 23t10.5 23q28 57 74 92t111 37q50 2 67 -19t3 -71q-7 -26 -14 -50.5t-15 -50.5q-18 -57 -35 -113.5t-29 -112.5q-2 -11 -4 -21t-4 -21l-4 -20q5 11 10.5 22.5t11.5 23.5q14 31 30 66t37 73q13 23 25 49.5t24 54.5q16 34 31 67t35 66q12 19 27.5 34 t41.5 13q20 -2 28 -16t8 -34q-3 -40 -2.5 -87t4 -96.5t9.5 -99.5t12 -96q3 -24 4.5 -33.5t2.5 -15.5t2 -16t2 -36q2 14 5 31.5t5 32.5q11 63 21.5 123.5t21.5 108.5q6 29 13.5 59.5t15.5 60.5q3 8 4.5 16.5t3.5 17.5q1 2 1 5t1 6q2 12 4 23t8 20t17 14t30 5t27.5 -6.5 t10.5 -16t0 -21.5l-4 -24l-2 -6q-8 -42 -16.5 -83.5t-17.5 -83.5q-14 -63 -27 -124.5t-25 -124.5q-6 -28 -10 -54.5t-9 -54.5l-11 -64q-2 -10 -2 -21q-3 -21 -7.5 -40.5t-24.5 -37.5v1q-5 -4 -9.5 -10.5t-9.5 -14.5q-8 -11 -15.5 -21t-17 -17t-22 -10.5t-29.5 -1.5 q-16 3 -24 11t-10 18.5t-0.5 23t3.5 24.5q1 5 1 10t1 10q10 133 -0.5 260t-34.5 263q-19 -41 -38 -79t-37 -75q-25 -51 -49.5 -101t-48.5 -101q-11 -24 -20.5 -48t-20.5 -47q-11 -24 -22 -49.5t-22 -48.5l2 1l-7 -15q-3 -10 -7 -20t-11 -18t-17.5 -12.5t-26.5 -3.5 q-20 1 -29.5 8.5t-12.5 19t-1.5 25t4.5 26.5q8 38 15.5 76t15.5 76q12 56 24.5 111.5t26.5 110.5q8 28 5.5 46t-32.5 30h1q-44 15 -61 56.5t-7 89.5zM256.5 627.5q-0.5 -11.5 2.5 -21t10 -15t19 -2.5q18 4 25 15t9.5 24.5t5 27.5t11.5 24q0 7 2 14.5t2.5 13.5t-3 9t-13.5 2 q-29 -5 -46 -24t-22 -45q-2 -11 -2.5 -22.5z" />
<glyph unicode="&#xe1f;" horiz-adv-x="768" d="M163 610q-2 24 4 49q5 25 17 47q16 32 37 57.5t44.5 42t47 23t44.5 0.5h-1q24 -6 41.5 -21t28 -35.5t13.5 -45t-2 -49.5q-2 -8 -5 -17t-8 -18q-45 -88 -77 -173.5t-50 -171.5q-4 -17 -7.5 -34t-5.5 -34q33 65 60.5 129t54.5 127q5 10 8 19.5t8 19.5h-1q20 47 44.5 97.5 t50.5 104.5v-1q2 3 3 5t3 5q5 11 11.5 22t15.5 20t20.5 14t28.5 3q16 -2 24 -8t10.5 -14.5t1.5 -19t-2 -21.5q0 -2 -1 -8t-1 -9v-88q-1 -44 -1.5 -90.5t0.5 -93t3.5 -92.5t7.5 -88q5 23 9.5 46t9.5 46q12 56 25 110t25 101q7 28 13.5 55.5t12.5 56.5q9 45 17 88t17 88 q8 43 16.5 87t17.5 88q14 62 29.5 123.5t35.5 121.5l1 5q1 4 1.5 5.5t2.5 5.5q2 3 3 8t3 10q5 16 10.5 32.5t14.5 29.5t22 20.5t32 5.5h1q25 -3 31.5 -17.5t1.5 -34.5q-2 -11 -6.5 -22t-9.5 -22q-3 -5 -4 -10t-3 -10q-25 -72 -43 -143.5t-33 -142.5q-9 -42 -17 -82l-16 -80 q-7 -35 -14.5 -76.5t-15.5 -76.5q-5 -23 -10.5 -47.5t-10.5 -47.5q-6 -25 -13 -53.5t-12 -54.5q-9 -42 -17.5 -84.5t-17.5 -86.5q-8 -38 -16.5 -82.5t-16.5 -81.5q-4 -23 -10.5 -47t-18.5 -47q-15 -30 -44 -50.5t-58 -22.5q-18 -1 -27.5 5t-12.5 16t-2.5 22.5t2.5 24.5v-1 q0 5 1 9t1 8q1 62 -1.5 123t-5.5 124q-2 37 -4 69t-3.5 64.5t-1.5 66.5t2 75q-16 -23 -25.5 -47t-17.5 -46q-5 -17 -9 -27v1q-24 -69 -59.5 -146.5t-70.5 -149.5q-16 -33 -32 -67.5t-31 -66.5q-1 -2 -0.5 -2.5t-0.5 -3.5v2q-4 -11 -9 -23.5t-13.5 -22t-21 -15.5t-30.5 -4h1 q-20 1 -28.5 9.5t-11 20.5t0 26t5.5 26q4 24 6.5 48t5.5 49q6 45 13 91t18 93q7 35 15.5 68t20.5 65q2 3 4.5 9t6.5 13l-1 -1q5 8 8 16t5 17t-6.5 14t-35.5 3q-21 -1 -36.5 10t-23.5 29t-10 42zM254 632q5 -16 22 -13q22 4 44 18t30 47q2 17 -7.5 28.5t-29.5 11.5 q-13 0 -22.5 -5.5t-16.5 -14t-12 -19t-8 -20.5q-5 -17 0 -33z" />
<glyph unicode="&#xe20;" horiz-adv-x="744" d="M59 161q4 18 12.5 37t22.5 40l5 7l-1 -1q7 12 16 23t24 16q38 11 53.5 31t20.5 44q2 11 3 20.5t2 20.5q2 9 2.5 18t2.5 17q1 3 1 6.5t1 6.5q2 14 6.5 33t13.5 36q6 8 12.5 17.5t14.5 17.5q7 10 15 19.5t8 12.5q-4 -2 -11 -4q-6 -2 -17 -4.5t-27 -7.5q-17 -5 -27.5 -0.5 t-14 14t0 22t14.5 25.5q5 8 12.5 15t15.5 13q6 5 12.5 11.5l11.5 11.5q65 86 132.5 121.5t133.5 35.5q36 0 70.5 -8.5t67 -23.5t62 -34t56.5 -40q10 -8 14 -17t4 -18.5t-2 -19t-4 -18.5l-1 -5q-13 -49 -24.5 -98t-22.5 -99q-8 -40 -16 -79.5t-16 -79.5l-15.5 -77.5 t-16.5 -77.5l-10 -48l-10 -48q-2 -6 -2 -12q-2 -13 -4.5 -26t-8.5 -23.5t-17 -17.5t-30 -8q-23 -1 -32.5 7t-11.5 21t1.5 28.5t6.5 29.5l57 269q5 20 8.5 40t7.5 40q2 15 6.5 35t7.5 34q5 26 11.5 50.5t14.5 47.5q10 30 9 52t-9.5 38.5t-23.5 29.5t-32 25q-21 13 -49 20.5 t-58 7.5q-24 0 -48.5 -5t-47.5 -16h1q-21 -10 -37 -24t-21 -30q-2 -7 5 -10t15 -5q5 -2 9.5 -3t8.5 -3q17 -9 29.5 -21.5t14.5 -25t-8.5 -23.5t-40.5 -16l1 1q-19 -4 -34 -18t-26.5 -34.5t-19.5 -44.5t-13 -48q-4 -17 -5.5 -32.5t-3.5 -31.5q-3 -32 -8.5 -64.5t-12.5 -66.5 q-8 -40 -15 -82t-6 -77q0 -15 -5.5 -27.5t-15.5 -22.5t-22.5 -15.5t-26.5 -5.5q-10 0 -19.5 2.5t-18.5 10.5v-1q-55 41 -76.5 80.5t-11.5 86.5zM140 125q5 -16 22 -16q13 -1 17 3.5t4.5 11.5t0.5 15t5 14q0 7 4 16t6 16.5t-1 13t-17 5.5q-18 1 -27.5 -15t-13.5 -31 q-5 -17 0 -33z" />
<glyph unicode="&#xe21;" horiz-adv-x="747" d="M78 171q5 22 23.5 43.5t53.5 55.5q16 16 35 34.5t42 42.5q31 32 48.5 52.5t20.5 34.5q2 12 -10.5 26t-41.5 37q-48 38 -65.5 76.5t-9.5 78.5q9 43 46 84.5t94 83.5q32 23 56 23q31 0 46 -35l-1 1q3 -5 6 -9.5t5 -9.5q16 -27 27 -58t3 -69q-4 -26 -26 -62l1 1 q-7 -11 -11 -22.5t-6 -22.5q-2 -8 -3 -16.5t-3 -19.5q0 -5 -0.5 -10t-1.5 -10q37 25 60.5 38.5t41.5 13.5q29 0 42 -30.5t28 -95.5q10 -38 20 -73t21 -73q3 -9 5 -14t3.5 -10t3.5 -10.5t5 -15.5q6 12 8 25.5t4 26.5q1 5 1 9.5t2 9.5q15 79 28 149t27 143q6 33 12 67t13 70 q1 4 1 8t1 9l5 19q4 12 8 26t11.5 25t19.5 18.5t31 7.5q21 0 30 -8.5t10 -20.5t-3 -26t-8 -26q-11 -29 -17 -53t-11 -47q-2 -13 -5 -26t-5 -29q-16 -90 -33.5 -178.5t-35.5 -178.5q-7 -30 -12.5 -59.5t-11.5 -59.5l-3 -10q-4 -19 -8 -37t-10 -33v1q-6 -15 -14 -31t-19 -30 t-25.5 -23.5t-33.5 -10.5q-21 -2 -31.5 3.5t-14 15t-1.5 22.5t5 26q1 5 1.5 9.5t0.5 9.5q1 100 -20.5 188t-51.5 173l1 -3q-1 1 -1 2.5t-1 2.5q-2 6 -5.5 13t-5.5 5q-6 -5 -14.5 -9.5t-16.5 -8.5q-25 -14 -47.5 -31t-27.5 -46q-6 -29 -11 -58l-10 -58q-6 -37 -14 -78 t-15 -78q-2 -7 -3 -16q-2 -23 -10 -45.5t-37 -33.5v1q-17 -7 -29 -6t-21.5 7t-17 15.5t-13.5 18.5q-1 2 -4 5t-4 5q-11 14 -20.5 25t-17.5 21q-34 42 -49 66t-9 50zM175 164q-2 -10 11.5 -23.5t42.5 -34.5q4 9 6 17.5t4 18.5q3 15 5.5 32t4.5 34q1 8 2 17.5t2 17.5 q-36 -32 -56 -50.5t-22 -28.5zM277 656q-9 -29 4 -44.5t34 -14.5q17 0 25 5.5t12 13.5t6.5 19t7.5 22q5 10 4 21t-5.5 19.5t-10.5 14t-12 5.5q-28 1 -40.5 -15.5t-24.5 -45.5z" />
<glyph unicode="&#xe22;" horiz-adv-x="689" d="M167 15.5q-5 30.5 0 58.5q6 39 11 70.5t10 61.5t10.5 62t13.5 72q10 57 -14 105q-22 38 -30 79.5t0 80.5q8 37 28 73.5t51 75.5q32 40 66.5 58.5t71.5 18.5q12 0 26.5 -2.5t28.5 -7.5q30 -11 39 -30.5t4 -42.5q-2 -11 -6 -22.5t-9 -21.5q-2 -4 -3.5 -8t-3.5 -9 q-20 -56 -65 -91.5t-105 -40.5h-9.5t-9.5 1q2 -17 9.5 -30.5t16.5 -26.5h-1q29 -38 54 -38q28 0 76 48q9 10 18 22.5t17 26.5q9 13 18.5 26.5t23 27t33 27.5t47.5 29q-11 -65 -35 -118.5t-57 -93t-72.5 -63.5t-82.5 -30q-9 -2 -19.5 -4t-11.5 -4q0 -46 -11 -92 q-2 -11 -4.5 -22t-5.5 -21t-5.5 -22t-4.5 -23q-4 -18 -7 -37.5t-3 -40.5q7 0 11 3.5t11 8.5l8 7q28 21 52.5 32t48.5 11q26 0 47 -12t41 -34l4 -6q5 -6 10 -11.5t10 -3.5h-1q8 3 9.5 11t3.5 16q1 4 1 8t1 7q17 77 32 146.5t31 138.5q15 69 30.5 138.5t32.5 147.5q4 17 8 33 t10 31q4 9 9 19t12.5 18t18.5 13t26 4q31 -2 36 -22t-1 -42q-16 -53 -28.5 -104.5t-23.5 -99.5q-8 -38 -15 -75.5t-14 -74.5q-7 -33 -14 -71.5t-15 -71.5q-9 -42 -19 -84.5t-22 -87.5q-14 -45 -47.5 -68.5t-67.5 -37.5h1q-17 -8 -30.5 -7t-23.5 7.5t-17 17.5t-13 23 q-8 17 -17 24.5t-19 7.5q-14 0 -32 -10.5t-38 -28.5q-5 -3 -8 -6.5t-8 -7.5q-10 -10 -20.5 -19t-22.5 -14.5t-25.5 -6.5t-28.5 7q-27 14 -32 44.5zM295.5 671.5q1.5 -6.5 6 -11t10.5 -7t12 -2.5q12 -1 21 4t15.5 12.5t11 17t8.5 18.5q7 13 6.5 24t-20.5 13 q-21 -7 -40.5 -20.5t-27.5 -33.5q-4 -8 -2.5 -14.5z" />
<glyph unicode="&#xe23;" horiz-adv-x="652" d="M134 534q6 19 21 34l32.5 32.5l32.5 32.5q33 34 66 67.5t75 65.5h-1q25 19 47.5 28.5t45.5 9.5q30 0 62 -19q34 -21 54 -32t34 -11q16 0 37 18t59 56l14 14t17 11.5t23 4.5t32 -6q-13 -60 -45 -105t-76 -82h1q-19 -17 -36 -23.5t-33 -6.5q-22 0 -37.5 8.5t-31.5 19.5 l-20 12q-36 24 -67 24q-56 0 -117 -72v1q-6 -8 -4.5 -13t19.5 -5q7 0 13 -0.5t13 -1.5q59 -9 100.5 -15.5t69 -16t41 -24t17 -40t-2 -64.5t-17.5 -97q-11 -51 -22.5 -100t-22.5 -97q-6 -23 -11.5 -47t-10.5 -47q-5 -20 -16.5 -41.5t-38.5 -31.5q-26 -9 -44 0t-30 22 q-50 45 -73.5 81t-15.5 74q5 23 20 47.5t40 54.5v-1q14 17 31 34.5t42 17.5q31 2 42.5 13t15.5 28q2 8 3 16.5t1 18.5q1 6 1.5 13t2.5 15q3 14 3 26t-5.5 21t-18 15t-36.5 9q-22 2 -37 5t-31 7q-20 5 -40.5 9.5t-38.5 4.5t-36.5 -4.5t-38.5 -15.5q-22 -11 -40 -6.5t-28 18.5 q-11 17 -5 36zM390 162q-8 -23 5 -38.5t31 -14.5q12 1 16 7t5 14t1.5 17t6.5 15q0 8 3.5 17t6 17t0 13.5t-15.5 7.5q-14 1 -24 -3.5t-16.5 -13t-11 -18.5t-7.5 -20z" />
<glyph unicode="&#xe24;" horiz-adv-x="753" d="M149.5 21q-1.5 18 1.5 39.5t7 42.5q4 15 6 29q15 96 35 193q3 16 6.5 31.5t6.5 31.5l3 16q5 24 11 48.5t15 48t22.5 46.5t34.5 44q-9 0 -14 -1h-2q-6 -2 -19 -7l2 1q-10 -5 -20 -8.5t-19 -3.5q-10 0 -20 5.5t-15 19.5v-1q-5 13 -3 23.5t8 19.5t14.5 17t17.5 15q3 2 7 5.5 t6 6.5q5 6 12.5 13t12.5 13q19 21 40 41.5t44.5 38.5t50.5 31.5t58 19.5q14 2 29 3.5t30 1.5q38 0 72 -9t64.5 -23.5t59 -32t54.5 -34.5l-1 1q5 -3 10.5 -7t10.5 -6q19 -14 16.5 -34t-8.5 -41q-2 -4 -3 -8.5t-2 -6.5q-59 -296 -121 -602.5t-122 -602.5q-1 -3 -1 -4.5 t-1 -4.5q-2 -13 -5 -26t-10 -24t-19.5 -18t-32.5 -8q-21 -1 -31 6t-12.5 18t-0.5 24.5t5 25.5l1 7q19 71 36 141.5t32 141.5q17 85 33.5 167t31.5 166q15 80 32 165t34 165q5 23 11 47t11 47q6 23 11.5 44.5t10.5 44.5q3 14 5.5 26.5t4.5 26.5l2 12q3 17 2 28h1 q-6 16 -27 29.5t-50 23t-63 15t-67 5.5q-31 0 -57 -5t-41 -16q-8 -6 -13 -10.5t-6 -7.5l17 -6l-1 1q28 -7 55 -23q17 -11 27.5 -23.5t6.5 -28.5q-3 -14 -15.5 -26.5t-38.5 -25.5q-57 -27 -87 -70.5t-40 -100.5q-2 -12 -3 -22t1 -18.5t9 -14.5t21 -9q37 -9 51.5 -40t5.5 -76 q-10 -49 -52 -106v1q-5 -8 -9.5 -16t-10.5 -18q-12 -19 -24.5 -38t-28 -33.5t-33.5 -22t-40 -2.5q-19 4 -27 17t-9.5 31zM241 99q15 11 24.5 23t15.5 24t10 24.5t10 24.5q5 11 4 21t-15 12t-23 -8.5t-14 -22.5q-5 -23 -10 -47.5t-2 -50.5z" />
<glyph unicode="&#xe25;" horiz-adv-x="660" d="M67 102.5q-3 29.5 3 58.5q3 20 14 40q50 103 118.5 195t147.5 180h-1q36 39 63 39q16 0 27.5 -11.5t22.5 -32.5q24 -56 46 -110.5t47 -120.5q7 32 13.5 62.5t14.5 59.5q8 38 16 73.5t16 73.5l13 62q4 19 -9 30t-30 15q-35 8 -70 13.5t-67 5.5q-54 0 -108 -21t-108 -80 l1 1q-8 -8 -15 -9.5t-14 -1.5h-5.5t-9.5 -0.5t-9.5 -0.5h-4.5q21 51 51.5 91.5t67.5 69t78 44t84 15.5q11 0 21 -0.5t19 -1.5q23 -4 45.5 -9.5t44.5 -11.5q19 -5 40 -10t47 -9q45 -6 55.5 -30.5t-0.5 -65.5q-5 -17 -8.5 -34t-8.5 -35q-20 -74 -38.5 -147.5t-34.5 -148.5 q-13 -60 -23 -119t-16 -119q-2 -17 -6.5 -34.5t-20.5 -33.5h-1q-4 -4 -9 -11t-8 -13q-6 -11 -13 -21t-16 -17t-20 -10t-26 1q-20 6 -27 17.5t-4 25.5q2 9 7 18.5t12 19.5q2 5 4.5 9.5t4.5 9.5q10 26 11 55.5t-3 53.5q-7 55 -23 104t-34 98q-9 23 -17.5 46t-16.5 46 q-7 21 -12 21q-6 0 -28 -25l-2 -1q-2 -3 -4 -5t-5 -6q-11 -14 -24 -30t-22 -27q-17 -19 -29.5 -36.5t-16.5 -32.5q-3 -14 3.5 -28.5t26.5 -29.5q12 -10 18.5 -27.5t9 -39.5t0.5 -47t-7 -49q-8 -38 -23.5 -71t-37.5 -51q-13 -11 -26 -15t-25 -4q-24 0 -44 10q-22 10 -39.5 30 t-28.5 45.5t-14 55zM162 87.5q9 -20.5 38 -21.5q15 0 21.5 4.5t8.5 12.5t2 18.5t3 22.5q8 35 5 54t-30 20q-15 1 -23 -3.5t-12 -12.5t-6 -18.5t-5 -21.5q-11 -34 -2 -54.5z" />
<glyph unicode="&#xe26;" horiz-adv-x="761" d="M73 155q11 48 43.5 93t87.5 80q17 9 23.5 19t6.5 24q2 13 4 26.5t5 27.5q10 47 32 88t61 78q-3 0 -6.5 -0.5t-6.5 -0.5q-21 -3 -37.5 0.5t-20.5 26.5v-1q-3 16 1 30t12.5 26t20 23t23.5 21l21 18q50 52 119 78t139 26t130.5 -26t91.5 -78l-1 2q17 -23 4 -55v1 q-11 -34 -19.5 -66t-15.5 -63q-9 -42 -15.5 -81.5t-13.5 -81.5q-5 -38 -12.5 -78.5t-15.5 -78.5q-3 -16 -6.5 -32t-8.5 -32q-8 -30 -14.5 -58t-12.5 -56q-10 -47 -18 -91t-15 -89q-8 -45 -16.5 -90.5t-18.5 -91.5q-8 -41 -18.5 -84t-23.5 -87q-3 -13 -4 -30.5t-2 -31.5 q-1 -9 -1 -16.5t-2 -18.5q-2 -6 0 -16q-1 -10 -2 -19t-6 -17t-15.5 -14t-29.5 -9q-24 -3 -35 2t-14.5 15.5t-2 24t4.5 26.5q10 50 18 91.5t16 81t16.5 81t18.5 91.5q12 55 23 109.5t22 109.5q33 165 67.5 329t69.5 331q5 17 -1 27t-18 18q-34 17 -74 32t-83 15 q-23 0 -47 -5.5t-48 -20.5l1 1q-11 -7 -20 -12.5t-11 -10.5q-1 -6 14 -20q18 -14 28 -33.5t5 -41.5q-4 -17 -17.5 -33.5t-40.5 -32.5q-40 -21 -56 -47.5t-23 -58.5q-2 -6 -3 -12.5t-2 -14.5q-32 -182 -60 -363q-6 -25 -23 -39.5t-36.5 -21.5t-37.5 -6.5t-25 6.5h-1 q-48 36 -65.5 85t-6.5 102zM157 106q4 -12 10.5 -22t20.5 -8q6 1 11.5 10.5t9.5 22t5.5 24t0.5 16.5q-4 9 -1.5 22.5t4.5 25.5t0.5 20t-12.5 5q-17 -3 -26.5 -13.5t-15 -24t-6.5 -29.5t0 -31q1 -5 -1 -9.5t0 -8.5z" />
<glyph unicode="&#xe27;" horiz-adv-x="640" d="M134 572q-3 9 2 21q23 43 53 80.5t63 67.5q42 37 87.5 60t91.5 23q18 0 36.5 -3.5t37.5 -11.5q13 -5 25.5 -9t24.5 -9q32 -12 62.5 -25t50.5 -39q20 -25 20.5 -58t-7.5 -69q-2 -9 -4.5 -18.5t-4.5 -19.5q-2 -9 -4.5 -19t-4.5 -20q-12 -55 -23.5 -101t-22.5 -88 q-8 -33 -15 -63.5t-14 -61.5q-8 -38 -14.5 -79.5t-9.5 -87.5q-1 -18 -7.5 -36.5t-32.5 -28.5l3 2q-22 -12 -36 -4.5t-25 16.5q-1 1 -2 1.5t-2 1.5q-4 4 -8 7.5t-7 7.5q-12 11 -24 22.5t-26 22.5q-29 25 -39 59.5t-2 69.5q9 42 40.5 78.5t82.5 53.5q19 7 30.5 15.5t19 19 t11 23.5t5.5 30q2 25 6 48t9 44q4 18 8 35.5t9 36.5q3 9 5 18t5 20q5 24 -6.5 42.5t-34.5 32.5q-32 19 -61 27t-57 8q-62 0 -120 -38t-120 -99l2 2q-12 -15 -24 -19.5t-20.5 -1t-11.5 12.5zM431.5 161q-0.5 -9 4.5 -19q8 -14 20 -23.5t30 -11.5q13 17 14 35t6 35l6 16 t4.5 15.5t-0.5 14t-10 11.5q-12 7 -23 -2t-20 -20q-8 -8 -15 -16t-11.5 -17t-5 -18z" />
<glyph unicode="&#xe28;" horiz-adv-x="650" d="M90.5 181.5q-7.5 70.5 7.5 139.5q9 41 25.5 86t39.5 90.5t52 89.5t62 83q3 3 8 9t8 10q24 28 47.5 53.5t49 45t54 31t61.5 11.5q14 0 31 -3.5t34 -8.5h-1q17 -5 35 -8.5t38 -3.5q16 0 25 10t27 37l-1 -1q9 15 21.5 34.5t30.5 43.5q5 5 8.5 10.5t6.5 8.5h-1l13 19.5 l27 40.5q6 7 16 20t22.5 26t26.5 22t28 9q12 0 19 -5t10.5 -12t4 -14.5t-0.5 -12.5q-3 -14 -10 -22t-15 -17q-3 -3 -5.5 -6t-5.5 -7q-13 -19 -25 -35t-23 -30q-30 -40 -49.5 -69t-34 -60t-26 -71t-24.5 -102l-7 -32q-10 -59 -23.5 -125t-25.5 -123q-8 -35 -15.5 -71.5 t-15.5 -72.5q-8 -35 -16 -71l-16 -72l-5 -24q-2 -12 -6 -22.5t-10.5 -19t-17.5 -13.5t-28 -5q-29 0 -36 13.5t-2 33.5q1 6 2.5 10.5t3.5 9.5q2 4 3 8.5t2 6.5q4 23 10 51.5t12.5 58t12 57t10.5 48.5q15 70 27.5 126.5t23 103.5t19.5 88.5t18 81.5q3 15 -3 23t-20 12 q-35 8 -60.5 12.5t-44.5 4.5q-21 0 -39 -6.5t-36 -20.5t-38.5 -37.5t-46.5 -57.5h1q-51 -68 -90.5 -138.5t-54.5 -144.5q-4 -18 -7.5 -43.5t-5 -49t-0.5 -41t7 -21.5q0 10 1 15l2 10q2 12 7 25.5t10 24.5q3 11 7 20q15 45 36 100.5t48.5 104t63 81t79.5 32.5q25 0 40.5 -8.5 t23 -21t9 -27t-1.5 -27.5q-5 -22 -14.5 -41.5t-18.5 -36.5q-11 -21 -23.5 -42t-29.5 -38.5t-40 -29.5t-56 -13h1q-14 -2 -20 -18.5t-9 -30.5q-13 -34 -20 -63t-15 -59q-3 -11 -5.5 -21.5t-6.5 -21.5l-3 -15q-2 -11 -5.5 -24t-11 -24t-21 -18.5t-34.5 -7.5q-22 0 -30 11 t-13 25q-2 5 -3 9.5t-3 7.5q-35 72 -42.5 142.5zM352 401q-2 -8 0.5 -15.5t10.5 -7.5q14 0 24.5 8.5t19 20t14 24.5t8.5 22q2 12 0 20t-11 8q-15 0 -26.5 -10t-20 -23.5t-13.5 -27t-6 -19.5z" />
<glyph unicode="&#xe29;" horiz-adv-x="762" d="M179 -1.5q-1 18.5 4 36.5l2 9q5 30 9.5 59.5t9.5 58.5q11 68 22.5 136.5t25.5 137.5q8 33 4.5 57t-24.5 46q-27 30 -36.5 64.5t-1.5 69.5q10 46 45.5 87.5t94.5 69.5q28 12 48 12q23 0 36 -15t14 -42q1 -2 2.5 -11.5t3.5 -18.5q3 -22 5 -44t-4 -48q-4 -20 -15 -41.5 t-33 -43.5q-15 -17 -22.5 -44t-12.5 -54l-4 -16q-13 -62 -23.5 -120.5t-21.5 -121.5q-5 -27 -10.5 -57t-10.5 -60q3 2 7 6q40 32 65 47.5t48 15.5q21 0 41 -12.5t46 -37.5q2 -2 4.5 -5.5t5.5 -7.5q5 -6 11 -11.5t14 -1.5q16 6 22 20.5t9 31.5q6 25 11 46t10 43l11 49 q3 16 4.5 30t-3 24t-17.5 15t-39 2q-29 -3 -50.5 7.5t-34.5 29t-17.5 43.5t1.5 51q2 14 8 27.5t13 24.5q29 46 70.5 66.5t84.5 10.5q20 -5 30.5 -14.5t13.5 -21.5q10 36 18.5 73t15.5 69l3 16q3 13 6 26.5t10 24t18.5 17.5t29.5 8q36 2 43.5 -15.5t2.5 -43.5 q-2 -8 -4.5 -16.5t-4.5 -13.5q0 -2 -1 -4t-1 -4q-14 -39 -27.5 -84t-22.5 -89l24 24q17 17 35.5 34t43.5 28l25 -16q-7 -40 -29 -68t-48 -50h1q-51 -45 -75 -92.5t-35 -99.5q-6 -26 -9.5 -54.5t-6.5 -57.5l-2 -16t-3 -17q-12 -57 -45 -103t-96 -76l1 1q-14 -7 -25.5 -11.5 t-24.5 -4.5q-16 0 -28 10.5t-17 39.5q-7 45 -29 45t-63 -34q-12 -8 -24 -17q-5 -5 -12 -10t-12 -9q-1 -1 -3 -2t-3 -2q-18 -11 -37.5 -18.5t-40.5 0.5q-23 9 -24 27.5zM274.5 645q-0.5 -12 3 -21t11 -15t20.5 -5q10 1 17.5 7.5t14 16t12 20.5t11.5 20q-2 10 -3 21t-3.5 20 t-8 14.5t-17.5 5.5q-20 -1 -35 -19.5t-20 -41.5q-2 -11 -2.5 -23zM516 461.5q3 -11.5 16 -13.5q7 -1 14.5 3.5t14 11.5t12 15.5t9.5 15.5q5 11 -3 21t-16 11q-17 2 -28.5 -9t-16.5 -30q-5 -14 -2 -25.5z" />
<glyph unicode="&#xe2a;" horiz-adv-x="626" d="M96 130q-5 44 4 86q6 22 15 45q45 95 101 181.5t127 166.5q50 57 84 57q18 0 32 -21t24.5 -53.5t18 -71.5t14.5 -75l-1 1q3 -13 5 -24.5t5 -21.5q4 -22 8.5 -43.5t9.5 -38.5l71 334q6 29 -2 45.5t-35 27.5h1q-30 10 -56.5 16.5t-51.5 6.5q-62 0 -119 -38.5t-126 -114.5 q-3 -3 -8.5 -9t-1.5 -1q-5 -5 -13 -15t-10 -13l-33 18q71 143 155.5 214t175.5 71q23 0 47.5 -5.5t47 -14t40.5 -17t29 -14.5q12 13 34 39.5t46.5 57.5t48 63t37.5 56q19 30 33.5 48.5t33.5 18.5q18 0 23.5 -13.5t1.5 -33.5q-5 -22 -21 -53.5t-38.5 -66t-47.5 -67.5t-48 -57 q-14 -14 -20.5 -26.5t-10.5 -27.5q-3 -14 -5.5 -27.5t-4.5 -26.5q-3 -14 -5.5 -26.5t-4.5 -25.5q-8 -37 -16.5 -72.5t-16.5 -71.5q-8 -35 -15.5 -70t-15.5 -70q-14 -65 -25 -131.5t-17 -130.5q-3 -13 -8.5 -24.5t-12.5 -22.5q-4 -5 -6.5 -10t-5.5 -10q-11 -26 -27 -42.5 t-46 -16.5q-28 4 -35 18t-2 34q3 14 6 21.5t5 14.5q2 5 3 9.5t2 6.5q7 30 2 61.5t-13 60.5l-4 20q-4 19 -10 45t-11 55q-7 36 -14 74t-13 68.5t-10.5 50t-5.5 19.5q-3 0 -21 -22v-1q-48 -53 -88.5 -111t-70.5 -129q14 8 27.5 12.5t27.5 4.5q22 0 37.5 -16.5t23 -42t8 -56.5 t-5.5 -61q-8 -39 -27 -74.5t-47 -49.5h1q-22 -13 -44 -13q-32 0 -57 23t-41 59t-21 80zM197 139q-5 -23 2 -41.5t32 -18.5q10 0 15 10.5t10 22.5v15.5t-1.5 25.5t-5.5 23.5t-14 10.5q-19 0 -26.5 -16t-11.5 -32z" />
<glyph unicode="&#xe2b;" horiz-adv-x="740" d="M154 637q4 22 20.5 54t40 61.5t52.5 50.5t58 21q19 0 38.5 -12t34 -32t21.5 -45.5t1 -53.5q-2 -9 -3.5 -15.5t-3.5 -11.5q-24 -55 -41 -110.5t-28 -107.5l-12 -60t-11 -60q-5 -21 -8 -42t-8 -42q34 45 70.5 88.5t71.5 87.5q26 31 50 60.5t47 57.5q2 2 2.5 3l1.5 3 q1 5 -4 14t-9 16q-3 3 -3 5q-8 23 -8 48.5t5 51.5q8 37 27 68t45 53t56 34t60 12q24 0 43.5 -10t32 -27t17.5 -38.5t0 -44.5q-6 -28 -24 -59t-45 -53v-1q-2 -2 -6 -5t-6 -4q4 -1 8.5 -2t6.5 -2q25 -10 33.5 -43t0.5 -67q-9 -42 -19 -77.5t-21 -70.5q-12 -38 -22.5 -77.5 t-20.5 -85.5q-3 -14 -6 -29t-5 -31q-2 -15 -3.5 -31t-6.5 -34q-5 -26 -18.5 -45t-48.5 -19q-30 0 -35.5 17.5t-0.5 37.5q13 63 28 124t32 125q9 32 18 68t18 70l5 24q1 7 2.5 16t-0.5 16.5t-8 13t-19 5.5q-9 0 -19.5 -7.5t-22 -19.5t-23.5 -26.5t-23 -29.5q-7 -8 -11.5 -14 t-11.5 -14q-69 -83 -135 -167.5t-117 -178.5q-6 -10 -11.5 -20t-13 -18t-18.5 -12.5t-26 -4.5q-20 0 -29 7t-11.5 17.5t-1 22.5t4.5 24l2 10q14 83 31 169t34 169q6 27 2.5 45t-24.5 32q-40 28 -59.5 70.5t-9.5 87.5zM244 617.5q0 -13.5 3.5 -24.5t10 -18t16.5 -7 q15 3 23 13.5t12.5 24.5t7.5 28.5t9 26.5q2 2 2.5 5t2.5 7q3 16 -3 28t-23 12q-12 0 -20.5 -5.5t-14.5 -13.5t-10.5 -17.5t-8.5 -18.5l-5 -14q-2 -13 -2 -26.5zM616 634q1 -15 13 -15q13 0 25.5 7.5t23.5 19.5t19.5 25.5t14.5 25.5q1 14 -4 25t-19 12q-32 -5 -49 -24.5 t-23 -47.5q-2 -13 -1 -28z" />
<glyph unicode="&#xe2c;" horiz-adv-x="745" d="M158 688q9 45 44 86t86 69q20 10 40 10q15 0 31 -12.5t29 -32t19 -43t2 -44.5q-2 -8 -3 -11.5t-2 -5.5q-32 -71 -50 -139t-32 -135q-7 -30 -13 -59.5t-14 -58.5q38 77 73.5 154.5t67.5 150.5q4 8 7 16.5t7 17.5q6 14 12 28.5t13 27.5q4 7 6.5 14t4.5 15q4 13 9 25.5 t13 22.5t19.5 16t28.5 6q16 0 23 -3t8.5 -9t0.5 -15t0 -21q0 -13 -1.5 -26t-0.5 -27q2 -115 6.5 -232t12.5 -232q6 25 12 51t14 52q15 60 29 118t25 108l8 41q2 8 2.5 14t2.5 13l5 21q-2 14 -10.5 24.5t-31.5 16.5q-30 13 -42 43t-4 63q15 71 55 102.5t92 31.5q91 0 83 -77 q-1 -21 -4 -21q3 0 11 5.5t19 13.5q9 7 24.5 19t33 23.5t33 20t23.5 8.5q7 0 13 -3q15 -10 10 -28q-3 -12 -15.5 -30t-30 -37.5t-36.5 -36.5t-34 -27q-32 -22 -51.5 -47.5t-32 -54t-20 -58.5t-14.5 -61q-9 -44 -17 -79t-15 -65.5t-13.5 -59t-13.5 -58.5q-8 -32 -17.5 -74 t-20.5 -87q-4 -18 -12 -44t-22.5 -50.5t-35.5 -42.5t-51 -18q-18 0 -27.5 5.5t-13.5 15t-3 22t3 25.5l2.5 17.5t0.5 14.5q-6 55 -8 107.5t-4 105.5q-1 34 -1.5 63.5t-1.5 58t-3.5 59.5t-7.5 69q-7 -10 -10.5 -19t-8.5 -19q-32 -77 -66 -152.5t-68 -150.5q-19 -39 -37 -78 t-34 -77l-3 -11q-3 -10 -7.5 -20t-12 -18t-18 -13t-26.5 -5q-19 0 -28.5 5t-12.5 14t-1.5 20t4.5 23q0 3 1 7.5t1 9.5q5 88 22.5 183t37.5 187l8 37q6 29 -1.5 49.5t-26.5 38.5q-30 29 -42.5 67t-4.5 76zM237 681q-5 -21 2 -40t28 -19q16 0 23.5 8.5t11.5 20.5t6 24.5 t8 21.5l-1 -1q2 5 3 9t2 9q4 16 0 27t-21 11q-14 0 -24.5 -7t-18 -17.5t-12.5 -23t-7 -23.5zM697 816q-4 -18 5 -30.5t23 -12.5q17 0 31 12.5t18 30.5q4 17 -5 29.5t-26 12.5q-14 0 -28 -12.5t-18 -29.5z" />
<glyph unicode="&#xe2d;" horiz-adv-x="672" d="M149 599q14 18 25 33.5t22 30.5q20 27 39.5 52.5t36.5 45.5q12 13 27.5 25t32 20.5t33.5 12.5t33 2h-1q81 -9 158 -30t148 -56q12 -6 18 -15.5t7 -20.5t-0.5 -23t-4.5 -24l-2 -11q-6 -32 -11 -61t-10 -57q-9 -50 -18 -97.5t-18.5 -96.5t-19.5 -101t-21 -110 q-9 -44 -39.5 -73t-67.5 -52h1q-26 -16 -47 -16q-16 0 -26.5 9t-17.5 30q-14 36 -26 54t-27 18q-23 0 -83 -51q-4 -6 -14 -14q-18 -17 -39.5 -32t-49.5 -8q-17 5 -25.5 14.5t-11 21.5t-1 25.5t4.5 27.5q1 5 1 8t1 7q0 5 1 10.5t1 10.5q4 40 7.5 73.5t8 65t10 63t13.5 67.5 q5 21 10 43.5t11 47.5q5 20 13.5 41t21.5 41v-1q29 44 69.5 70t88.5 20q25 -3 38 -15.5t18 -30t4 -37.5t-3 -39q0 -18 -5 -38q-11 -55 -46.5 -92t-102.5 -47q-24 -4 -33 -17t-13 -34q-4 -26 -5 -40.5t-2 -25.5q-2 -12 -2.5 -25.5t-4.5 -39.5q-2 -14 -1.5 -23t3.5 -9 q8 0 24 15v-1q30 23 57.5 34t51.5 11q29 0 53.5 -13.5t44.5 -36.5q21 -23 30 -23q2 0 4 7.5t6 25.5q10 44 17.5 80.5t14.5 68.5q5 22 9.5 42t8.5 40q11 48 20 97.5t18 117.5q2 14 -4 34t-15 31v-1q-28 26 -73 42t-95 16q-48 0 -91.5 -16.5t-69.5 -56.5q-14 -19 -36 -36 t-65 -33zM297 434q7 -14 26 -13q26 2 38 21t20 42q5 16 3.5 32.5t-20.5 18.5q-15 1 -25.5 -5.5t-18 -16t-13 -22t-9.5 -23.5q-8 -20 -1 -34z" />
<glyph unicode="&#xe2e;" horiz-adv-x="673" d="M141.5 27q0.5 12 2.5 24l1 -3q0 3 -0.5 6t-0.5 6q2 48 7.5 88.5t13.5 80.5q3 12 5 20.5t4 16t4.5 16.5t5.5 21q8 27 15.5 58.5t14.5 64.5q7 30 27 60t49 52q43 33 91 33q25 0 45 -7q18 -8 27 -19.5t11 -25t0 -29t-6 -30.5q-8 -34 -20 -65.5t-32 -57.5t-50.5 -43.5 t-74.5 -22.5q-5 -1 -9.5 -4t-5.5 -8t-1.5 -7t-0.5 -3v-2.5t-1 -5.5q-2 -9 -4.5 -18t-4.5 -17t-3 -14.5t-3 -13.5q-2 -14 -3.5 -30.5t0.5 -34.5q63 46 119 46q54 0 99 -42q14 -12 22 -18t13 -6q4 0 10.5 14.5t14.5 36.5q28 79 42 144q8 39 14 78t11 79q5 44 12 90t18 100 q3 11 -4.5 20.5t-20.5 16t-30 10.5t-34 4q-14 0 -26 -3t-20 -10q-21 -18 -43 -34t-44.5 -28t-46.5 -19.5t-51 -7.5q-8 0 -18 0.5t-18 2.5q-19 4 -35 10t-28 16t-18.5 25.5t-5.5 37.5v-1q2 47 31 79t71 52h-1q32 15 66 24t66 9q31 0 60 -10q16 -6 27 -6q20 0 35.5 13t33.5 33 h-1q11 12 25 28.5t30 34.5q19 22 38.5 44.5t36.5 38.5t29.5 22t18.5 -4q11 -27 5 -51q-7 -32 -30 -60.5t-48 -55.5q-15 -16 -28.5 -30t-21.5 -28q-6 -10 -10 -17.5t-5 -12.5q-1 -4 2.5 -6.5t14.5 -4.5q36 -11 57.5 -27t30.5 -40t8 -55.5t-10 -72.5q-8 -41 -15.5 -77.5 t-14.5 -71.5q-8 -39 -15 -77t-15 -77q-8 -38 -18 -80.5t-22 -88.5q-8 -27 -20 -45t-28 -30.5t-35 -21.5t-39 -18h1q-21 -9 -35 -10t-22.5 4t-14 14.5t-10.5 20.5q-2 4 -3.5 7.5t-4.5 8.5q-8 12 -21.5 18.5t-29.5 6.5q-14 0 -28 -6t-28 -22q-9 -12 -20.5 -23t-24.5 -19.5 t-28 -12t-33 1.5q-18 4 -27 12t-12.5 18.5t-3 22.5zM287 695q2 -9 12 -11.5t22 -0.5q56 7 104 49q-6 2 -13 3t-13 1q-17 0 -34 -4.5t-35 -10.5h1q-4 -2 -8 -3t-9 -3q-8 -3 -18.5 -7.5t-8.5 -12.5zM290 406q-5 -15 1 -24.5t21 -6.5q27 5 38 25t21 42v11t-1.5 10.5t-5 6.5 t-11.5 0q-25 -6 -40.5 -23.5t-22.5 -40.5z" />
<glyph unicode="&#xe2f;" horiz-adv-x="719" d="M183 582.5q-8 32.5 0 67.5q12 50 41 83t77 55q19 8 38 13t39 4q26 -1 44 -11.5t28 -26.5t12.5 -35.5t-1.5 -38.5q-3 -12 -8 -22.5t-10 -21.5q-5 -10 -9 -22t-9 -30q-3 -9 -3 -20q55 17 90 51.5t54 85.5q2 4 3.5 8.5t3.5 9.5q3 10 7 21t10.5 19.5t15.5 13.5t23 5 q19 0 42 -5t42.5 -16t32 -29t9.5 -43l-21 -97q-12 -58 -24.5 -116t-25.5 -115q-4 -19 -11 -49.5t-11 -49.5l-46 -211q-14 -58 -50 -93t-87 -61l-4 -2q-3 -2 -6.5 -2.5t-20.5 -5.5q-5 0 -10 6t-8 14.5t-2.5 17t6.5 14.5q42 45 68 96t39 101q5 17 8.5 34t7.5 34q5 23 9.5 46.5 t9.5 46.5q3 18 7.5 41t8.5 41q5 20 9.5 41.5t9.5 41.5l2 13q5 17 9 36.5t9 39.5q5 27 9.5 52.5t5.5 45.5q-29 -39 -65 -74t-76.5 -62t-84.5 -42.5t-89 -13.5q-37 1 -68 17t-51.5 41.5t-28.5 58zM280 654q-3 -14 1 -27t11 -22.5t13 -15.5t8 -6l21 10l25 54q2 5 4 9t3 9 q3 15 -2.5 26t-23.5 11q-21 0 -38.5 -14t-21.5 -34z" />
<glyph unicode="&#xe30;" horiz-adv-x="538" d="M82.5 146.5q-5.5 35.5 7.5 75.5q7 23 17.5 44t26 36t36 22.5t48.5 3.5q31 -5 54 -20.5t36 -38t14.5 -48.5t-10.5 -51q-5 -8 -10 -15.5t-10 -15.5q58 22 100.5 62t82.5 84l57 60l28 -12q-18 -49 -41.5 -94t-55 -82.5t-72.5 -67t-93 -48.5q-36 -13 -70 -13q-39 0 -70 15.5 t-50.5 41.5t-25 61.5zM165 535.5q-6 35.5 7 75.5q7 23 18 44t26.5 36t36 22.5t48.5 3.5q30 -5 53 -20.5t36 -38t14.5 -48.5t-10.5 -51q-4 -8 -9 -15.5t-10 -15.5q58 22 100 62t83 84l57 60l28 -12q-18 -49 -41.5 -94t-55 -82.5t-72.5 -67t-93 -48.5q-36 -13 -70 -13 q-39 0 -70 15.5t-50.5 41.5t-25.5 61.5zM166 189q-2 -16 1.5 -29.5t24.5 -11.5q18 3 27.5 15.5t13.5 24.5q9 39 -23 41q-20 1 -30 -10.5t-14 -29.5zM247 562.5q0 -7.5 2.5 -13.5t8.5 -9.5t17 -2.5q17 3 27 15.5t14 24.5q9 39 -23 41q-20 1 -30.5 -10.5t-14.5 -29.5 q-1 -8 -1 -15.5z" />
<glyph unicode="&#xe31;" d="M-166 1128q-2 25 3 46q13 61 68 100q20 14 41 23.5t43 9.5q31 0 55 -24q26 -23 36.5 -53t2.5 -64q-2 -11 -7.5 -23.5t-13.5 -26.5q-8 -12 -11.5 -20.5t-5.5 -16.5q-3 -14 12.5 -15.5t36.5 0.5q71 8 128 48.5t102 100.5l-1 -1q6 9 12 17.5t12 16.5q10 13 21 27.5 t26.5 31.5t37 37t52.5 46q-25 -98 -70 -176t-102.5 -133t-122.5 -84t-131 -29q-34 0 -69 8.5t-67 22.5q-82 37 -88 131zM-78 1156q-2 -18 6.5 -31.5t30.5 -12.5q18 1 27 17.5t14 29.5q3 18 -4 34t-25 18q-9 1 -17.5 -4.5t-15.5 -13.5t-11 -18t-5 -19z" />
<glyph unicode="&#xe32;" horiz-adv-x="601" d="M194 644q9 40 35.5 74t62 59.5t75 40t74.5 14.5q27 0 52.5 -7.5t53.5 -21.5q39 -20 62 -44.5t33.5 -53t10.5 -61.5t-7 -69q-6 -26 -14 -55.5t-17 -59.5q-10 -32 -18.5 -64.5t-15.5 -64.5q-5 -23 -10 -47t-10 -49q-5 -23 -9 -45.5t-9 -45.5q-2 -12 -5 -25t-7 -27 q-2 -9 -5.5 -24t-5.5 -23l-6 -27q-5 -23 -17 -40t-43 -17t-36.5 13.5t-0.5 35.5q2 7 3 13t3 12q5 11 8 22.5t6 24.5q2 11 4 23t4 23q2 13 4 25t4 23l59 278q9 43 19.5 87.5t24.5 85.5q-1 15 -15 32.5t-34.5 33.5t-44.5 26.5t-43 10.5q-4 0 -9 -1q-63 -12 -106.5 -56 t-72.5 -132l-35 -1q-11 64 -2 104z" />
<glyph unicode="&#xe33;" horiz-adv-x="587" d="M-67 1135q15 70 63 111.5t115 43.5q47 0 77 -7.5t45.5 -25.5t18 -48t-6.5 -74q-6 -33 -22 -61.5t-38.5 -49.5t-50 -33t-56.5 -12q-79 0 -119 43t-26 113zM27 1138q-5 -34 13.5 -46.5t45.5 -14.5q27 -1 45 17.5t26 48.5q1 10 0 20.5t-5 18t-11 11.5t-19 2h1q-5 -1 -9.5 -1 t-9.5 -1q-12 -2 -24.5 -4t-23 -7.5t-18.5 -15.5t-11 -28zM187.5 597.5q-0.5 25.5 4.5 46.5q9 40 35.5 74t62 59.5t75 40t73.5 14.5q27 0 52.5 -7.5t53.5 -21.5q39 -20 62.5 -44.5t34 -53t10.5 -61.5t-7 -69q-6 -26 -14.5 -55.5t-17.5 -59.5q-10 -32 -18.5 -64.5t-15.5 -64.5 q-5 -23 -10 -47t-10 -49q-5 -23 -9 -45.5t-9 -45.5q-2 -12 -5 -25t-7 -27q-2 -9 -5.5 -24t-5.5 -23l-6 -27q-5 -23 -16.5 -40t-42.5 -17t-37 13.5t-1 35.5q2 7 3.5 13t3.5 12q5 11 8 22.5t6 24.5q2 11 4 23t4 23q2 13 4 25t4 23l59 278q9 43 19.5 87.5t24.5 85.5 q-1 15 -15.5 32.5t-35 33.5t-44 26.5t-43.5 10.5q-4 0 -9 -1q-62 -12 -106 -56t-73 -132l-35 -1q-5 32 -5.5 57.5z" />
<glyph unicode="&#xe34;" d="M-471 1083q-11 24 0 43t27 35h1q6 4 10 9q1 0 10.5 10t13.5 14q85 71 147.5 110.5t114.5 39.5q45 0 93.5 -27t108.5 -75q5 -5 15.5 -14t21.5 -20q2 -2 4.5 -3.5t10.5 -7.5l1 -1q27 -24 46 -42t30.5 -33.5t15.5 -31t0 -33.5q-6 -29 -37 -69.5t-87 -109.5q-2 2 -9.5 12.5 t-8.5 12.5q-4 5 -6 12q-8 40 -39.5 75t-77 61.5t-99 41.5t-105.5 15q-29 0 -55 -4.5t-47 -15.5q-5 -2 -7.5 -4t-6.5 -4q-11 -8 -24 -14t-26 -6q-10 0 -19.5 6t-16.5 18zM-213 1219q41 -6 75.5 -19.5t64.5 -32t57.5 -40t54.5 -43.5v1q8 -6 14.5 -12.5t14.5 -12.5q5 -4 7 -6.5 t4 -4.5q7 -8 8 -7v-1q10 12 -8 27q-45 42 -91.5 83.5t-100.5 73.5q-11 7 -23.5 10.5t-22.5 3.5q-14 0 -26 -4t-28 -16z" />
<glyph unicode="&#xe35;" d="M-487.5 1077q0.5 11 5.5 21t13.5 18.5l16.5 16.5l40 35q40 35 80 69.5t80 67.5q41 32 81 32q14 0 27 -3.5t27 -10.5q51 -26 92.5 -59t82.5 -66h-1q7 -5 11.5 -10t10.5 -10q4 -6 12 -10q4 -3 7 -6t5 -2q3 2 3.5 6.5t1.5 10.5q0 3 -0.5 6.5t1.5 9.5v1l1 1l-1 -1 q2 14 3.5 26.5t3.5 26.5q1 14 3.5 28.5t4.5 28.5l-1 -1q3 22 17.5 39.5t40.5 17.5t32 -16t4 -36q-1 -5 -2 -11t-1 -11q-8 -63 -15.5 -123.5t-16.5 -123.5q-2 -24 -12 -42.5t-25 -33.5t-33.5 -27t-37.5 -21q-21 -10 -32.5 -10t-17.5 5.5t-8 16t-4 21.5v1q-1 3 -1.5 7.5 t-2.5 6.5q-6 8 -18.5 15.5t-24.5 12.5q-42 22 -83 42.5t-85 37.5q-23 10 -46.5 16t-47.5 6q-23 0 -47 -7t-50 -26q-11 -8 -22 -15t-22.5 -9.5t-22.5 1.5t-20 18q-7 11 -6.5 22zM-247 1187q55 -10 105.5 -33t98.5 -49q29 -15 56.5 -29t56.5 -24q-2 0 -2 2q-23 25 -51 49 t-58.5 46t-62.5 41.5t-62 34.5l1 -1q-8 3 -14.5 5t-11.5 2q-15 0 -29 -13t-27 -31zM70 1042l19 3q-5 2 -9.5 3.5t-9.5 3.5q4 -7 0 -10z" />
<glyph unicode="&#xe36;" d="M-497 1141q7 21 30 38q26 18 49 36.5t44 36.5q27 23 55.5 46t61.5 45q31 18 62 18q17 0 34 -5t31 -13q2 -1 3.5 -1.5t2.5 -1.5q23 -12 45 -25t43 -28q20 -14 38.5 -25t37.5 -11q16 0 33 12t39 41q16 23 36.5 32t42.5 9q14 0 27.5 -3.5t23.5 -11.5q43 -27 64 -70t9 -112 q-3 -23 -19 -47t-42 -47q-8 -8 -17 -15t-17 -14q-23 -19 -44.5 -40t-34.5 -49q-9 -21 -31.5 -33.5t-41.5 -14.5q-17 -2 -26 0.5t-14 7.5t-7 12t-3 15l-1 9l-1 -1q-6 41 -34.5 78t-70.5 65.5t-93 45t-102 16.5q-23 0 -47 -4.5t-44 -12.5q-5 -3 -12 -7t-12 -6q-7 -3 -13 -6 l-12 -6q-9 -4 -18.5 -7.5t-18.5 -4t-17 3.5t-14 14q-12 20 -5 41zM-318 1211q24 7 59.5 3t75 -14.5t80 -26.5t74.5 -33t58.5 -33.5t32.5 -29.5q-10 18 -31 38t-47 39t-55 36t-54.5 29.5t-46 20t-29.5 7.5q-5 0 -22.5 -5t-37.5 -11t-37 -11.5t-20 -8.5zM122 1199 q-3 -16 8 -40v-2v1q5 -16 16 -30q6 -7 8.5 -13.5t6.5 -12.5q3 -7 5 -12t4 -4q13 3 18.5 15.5t10.5 26.5q2 4 3.5 8.5t3.5 8.5l-1 -2q13 35 1 55q-1 2 -3 7l-4 10v-1q-5 11 -10 20t-12 9q-8 0 -21 -7q-29 -14 -34 -37z" />
<glyph unicode="&#xe37;" d="M-588 1110q1 11 6.5 20t14.5 17t19 16l3 3q12 9 23 18t22 17q15 13 29.5 24.5t26.5 22.5q52 44 85 67t65 23q15 0 30.5 -5.5t32.5 -16.5t38 -28t47 -39l70 -60q7 -7 12.5 -11.5t11 -8.5t11 -8.5t13.5 -11.5q14 25 17 45q5 20 3.5 39t-3.5 38v9l-1 -1q-2 12 -2.5 22 t3.5 19t14 15.5t30 10.5q32 7 48 -6t13 -42q-2 -20 -5 -41.5t-5 -41.5q-1 -8 -3 -17.5t-2 -16.5l-4 -20t-4 -19q-5 -22 -8.5 -43.5t-1.5 -39.5q0 -11 -0.5 -21t-2.5 -19q-6 -30 -25 -56t-47 -43q-13 -8 -24 -10.5t-22 -2.5q-27 0 -46 15t-34 31q-9 8 -17 17t-15 16 q-15 16 -27.5 28.5t-27.5 23t-34.5 18t-47.5 13.5q-29 7 -58.5 11.5t-58.5 4.5q-21 0 -43 -3t-45 -10h1q-8 -3 -16.5 -5.5t-17.5 -2.5q-26 0 -36 24l1 -1q-7 12 -6 23zM-377 1183q55 -5 98.5 -18t80 -34t69 -50.5t65.5 -69.5q2 9 4 21.5t-6 18.5q-20 17 -35.5 33t-29.5 32 q-25 26 -58.5 45.5t-76.5 45.5q-26 14 -46 14q-16 0 -32.5 -10.5t-32.5 -27.5zM84 992q5 26 10 51l10 50q9 48 19.5 100t19.5 100q3 11 6.5 23.5t10.5 22.5t19 15.5t32 2.5q16 -2 23 -7.5t9 -14t0 -18t-4 -18.5l-32 -148q-2 -20 -6 -43t-9 -46q-3 -17 -7 -32.5t-7 -30.5 l-2 -7q-2 -10 -5.5 -20t-9.5 -18.5t-16.5 -13.5t-26.5 -5q-23 1 -30 19t-4 38z" />
<glyph unicode="&#xe38;" d="M-418 -314q2 10 5.5 21t9.5 24q13 26 29 49t35.5 39.5t45 25t58.5 5.5q34 -4 45 -24.5t13 -51.5q2 -29 -3 -54.5t-10 -50.5q-4 -19 -7 -37.5t-4 -38.5l-34 -161q-2 -11 -5.5 -22t-10 -20t-17.5 -14t-29 -4q-17 1 -24.5 6.5t-10 13.5t-0.5 18.5t4 20.5l15 73q4 16 6.5 30 t-0.5 24.5t-13.5 17t-31.5 8.5q-44 3 -59.5 31.5t-6.5 70.5zM-326.5 -326.5q3.5 -10.5 21.5 -9.5q24 2 29 16t9 34q-3 4 -0.5 11.5t4 15t-0.5 12.5t-13 4q-20 0 -31.5 -18.5t-16.5 -38.5q-5 -16 -1.5 -26.5z" />
<glyph unicode="&#xe39;" d="M-503 -310q3 19 10 33q20 49 58.5 87.5t91.5 45.5q30 3 46 -7t23 -27t5.5 -39.5t-6.5 -45.5q-10 -45 -21 -89.5t-26 -88.5q-6 -17 -3 -28t11 -18.5t18 -11.5t19 -6q5 -2 6.5 2.5t3.5 9.5q2 7 2 15v16q1 5 0.5 7t1.5 9q7 31 11.5 64t9.5 65q2 17 5.5 36t6.5 37 q2 15 5.5 31t11.5 29.5t22.5 22t37.5 7.5q19 -1 27 -8t9.5 -17t-1.5 -22.5t-7 -25.5q-2 -5 -2.5 -8.5t-1.5 -6.5l-27 -127q-6 -29 -12 -66.5t-12 -72.5q-2 -4 -1.5 -7t-0.5 -6q-6 -37 -28.5 -58.5t-52.5 -38.5q-35 -17 -51.5 -8.5t-25.5 35.5l-12 -11l3 2q-19 -15 -33.5 -21 t-25.5 -6q-23 0 -30 19t-3 50q2 13 4 27.5t5 27.5q2 10 4 17.5t5 15.5q6 20 3.5 31.5t-25.5 18.5h1q-41 10 -54.5 39.5t-4.5 70.5zM-417.5 -320.5q2.5 -13.5 19.5 -9.5q12 2 19 9t11.5 15.5t7.5 18.5t6 18q0 6 2.5 13t3 13t-2.5 9t-13 1q-21 -4 -33.5 -21t-17.5 -37 q-5 -16 -2.5 -29.5z" />
<glyph unicode="&#xe3a;" d="M-332 -249q5 36 21 55.5t37.5 28.5t46 11.5t45.5 5.5q25 4 40 -2.5t22.5 -20t9 -32t-0.5 -37.5q-13 -55 -44 -85t-80 -29q-23 1 -42.5 7t-33 18t-20 31.5t-1.5 48.5z" />
<glyph unicode="&#xe3b;" />
<glyph unicode="&#xe3c;" />
<glyph unicode="&#xe3d;" />
<glyph unicode="&#xe3e;" />
<glyph unicode="&#xe3f;" horiz-adv-x="894" d="M90.5 29q3.5 30 14.5 83q37 174 75.5 345t78.5 347q9 42 30 60t59 18q24 0 44 -1.5t35 -1.5q21 0 33 4t20 15.5t13.5 32t12.5 53.5q1 3 2 17.5t9 48.5q3 16 8.5 32t13.5 28.5t18 20.5t24 8q22 0 30 -12t7 -29.5t-6.5 -37.5t-8.5 -35l-11 -55q-4 -18 -10 -38.5t-9 -37.5 q-4 -17 7 -23t43 -6q43 0 52 34q1 6 0.5 12.5t1.5 17.5q3 68 20 144q5 22 17 41t43 19q16 0 24 -5t10.5 -13t1.5 -18.5t-3 -20.5q-2 -8 -3.5 -15.5t-3.5 -15.5l-16 -95q-3 -21 -5 -41t1 -38.5t13 -36t31 -32.5q40 -29 52.5 -71.5t2.5 -88.5q-9 -42 -34.5 -82.5t-67.5 -75.5 q-16 -13 -16 -18q-1 -3 13 -16q58 -54 79.5 -119.5t8.5 -124.5q-14 -68 -67.5 -124t-144.5 -93q-32 -13 -46.5 -29.5t-19.5 -43.5q-10 -44 -21.5 -85.5t-23.5 -83.5q-7 -19 -21 -38.5t-42 -19.5t-33.5 15.5t-1.5 33.5q11 54 30.5 105t29.5 97q2 13 -6 13q-5 0 -14.5 -1 t-19.5 -1l-39 1q-12 0 -21 -2.5t-17 -11t-14 -24.5t-12 -42q-6 -29 -10.5 -56.5t-12.5 -62.5q-5 -23 -17 -42.5t-40 -19.5q-31 0 -37 16t-1 37q4 22 11.5 45.5t14.5 46t13.5 42t9.5 33.5q5 21 -8.5 30.5t-43.5 12.5q-53 4 -81.5 9.5t-40 20.5t-8 45zM186 100q-5 -21 1 -32 t19 -16t30.5 -6t36.5 -1q18 0 24.5 6.5t8.5 14.5q2 9 3 22.5t4 27.5l36 126q5 24 10 48.5t10 50.5q2 15 -1.5 24t-11 14t-17.5 6.5t-20 1.5q-14 0 -28 3t-26 3q-11 0 -16 -15.5t-9 -32.5q-8 -37 -14 -72.5t-14 -72.5q-5 -25 -13 -50t-13 -50zM277.5 505.5q1.5 -5.5 7 -8 t14.5 -3.5t22 -4h-1q18 -3 32 -5t22 -2q16 0 23 14.5t15 56.5l17 81q5 23 13.5 50.5t14.5 56.5q5 23 -2 29.5t-18 6.5q-9 0 -21 -1.5t-23 -1.5q-16 0 -22 1t-8 1.5t-2.5 1.5t-5.5 1q-9 0 -16.5 -6.5t-11.5 -23.5l-12 -57q-3 -14 -6 -29.5t-6 -29.5t-6.5 -28.5t-6.5 -28.5 l-12 -55q-2 -11 -0.5 -16.5zM387 89q-5 -24 4.5 -32.5t39.5 -8.5q36 0 59 8t31 44q0 6 1 12t3 14q6 27 13.5 53t14.5 49q5 35 12 70t15 71q2 10 0.5 17.5t-21.5 7.5q-38 0 -68.5 -26t-41.5 -66q-15 -56 -33 -110.5t-29 -102.5zM490 509q-3 -12 1 -20t34 -8q72 0 91 88 q14 65 21.5 103.5t4.5 59t-17.5 27t-44.5 6.5q-13 0 -20.5 -5t-12.5 -13t-7.5 -18.5t-5.5 -20.5q-12 -51 -22.5 -99.5t-21.5 -99.5zM601 69.5q1 -3.5 6 -3.5q4 0 9.5 3t11.5 7h-1q49 32 77 64t38 79q9 44 -5 84.5t-55 66.5q-5 2 -8.5 4t-5.5 2q2 -1 -1 -20.5t-8 -45.5 t-10.5 -53.5t-8.5 -44.5q-6 -27 -15.5 -61t-23.5 -75q-1 -3 0 -6.5zM699 542q7 0 17.5 10.5t20.5 25t18 30.5t11 28q1 7 1 22t-3.5 30t-11 26.5t-19.5 11.5h-7z" />
<glyph unicode="&#xe40;" horiz-adv-x="323" d="M79 103.5q0 18.5 4 36.5q2 5 2.5 9t2.5 8v-1q19 53 32 103t23 98q5 23 9.5 45t9.5 45q3 20 8 46t10 47q11 50 22.5 95t30.5 96q2 5 2.5 8.5t1.5 7.5q3 12 7 25t11.5 23t19 16.5t29.5 6.5q26 0 35.5 -12t5.5 -29q-3 -14 -9.5 -32t-14.5 -30q-5 -23 -13.5 -60.5 t-19.5 -80.5q-14 -55 -27 -106.5t-19 -83.5l-1 -7q-2 -11 -3.5 -20.5t0.5 -17t9 -12.5t21 -7q24 -3 37.5 -16t19.5 -31t6 -39t-4 -40q-12 -56 -43 -109t-87 -90h1q-17 -11 -33 -16t-29 -5q-26 0 -40.5 17t-14.5 52v-1q0 6 -0.5 12.5t-0.5 12.5l1 -1q-2 19 -2 37.5zM169 76 q28 29 44.5 54t21.5 50q1 8 1.5 17.5t-1 17.5t-6 13.5t-12.5 5.5q-14 0 -20.5 -7.5t-9.5 -19.5q-5 -26 -8 -54t-9 -66q-2 -8 -1 -11z" />
<glyph unicode="&#xe41;" horiz-adv-x="624" d="M79 103.5q0 18.5 4 36.5q2 5 2.5 9t2.5 8v-1q19 53 32 103t23 98q5 23 9.5 45t9.5 45q3 20 8 46t10 47q11 50 22.5 95t30.5 96q2 5 2.5 8.5t1.5 7.5q3 12 7 25t11.5 23t19 16.5t29.5 6.5q26 0 35.5 -12t5.5 -29q-3 -14 -9.5 -32t-14.5 -30q-5 -23 -13.5 -60.5 t-19.5 -80.5q-14 -55 -27 -106.5t-19 -83.5l-1 -7q-2 -11 -3.5 -20.5t0.5 -17t9 -12.5t21 -7q24 -3 37.5 -16t19.5 -31t6 -39t-4 -40q-12 -56 -43 -109t-87 -90h1q-17 -11 -33 -16t-29 -5q-26 0 -40.5 17t-14.5 52v-1q0 6 -0.5 12.5t-0.5 12.5l1 -1q-2 19 -2 37.5zM169 76 q28 29 44.5 54t21.5 50q1 8 1.5 17.5t-1 17.5t-6 13.5t-12.5 5.5q-14 0 -20.5 -7.5t-9.5 -19.5q-5 -26 -8 -54t-9 -66q-2 -8 -1 -11zM381 103.5q0 18.5 4 36.5q2 5 2.5 9t2.5 8v-1q19 53 32 103t23 98q5 23 9.5 45t9.5 45q3 20 8 46t10 47q11 50 22.5 95t30.5 96 q2 5 2.5 8.5t1.5 7.5q3 12 7 25t11.5 23t19 16.5t29.5 6.5q26 0 35.5 -12t5.5 -29q-3 -14 -9.5 -32t-14.5 -30q-5 -23 -13.5 -60.5t-19.5 -80.5q-14 -55 -27 -106.5t-19 -83.5l-1 -7q-2 -11 -3.5 -20.5t0.5 -17t9 -12.5t21 -7q24 -3 37.5 -16t19.5 -31t6 -39t-4 -40 q-12 -56 -43 -109t-87 -90h1q-17 -11 -33 -16t-29 -5q-26 0 -40.5 17t-14.5 52v-1q0 6 -0.5 12.5t-0.5 12.5l1 -1q-2 19 -2 37.5zM471 76q28 29 44.5 54t21.5 50q1 8 1.5 17.5t-1 17.5t-6 13.5t-12.5 5.5q-14 0 -20.5 -7.5t-9.5 -19.5q-5 -26 -8 -54t-9 -66q-2 -8 -1 -11z " />
<glyph unicode="&#xe42;" horiz-adv-x="721" d="M230.5 1278q-0.5 9 3.5 16.5t10 14t13 13.5q2 1 4 3t3 4q7 6 12.5 10.5t11.5 8.5q2 2 5 3.5t4 2.5q79 84 155 119.5t148 35.5q69 0 134.5 -25t128.5 -60q31 -16 51.5 -25t36.5 -9q20 0 42.5 18t64.5 56l1 1q5 4 8 7l8 8q8 8 16.5 16t20 15.5t28.5 13.5t41 11 q-20 -48 -48 -92.5t-61 -78.5t-71.5 -54.5t-79.5 -20.5q-26 0 -53 8t-56 27q-27 18 -58.5 31t-66.5 25q-16 6 -32.5 11.5t-32.5 12.5q-14 5 -26.5 8.5t-24.5 3.5q-19 0 -37.5 -7.5t-38.5 -24.5l-32 -21q51 -4 104.5 -10.5t105.5 -18t100 -29t88 -44.5q17 -14 26 -27.5 t6 -29.5q-6 -29 -43 -45q-29 -13 -48.5 -30t-32.5 -36.5t-21 -41.5t-13 -46q-2 -10 -3.5 -19t-3.5 -20l-4 -19q-11 -59 -21.5 -111.5t-23.5 -115.5q-20 -93 -41 -184.5t-43 -179.5l-2 -10q-6 -23 -7.5 -39.5t17.5 -31.5q32 -27 41.5 -64.5t1.5 -78.5q-9 -42 -38.5 -83 t-72.5 -70q-15 -11 -29 -17t-28 -6q-17 0 -28 10t-19 34q-11 37 -14.5 74.5t13.5 78.5q35 80 57 158t39 156q5 25 10 49.5t10 50.5q5 27 11.5 60t12.5 59q4 20 8.5 39t9.5 39q6 25 13.5 56.5t13.5 60.5q4 22 7.5 39t6.5 32t5 30.5t5 33.5q1 8 1.5 16t2.5 16q10 46 32.5 84 t64.5 73q-29 9 -54 19.5t-50.5 20.5t-53.5 17t-62 9q-18 1 -44 2.5t-53.5 0.5t-55.5 -6t-50 -17q-12 -7 -22 -10.5t-21 -3.5t-19.5 4.5t-16.5 15.5q-7 11 -7.5 20zM503 83q-2 -6 1 -12t10 -4q20 7 28.5 22t12.5 30q5 20 3.5 39t-15.5 33q-18 0 -21 -13q-5 -24 -9.5 -47.5 t-9.5 -47.5z" />
<glyph unicode="&#xe43;" horiz-adv-x="717" d="M233 1286q2 9 5 19t8 19l-1 -1q13 32 33.5 64t49.5 60q72 67 158.5 116t174.5 80l-1 -1q32 13 66 13q67 0 112 -55q32 -42 68 -80.5t74 -76.5l-1 1q6 -6 11.5 -12.5t11.5 -11.5q14 -15 21.5 -30t3.5 -31q-3 -14 -17 -29t-37 -27q-84 -46 -127 -112.5t-59 -143.5 q-8 -39 -12 -77q-8 -48 -16 -95t-19 -95q-14 -66 -29.5 -130.5t-31.5 -129.5q-11 -43 -21 -85.5t-20 -84.5q-4 -15 -7 -28t-1.5 -24.5t9.5 -20.5t25 -15q29 -14 38.5 -46t1.5 -72q-5 -21 -14.5 -43.5t-23 -42.5t-30.5 -37t-37 -27q-33 -17 -54.5 -26t-35.5 -9 q-30 0 -32.5 24.5t9.5 80.5q23 107 45.5 212.5t45.5 212.5q9 40 21 96.5t25 116t25 115.5t21 97q6 29 12 59t8 60q1 19 3.5 39.5t6.5 40.5q14 66 53.5 124t115.5 101q14 8 23.5 16t10.5 13q3 11 -21 33q-24 26 -48 53.5t-47 59.5v-1q-17 24 -37.5 34.5t-43.5 10.5 q-19 0 -41.5 -7t-45.5 -19q-51 -28 -104 -61t-101 -70q-40 -31 -63 -80q-4 -9 -7 -17.5t-5 -16.5q-7 -32 5 -57t37 -45v1q20 -16 41 -16q14 0 31 7.5t35 20.5q-4 2 -7 5q-11 5 -22 12.5t-17 20.5q-9 19 -14 39.5t0 42.5q5 20 20 42q21 29 52 40.5t63 7.5q34 -5 54.5 -23.5 t24.5 -56.5q1 -14 -0.5 -26t-3.5 -26q-11 -49 -41 -96t-73 -74q-29 -20 -57.5 -29.5t-56.5 -9.5q-26 0 -49.5 8.5t-46.5 22.5q-47 32 -69 83.5t-11 105.5zM506 1305q-2 -12 4.5 -20.5t20.5 -8.5q25 -2 26 24q2 14 -3 21.5t-19 7.5q-12 0 -20 -6.5t-9 -17.5zM564.5 77.5 q1.5 -6.5 16.5 -5.5q11 0 18.5 6.5t12 16t7.5 21t6 21.5q3 9 4 18.5t-0.5 17t-7.5 12t-17 3.5q-13 -2 -17.5 -8t-6 -15t-2.5 -19t-7 -19q5 -6 1.5 -15.5t-6.5 -18.5t-1.5 -15.5z" />
<glyph unicode="&#xe44;" horiz-adv-x="589" d="M51 1353q14 58 39 105.5t56.5 81.5t68 52.5t74.5 18.5q23 0 41 -7q56 -19 101.5 -52.5t74.5 -84.5q20 -35 32 -52.5t19 -17.5q8 0 25 19t46 55q22 26 43 42.5t42 16.5q14 0 31 -12t29 -27q12 -16 28 -31.5t34 -21.5h-1q32 -13 43 -28.5t7 -35.5q-4 -16 -16.5 -33 t-31.5 -36q-12 -10 -23 -23q-13 -14 -26 -27t-29 -23q-32 -24 -54 -52t-37.5 -59.5t-25.5 -65t-17 -68.5l-16 -78q-20 -91 -40.5 -182t-41.5 -183l-38 -168q-2 -10 -5 -19q-3 -14 -5.5 -26.5t0 -23t11.5 -19t28 -12.5q17 -4 28 -16t16.5 -29.5t6 -37.5t-3.5 -41 q-5 -19 -13 -37.5t-20 -33.5q-10 -13 -22 -26t-26 -22q-8 -5 -16 -12.5t-18 -16.5q-13 -13 -26 -24.5t-26 -18t-25.5 -5.5t-25.5 14q-11 11 -19 29t-11.5 39.5t-2 45t10.5 46.5q38 98 64.5 194t46.5 193q10 46 19 92t18 93q8 45 16.5 89.5t18.5 89.5q5 26 11 52t13 52 q12 49 26 95.5t35.5 89t54.5 81.5t84 73q11 7 23 15.5t14 15.5q1 7 -16 19q-17 10 -24 20q-9 7 -17.5 14t-15.5 7q-6 0 -13.5 -6.5t-20.5 -23.5v1q-5 -8 -8 -11q-41 -51 -66 -76t-50 -25q-23 0 -41.5 24t-44.5 67q-23 38 -49.5 72.5t-64.5 54.5q-42 22 -72 22 q-26 0 -52.5 -17.5t-56.5 -52.5q-10 -13 -22.5 -28.5t-23.5 -32.5q-6 -8 -14.5 -19.5t-14.5 -19.5zM402 69q41 23 58 45t9 55q-2 9 -5 16t-16 5t-18.5 -10.5t-7.5 -17.5q-5 -21 -9 -42t-11 -51z" />
<glyph unicode="&#xe45;" horiz-adv-x="601" d="M194 637q8 39 34.5 73t61.5 59t74 39.5t73 14.5q27 0 52.5 -7.5t52.5 -21.5q39 -20 62 -44t33.5 -52.5t10.5 -60.5t-8 -68q-5 -26 -13 -55t-17 -59q-10 -32 -18.5 -64t-15.5 -64q-3 -12 -11 -49.5t-19 -91.5t-25 -120t-28 -134q-14 -67 -27.5 -131.5t-25 -117.5 t-19 -89.5t-9.5 -47.5q-2 -12 -5 -25t-7 -26q-2 -10 -5.5 -24.5t-5.5 -22.5l-6 -27q-5 -23 -16.5 -39.5t-41.5 -16.5q-31 0 -37 13t-1 35q3 14 7 25t7 22.5t6 23.5q2 12 4 23.5t5 22.5q2 13 4 25t4 23l185 871q9 42 19.5 86.5t22.5 85.5q0 14 -14 31.5t-34.5 33t-44 26 t-42.5 10.5q-4 0 -8 -1q-62 -12 -105.5 -55.5t-72.5 -130.5l-34 -1q-11 63 -2 103z" />
<glyph unicode="&#xe46;" horiz-adv-x="757" d="M170.5 488q-5.5 28 5.5 58q11 31 33 71t52.5 74.5t67.5 58.5t78 24q29 0 49 -20q20 -23 34.5 -35.5t26.5 -12.5q11 0 26.5 11.5t44.5 37.5v-1q10 9 21.5 13t22.5 4q24 0 49.5 -21t45 -53t29.5 -69t4 -68q-2 -9 -6 -19t-10 -18l-1 -1q-27 -39 -46 -79t-32.5 -80.5 t-22.5 -81.5t-18 -83l-72 -339q-20 -91 -40.5 -181.5t-44.5 -181.5q-10 -38 -30.5 -71.5t-40.5 -63.5v1q-7 -10 -12.5 -18.5t-12.5 -18.5q-1 -2 -1.5 -4t-2.5 -4q-4 -8 -8.5 -16.5t-11 -14.5t-16 -8.5t-23.5 2.5h1q-14 4 -19.5 10.5t-5.5 14.5t3.5 17t8.5 18q4 8 4 10 q7 24 18.5 46.5t22.5 44.5q11 20 21.5 42.5t16.5 43.5q25 96 46.5 193t41.5 192q13 61 26 121t27 121q2 9 4.5 21t5 25t4.5 24.5t4 20.5q3 18 6.5 38.5t7.5 37.5q11 52 32 105.5t59 107.5q8 11 13 22t7 20q5 21 -3 38.5t-25 28.5q-12 12 -23 12t-22.5 -9t-22.5 -20 q-5 -4 -7 -6.5t-4 -4.5q-5 -8 -10.5 -12.5t-14.5 -10.5q-13 -9 -24.5 -12.5t-22.5 -3.5q-22 0 -36 13t-19 35q-4 21 -17 29.5t-29 8.5q-21 0 -38 -14q-5 -3 -10 -10.5t-10.5 -16.5t-10.5 -17t-9 -12q31 21 57 21q25 0 45.5 -19.5t42.5 -58.5q2 -2 3.5 -4t2.5 -4q1 -4 4 -9 t4 -7q-9 -36 -20.5 -61.5t-27 -41.5t-36 -23.5t-47.5 -7.5q-8 0 -15.5 0.5t-15.5 1.5q-36 4 -64 19.5t-45 38.5t-22.5 51zM303 504q-1 -17 6.5 -30.5t27.5 -15.5q14 -2 22 6.5t10 22.5q3 20 -6.5 30.5t-25.5 15.5q-17 0 -25.5 -9t-8.5 -20z" />
<glyph unicode="&#xe47;" d="M-357 1145q6 32 28 68l-1 -1q45 75 104.5 110.5t129.5 30.5q8 0 15.5 -0.5t14.5 -0.5q23 -1 46.5 -1t45.5 -2q13 -1 25.5 -1.5t22.5 -0.5q17 0 27.5 3.5t19 14t16.5 28.5t20 48q11 28 26 55t39.5 50.5t63 41t97.5 28.5q-46 -44 -76.5 -84t-50.5 -77.5t-32.5 -73 t-22.5 -70.5q-13 -48 -48 -65q8 -7 15.5 -17.5t12.5 -21.5q8 -18 8 -42.5t-6 -50.5q-6 -27 -17 -54t-26.5 -51t-34.5 -42.5t-40 -28.5q-14 -5 -27 -8.5t-24 -3.5q-31 0 -53.5 15.5t-43.5 33.5q-8 6 -12 10q-4 3 -7 10t-5 14q-1 2 -2 5t-2 5t-3.5 5.5t-3.5 5.5q-2 5 -5.5 8.5 t-8.5 1.5l-1 -1q-9 -5 -13 -15t-2 -20l1 -1q2 -8 4 -16.5t1 -16.5t-6 -16.5t-17 -17.5q-13 -8 -23 -10t-17.5 -1t-14 4.5t-12.5 7.5t-7 5q-20 16 -39 33t-39 37q-27 29 -37.5 62t-2.5 71zM-268 1139q-5 -21 7 -38.5t27 -33.5v1l3.5 -3.5t3.5 -2.5q9 11 19 20t22 20 q23 19 44.5 33.5t43.5 14.5q17 0 31 -13t21 -48v1q7 -23 22.5 -41t41.5 -21q13 -2 25.5 4t19.5 20l-1 -1q-8 -2 -15 -2t-12 3h2q-16 4 -30.5 10t-25 16t-14.5 25.5t1 38.5q8 32 25.5 60t46.5 45q-10 1 -20 1h-20h-50.5t-45.5 5q-17 3 -27 3q-44 0 -75.5 -25t-56.5 -63 q-10 -14 -13 -29zM47 1145q-2 -12 6 -16t19 -2t20 6t11 21q-2 8 -7 13.5t-16 6.5q-14 0 -22.5 -7.5t-10.5 -21.5z" />
<glyph unicode="&#xe48;" d="M159 1453q2 11 5 25.5t5 25.5q3 13 5 25t5 25q7 40 16 88t17 88l5 23q2 11 5.5 23.5t11 22.5t20 15.5t33.5 3.5q16 -2 23 -8t9 -14t0 -18t-5 -19l-31 -147q-2 -19 -6 -43t-9 -46l-4 -16l-4 -16l-8 -38q-2 -9 -5.5 -19.5t-10 -19t-17 -14t-26.5 -5.5q-23 1 -29.5 19.5 t-4.5 38.5z" />
<glyph unicode="&#xe49;" d="M-127 1471q1 18 8 30t17.5 19.5t23 12t25.5 9.5h-1q11 4 20.5 6.5t14.5 6.5q7 5 14 9t15 9q-30 59 -17 116q14 75 97 124q20 12 42.5 19t43.5 7q37 0 67 -27q13 -14 15 -41t-4 -57q-6 -29 -19.5 -59.5t-30.5 -48.5q-24 -25 -58 -48t-66 -45q-5 -3 -6 -3.5l-1 -0.5l-1 -1 t-8 -6q17 -2 34 -2.5t31 -0.5q66 0 116 18t90 49t74 73t69 90q5 6 13.5 17.5t18 24t18 23.5t12.5 17q8 -36 9 -57.5t-1 -32.5q-2 -12 -7 -22.5t-11 -21.5h1q-44 -73 -89 -125.5t-94.5 -86.5t-106.5 -50t-125 -16q-32 0 -65 3.5t-68 9.5h1q-7 1 -14 1.5t-14 0.5 q-15 0 -30.5 1t-27.5 6t-19 17t-6 33zM73 1684q-8 -24 1.5 -36.5t29.5 -10.5q17 1 27.5 6.5t17.5 14.5t11.5 19.5t9.5 21.5q4 9 5 18.5t-2 17.5t-9.5 12.5t-17.5 3.5q-32 -4 -48 -22t-25 -45z" />
<glyph unicode="&#xe4a;" d="M-231 1600q10 48 42.5 91.5t86.5 75.5l-1 -1q41 26 78 26q46 0 76 -39q2 -2 3.5 -5t3.5 -6q1 -4 3 -6t4 -3q22 17 46.5 32t50.5 15q23 0 45 -14q9 -7 14.5 -22.5t8.5 -36.5q15 66 35.5 139t56.5 154q20 -14 28.5 -30.5t10 -33t-1.5 -32t-6 -25.5l-1 -3 q-6 -35 -11.5 -65.5t-11.5 -60.5q-6 -34 -13.5 -71t-16.5 -87q-2 -12 -4.5 -25.5t-4.5 -22.5q-7 -33 -16 -56.5t-24 -39.5t-37.5 -25.5t-56.5 -14.5l1 1q-2 -1 -6.5 -2t-8.5 -2q-18 -5 -35.5 -3t-25.5 23q-8 23 1.5 35.5t22.5 23.5q3 2 5.5 5t5.5 6q28 31 34 59q4 17 2.5 36 t-3.5 39v-1q-2 8 -2 15.5t-2 15.5q0 13 -8 12q-9 -1 -24.5 -14t-30.5 -29.5t-25.5 -33t-8.5 -23.5q6 -17 7 -34t-2 -31q-11 -47 -57 -77q-43 -28 -88 -28q-40 0 -71 22h1q-47 33 -63.5 79.5t-5.5 97.5zM-120 1621q18 16 38.5 25.5t46.5 5.5q13 -3 18 -5q7 -5 11 -3 q2 5 -0.5 9.5t-5.5 10.5q-2 4 -3.5 7.5t-3.5 7.5q-3 10 -9 15.5t-18 2.5h1q-20 -6 -41.5 -28t-33.5 -48zM-99 1536q-4 -20 6 -32.5t27 -17.5q12 -4 24 5t20 25q0 17 -4.5 32t-25.5 17q-16 3 -29.5 -4.5t-17.5 -24.5z" />
<glyph unicode="&#xe4b;" d="M14.5 1614q-3.5 11 1.5 33q6 22 15.5 33.5t22 16t27 4t28.5 -1.5q4 -1 9 -1h10q18 -3 32 -5t24 -2q14 0 21 6.5t12 24.5q2 11 3.5 28.5t1.5 41.5q0 9 1.5 20.5t7.5 21.5t17 17.5t31 8.5q33 1 42.5 -19.5t1.5 -45.5q-15 -39 -19 -63q-4 -19 -2.5 -29t7.5 -14t14.5 -4 t19.5 1h-1q9 1 17.5 1.5t18.5 -0.5h2q13 0 27 -1.5t24.5 -7.5t14 -18t-3.5 -34q-6 -19 -17.5 -28.5t-24.5 -13t-27 -2.5t-26 4q-30 8 -42 8q-14 0 -22.5 -14t-19.5 -50q-4 -13 -6 -35q-1 -5 -1.5 -11t-1.5 -12l-2 -14q-5 -23 -17 -39t-40 -16q-34 2 -41.5 19.5t-2.5 40.5 q3 13 6.5 22t7.5 18q3 7 5 13t4 11q1 4 1.5 8t2.5 8v-1q4 11 6.5 19t3.5 14q2 11 -2.5 16t-25.5 5q-14 0 -39 -3h2q-10 -3 -25 1h1q-5 1 -10.5 1.5t-12.5 -0.5q-14 -1 -27 -1t-22 4.5t-12.5 15.5z" />
<glyph unicode="&#xe4c;" d="M-57 1499q-1 12 0.5 23t3.5 22q12 57 53 100.5t93 81.5q52 36 100 36q23 0 43 -7t37 -20q9 -7 18 -10t15 -3q11 0 20.5 10t20.5 28q51 78 116.5 141.5t148.5 108.5l12 6l22 12t23.5 8.5t26 0t30.5 -11.5q-11 -36 -27.5 -50.5t-34.5 -24.5q-2 -2 -5 -3.5t-6 -3.5l2 1 q-80 -52 -145.5 -113t-113.5 -146v1q-27 -48 -45.5 -69t-42.5 -21q-17 0 -34.5 10.5t-43.5 30.5q-13 10 -26 17t-27 7q-19 0 -41 -16q-30 -23 -57.5 -48.5t-34.5 -57.5q-3 -13 -2 -24q2 -18 14 -27q3 0 6.5 3t6.5 7q2 2 3.5 5.5t3.5 6.5q22 32 49 49.5t57 17.5q26 0 49 -13 q29 -17 41.5 -45t5.5 -59q-3 -12 -7 -25t-12 -24q-21 -35 -53 -55.5t-66 -20.5q-11 0 -20 2t-19 6q-27 10 -54 23t-49 31.5t-37 43t-18 58.5zM120 1448q-2 -12 4 -21.5t22 -8.5q17 4 31 12t16 28q4 17 -3 25.5t-26 6.5q-18 -2 -29.5 -13.5t-14.5 -28.5z" />
<glyph unicode="&#xe4d;" d="M-81 1059.5q-7 28.5 0 63.5q15 69 63 110t114 43q46 0 75.5 -7.5t45 -25t18 -47t-6.5 -73.5q-6 -33 -22 -61t-38.5 -49t-49.5 -33t-56 -12q-39 0 -69 11.5t-48.5 31.5t-25.5 48.5zM14 1126q-6 -33 12 -46t46 -15q26 -1 44 17.5t26 48.5q2 31 -10.5 42.5t-43.5 6.5l-24 -4 t-22 -7.5t-17.5 -15.5t-10.5 -27z" />
<glyph unicode="&#xe4e;" d="M-167.5 1101q-0.5 14 1.5 26q15 70 121 129q11 5 15.5 11.5t8.5 14.5v-1q2 5 5 10q12 20 25.5 39.5t31 34.5t40 23t51.5 5q19 -2 33 -3.5t23 -1.5q10 0 20.5 4t24 14t32 26.5t45.5 42.5q-5 -38 -7.5 -61.5t-4.5 -34.5q-11 -51 -33.5 -74t-62.5 -23q-29 0 -66 12h1l-16 4 t-16 2q-9 0 -17.5 -4.5t-16.5 -17.5q-8 -12 -3.5 -16.5t11.5 -7.5l14 -7l8 -4q0 -1 8.5 -4.5t13.5 -7.5h-1q13 -7 25 -14.5t18 -17.5t4 -24t-16 -33q-19 -25 -47 -25q-17 0 -31.5 9.5t-27.5 17.5q-8 4 -13 10q-9 6 -20.5 11t-21.5 7q-17 3 -31.5 -6.5t-27.5 -25.5 q-10 -11 -6 -21t12 -19l3 -5q17 -22 42 -29t55 -5q2 0 4 0.5t4 0.5q11 1 22 0.5t18.5 -5t10 -15t-3.5 -31.5l1 1q-8 -27 -26 -43.5t-51 -21.5q-24 -3 -53.5 7.5t-57 29.5t-48 42.5t-24.5 46.5q-2 14 -2.5 28z" />
<glyph unicode="&#xe4f;" horiz-adv-x="801" d="M153.5 297q-13.5 61 0.5 131q15 70 55 131.5t95.5 107t122 71.5t135.5 26q68 0 123.5 -25.5t92.5 -70.5t51.5 -106.5t-1.5 -133.5q-14 -70 -54 -131.5t-95 -107t-122.5 -71.5t-137.5 -26t-125.5 26.5t-91 72t-49 106.5zM202 318q11 -52 40.5 -91.5t77 -62.5t109.5 -23 q61 0 119 23t104.5 62.5t79.5 91.5t45 110q13 59 1 111.5t-42.5 91.5t-78 61.5t-106.5 22.5t-116 -22.5t-104.5 -61.5t-81 -91.5t-46.5 -111.5q-12 -58 -1 -110zM284 347.5q-8 37.5 1 80.5q10 43 34 80.5t57 65t74 43.5t84 16t77.5 -16t57 -43.5t30.5 -65t-2 -80.5 q-9 -43 -33 -80.5t-57.5 -65t-75 -43.5t-84.5 -16t-77 16t-56 43.5t-30 65z" />
</font>
</defs>
</svg>
